STARTFONT 2.1
FONT -FontForge-Roboto Mono-Book-R-Normal--20-190-75-75-P-119-ISO10646-1
SIZE 19 75 75
FONTBOUNDINGBOX 29 26 -10 -5
COMMENT "Generated by fontforge, http://fontforge.sourceforge.net"
COMMENT "Copyright 2015 Google Inc. All Rights Reserved."
STARTPROPERTIES 41
FOUNDRY "FontForge"
FAMILY_NAME "Roboto Mono"
WEIGHT_NAME "Book"
SLANT "R"
SETWIDTH_NAME "Normal"
ADD_STYLE_NAME ""
PIXEL_SIZE 20
POINT_SIZE 190
RESOLUTION_X 75
RESOLUTION_Y 75
SPACING "P"
AVERAGE_WIDTH 120
CHARSET_REGISTRY "ISO10646"
CHARSET_ENCODING "1"
FONTNAME_REGISTRY ""
CHARSET_COLLECTIONS "ISO8859-2 ISO8859-5 ISO8859-7 ISO8859-9 ISO8859-4 ISO10646-1"
FONT_NAME "RobotoMono-Regular"
FACE_NAME "Roboto Mono"
COPYRIGHT "Copyright 2015 Google Inc. All Rights Reserved."
FONT_VERSION "2.000985; 2015; ttfautohint (v1.3)"
FONT_ASCENT 16
FONT_DESCENT 4
UNDERLINE_POSITION -2
UNDERLINE_THICKNESS 1
X_HEIGHT 10
CAP_HEIGHT 14
DEFAULT_CHAR 1
RAW_ASCENT 799
RAW_DESCENT 200
NORM_SPACE 12
RELATIVE_WEIGHT 40
RELATIVE_SETWIDTH 50
SUPERSCRIPT_X 0
SUPERSCRIPT_Y 9
SUPERSCRIPT_SIZE 12
SUBSCRIPT_X 0
SUBSCRIPT_Y 2
SUBSCRIPT_SIZE 12
FIGURE_WIDTH 12
AVG_LOWERCASE_WIDTH 120
AVG_UPPERCASE_WIDTH 120
ENDPROPERTIES
CHARS 1012
STARTCHAR NULL.dup1
ENCODING 0
SWIDTH 0 0
DWIDTH 0 0
BBX 1 1 0 0
BITMAP
00
ENDCHAR
STARTCHAR uni0002
ENCODING 2
SWIDTH 600 0
DWIDTH 12 0
BBX 1 1 0 0
BITMAP
00
ENDCHAR
STARTCHAR uni0009
ENCODING 9
SWIDTH 600 0
DWIDTH 12 0
BBX 1 1 0 0
BITMAP
00
ENDCHAR
STARTCHAR nonmarkingreturn
ENCODING 13
SWIDTH 600 0
DWIDTH 12 0
BBX 1 1 0 0
BITMAP
00
ENDCHAR
STARTCHAR space
ENCODING 32
SWIDTH 600 0
DWIDTH 12 0
BBX 1 1 0 0
BITMAP
00
ENDCHAR
STARTCHAR exclam
ENCODING 33
SWIDTH 600 0
DWIDTH 12 0
BBX 2 15 5 0
BITMAP
C0
C0
C0
C0
C0
C0
C0
C0
C0
C0
00
00
00
C0
C0
ENDCHAR
STARTCHAR quotedbl
ENCODING 34
SWIDTH 600 0
DWIDTH 12 0
BBX 5 5 3 10
BITMAP
C8
C8
C8
C8
C8
ENDCHAR
STARTCHAR numbersign
ENCODING 35
SWIDTH 600 0
DWIDTH 12 0
BBX 11 15 1 0
BITMAP
0880
0880
1980
1980
FFE0
F100
1100
1300
3300
33C0
FFC0
2200
2200
6600
6600
ENDCHAR
STARTCHAR dollar
ENCODING 36
SWIDTH 600 0
DWIDTH 12 0
BBX 9 19 2 -2
BITMAP
0800
0800
1C00
7E00
6300
C300
C180
C000
6000
3C00
1E00
0300
0180
8180
C180
C300
7E00
1800
1800
ENDCHAR
STARTCHAR percent
ENCODING 37
SWIDTH 600 0
DWIDTH 12 0
BBX 12 15 0 0
BITMAP
7800
7800
CC80
CC80
4D00
7B00
1200
0600
0480
0DE0
0B20
1B30
1330
01E0
01E0
ENDCHAR
STARTCHAR ampersand
ENCODING 38
SWIDTH 600 0
DWIDTH 12 0
BBX 11 15 1 0
BITMAP
1E00
3E00
6300
6300
6200
3E00
3C00
3800
6C40
C6C0
C6C0
C380
C180
7FC0
3CE0
ENDCHAR
STARTCHAR quotesingle
ENCODING 39
SWIDTH 600 0
DWIDTH 12 0
BBX 1 5 5 10
BITMAP
80
80
80
80
80
ENDCHAR
STARTCHAR parenleft
ENCODING 40
SWIDTH 600 0
DWIDTH 12 0
BBX 6 21 3 -5
BITMAP
0C
18
10
30
20
60
60
40
40
C0
C0
40
40
60
60
60
20
30
18
0C
04
ENDCHAR
STARTCHAR parenright
ENCODING 41
SWIDTH 600 0
DWIDTH 12 0
BBX 5 21 3 -5
BITMAP
80
40
60
30
30
18
18
18
18
18
18
18
18
18
18
10
30
20
60
C0
80
ENDCHAR
STARTCHAR asterisk
ENCODING 42
SWIDTH 600 0
DWIDTH 12 0
BBX 9 10 2 2
BITMAP
1800
1800
0800
C980
FF80
1800
3C00
2600
6300
2200
ENDCHAR
STARTCHAR plus
ENCODING 43
SWIDTH 600 0
DWIDTH 12 0
BBX 10 11 1 1
BITMAP
0C00
0C00
0C00
0C00
0C00
FFC0
FC00
0C00
0C00
0C00
0C00
ENDCHAR
STARTCHAR comma
ENCODING 44
SWIDTH 600 0
DWIDTH 12 0
BBX 3 6 3 -4
BITMAP
60
60
60
60
C0
40
ENDCHAR
STARTCHAR hyphen
ENCODING 45
SWIDTH 600 0
DWIDTH 12 0
BBX 8 2 2 6
BITMAP
FF
FF
ENDCHAR
STARTCHAR period
ENCODING 46
SWIDTH 600 0
DWIDTH 12 0
BBX 3 3 5 0
BITMAP
C0
E0
C0
ENDCHAR
STARTCHAR slash
ENCODING 47
SWIDTH 600 0
DWIDTH 12 0
BBX 8 15 2 0
BITMAP
03
02
06
06
04
0C
0C
08
18
10
30
30
20
60
C0
ENDCHAR
STARTCHAR zero
ENCODING 48
SWIDTH 600 0
DWIDTH 12 0
BBX 10 15 1 0
BITMAP
1E00
3F00
6180
4080
C0C0
C1C0
C7C0
CCC0
D8C0
F0C0
C0C0
4080
6180
3F00
1E00
ENDCHAR
STARTCHAR one
ENCODING 49
SWIDTH 600 0
DWIDTH 12 0
BBX 6 15 2 0
BITMAP
04
1C
FC
CC
0C
0C
0C
0C
0C
0C
0C
0C
0C
0C
0C
ENDCHAR
STARTCHAR two
ENCODING 50
SWIDTH 600 0
DWIDTH 12 0
BBX 9 15 1 0
BITMAP
3E00
7F00
C300
C180
C180
0180
0300
0600
0600
0C00
1800
3000
6000
FF80
FF80
ENDCHAR
STARTCHAR three
ENCODING 51
SWIDTH 600 0
DWIDTH 12 0
BBX 9 15 1 0
BITMAP
3E00
7F00
C100
C180
0180
0300
0F00
1E00
0300
0180
0180
C180
C180
7F00
3E00
ENDCHAR
STARTCHAR four
ENCODING 52
SWIDTH 600 0
DWIDTH 12 0
BBX 10 15 1 0
BITMAP
0300
0700
0700
0F00
1B00
1300
3300
2300
6300
C300
FFC0
FFC0
0300
0300
0300
ENDCHAR
STARTCHAR five
ENCODING 53
SWIDTH 600 0
DWIDTH 12 0
BBX 9 15 2 0
BITMAP
7F00
6000
4000
4000
4000
4800
FE00
C300
0180
0180
0180
C180
C300
7F00
3E00
ENDCHAR
STARTCHAR six
ENCODING 54
SWIDTH 600 0
DWIDTH 12 0
BBX 9 15 1 0
BITMAP
0E00
1E00
3000
6000
6000
4400
DF00
E380
C180
C080
C080
6180
6180
3F00
1E00
ENDCHAR
STARTCHAR seven
ENCODING 55
SWIDTH 600 0
DWIDTH 12 0
BBX 10 15 1 0
BITMAP
FFC0
FF80
0180
0180
0300
0300
0200
0600
0600
0C00
0C00
1800
1800
1000
3000
ENDCHAR
STARTCHAR eight
ENCODING 56
SWIDTH 600 0
DWIDTH 12 0
BBX 9 15 2 0
BITMAP
3C00
7F00
C300
C100
C100
C300
7E00
3E00
6300
C180
C180
C180
C300
7F00
3E00
ENDCHAR
STARTCHAR nine
ENCODING 57
SWIDTH 600 0
DWIDTH 12 0
BBX 9 15 1 0
BITMAP
1E00
3F00
6180
4180
C080
C080
4080
6180
7F80
1E80
0180
0180
0300
1E00
3C00
ENDCHAR
STARTCHAR colon
ENCODING 58
SWIDTH 600 0
DWIDTH 12 0
BBX 3 12 5 0
BITMAP
C0
E0
C0
00
00
00
00
00
00
C0
E0
C0
ENDCHAR
STARTCHAR semicolon
ENCODING 59
SWIDTH 600 0
DWIDTH 12 0
BBX 4 16 4 -4
BITMAP
60
70
60
00
00
00
00
00
00
00
60
60
60
60
C0
40
ENDCHAR
STARTCHAR less
ENCODING 60
SWIDTH 600 0
DWIDTH 12 0
BBX 8 9 2 2
BITMAP
01
07
1E
78
C0
F0
3C
0F
01
ENDCHAR
STARTCHAR equal
ENCODING 61
SWIDTH 600 0
DWIDTH 12 0
BBX 8 6 2 4
BITMAP
FF
FF
00
00
FF
FF
ENDCHAR
STARTCHAR greater
ENCODING 62
SWIDTH 600 0
DWIDTH 12 0
BBX 8 9 2 2
BITMAP
80
E0
78
1E
03
0F
3C
E0
80
ENDCHAR
STARTCHAR question
ENCODING 63
SWIDTH 600 0
DWIDTH 12 0
BBX 8 15 2 0
BITMAP
3C
7F
C3
C3
03
03
06
0E
1C
18
18
00
00
18
18
ENDCHAR
STARTCHAR at
ENCODING 64
SWIDTH 600 0
DWIDTH 12 0
BBX 10 15 1 0
BITMAP
1F00
3F80
6080
4440
CF40
9A40
9240
B240
B240
B240
9FC0
9980
4000
7E00
1F00
ENDCHAR
STARTCHAR A
ENCODING 65
SWIDTH 600 0
DWIDTH 12 0
BBX 10 15 1 0
BITMAP
0C00
0C00
0E00
1E00
1A00
1300
3300
3300
3100
7F80
7F80
6080
40C0
C0C0
C0C0
ENDCHAR
STARTCHAR B
ENCODING 66
SWIDTH 600 0
DWIDTH 12 0
BBX 9 15 2 0
BITMAP
FC00
CF00
C300
C180
C180
C300
CE00
FE00
C300
C180
C180
C180
C380
CF00
FE00
ENDCHAR
STARTCHAR C
ENCODING 67
SWIDTH 600 0
DWIDTH 12 0
BBX 10 15 1 0
BITMAP
1E00
3F80
6180
40C0
C0C0
C000
C000
C000
C000
C000
C0C0
40C0
6180
3F80
1E00
ENDCHAR
STARTCHAR D
ENCODING 68
SWIDTH 600 0
DWIDTH 12 0
BBX 9 15 2 0
BITMAP
F800
9E00
8300
8300
8180
8180
8180
8180
8180
8180
8180
8300
8300
9E00
F800
ENDCHAR
STARTCHAR E
ENCODING 69
SWIDTH 600 0
DWIDTH 12 0
BBX 9 15 2 0
BITMAP
FF00
C000
C000
C000
C000
C000
C000
FF00
C000
C000
C000
C000
C000
FF80
FF80
ENDCHAR
STARTCHAR F
ENCODING 70
SWIDTH 600 0
DWIDTH 12 0
BBX 9 15 2 0
BITMAP
FF80
C000
C000
C000
C000
C000
C000
FF00
C000
C000
C000
C000
C000
C000
C000
ENDCHAR
STARTCHAR G
ENCODING 71
SWIDTH 600 0
DWIDTH 12 0
BBX 10 15 1 0
BITMAP
1E00
3F80
6180
40C0
C000
C000
C000
C7C0
C7C0
C0C0
C0C0
40C0
60C0
3F80
1F00
ENDCHAR
STARTCHAR H
ENCODING 72
SWIDTH 600 0
DWIDTH 12 0
BBX 10 15 1 0
BITMAP
C0C0
C0C0
C0C0
C0C0
C0C0
C0C0
C0C0
FFC0
C0C0
C0C0
C0C0
C0C0
C0C0
C0C0
C0C0
ENDCHAR
STARTCHAR I
ENCODING 73
SWIDTH 600 0
DWIDTH 12 0
BBX 8 15 2 0
BITMAP
FF
F8
18
18
18
18
18
18
18
18
18
18
18
1F
FF
ENDCHAR
STARTCHAR J
ENCODING 74
SWIDTH 600 0
DWIDTH 12 0
BBX 9 15 1 0
BITMAP
0180
0180
0180
0180
0180
0180
0180
0180
0180
0180
0180
C180
C180
7F00
3E00
ENDCHAR
STARTCHAR K
ENCODING 75
SWIDTH 600 0
DWIDTH 12 0
BBX 10 15 2 0
BITMAP
C180
C300
C600
CE00
CC00
D800
F000
F800
FC00
CC00
C600
C600
C300
C380
C1C0
ENDCHAR
STARTCHAR L
ENCODING 76
SWIDTH 600 0
DWIDTH 12 0
BBX 9 15 2 0
BITMAP
C000
C000
C000
C000
C000
C000
C000
C000
C000
C000
C000
C000
C000
FF80
FF80
ENDCHAR
STARTCHAR M
ENCODING 77
SWIDTH 600 0
DWIDTH 12 0
BBX 10 15 1 0
BITMAP
E1C0
E1C0
E1C0
F3C0
D3C0
D2C0
DEC0
DEC0
CCC0
CCC0
CCC0
C0C0
C0C0
C0C0
C0C0
ENDCHAR
STARTCHAR N
ENCODING 78
SWIDTH 600 0
DWIDTH 12 0
BBX 10 15 1 0
BITMAP
C0C0
E0C0
E0C0
F0C0
D0C0
D8C0
C8C0
CCC0
C4C0
C6C0
C2C0
C3C0
C1C0
C1C0
C0C0
ENDCHAR
STARTCHAR O
ENCODING 79
SWIDTH 600 0
DWIDTH 12 0
BBX 10 15 1 0
BITMAP
1E00
3F00
6180
4080
C0C0
C0C0
C0C0
C0C0
C0C0
C0C0
C0C0
4080
6180
3F00
1E00
ENDCHAR
STARTCHAR P
ENCODING 80
SWIDTH 600 0
DWIDTH 12 0
BBX 9 15 2 0
BITMAP
FE00
CF00
C180
C180
C180
C180
C180
CF00
FE00
C000
C000
C000
C000
C000
C000
ENDCHAR
STARTCHAR Q
ENCODING 81
SWIDTH 600 0
DWIDTH 12 0
BBX 10 17 1 -2
BITMAP
1E00
3F00
6180
C080
C0C0
C0C0
C0C0
C0C0
C0C0
C0C0
C0C0
C0C0
6180
3F00
1F00
01C0
00C0
ENDCHAR
STARTCHAR R
ENCODING 82
SWIDTH 600 0
DWIDTH 12 0
BBX 9 15 2 0
BITMAP
FC00
CF00
C300
C180
C180
C180
C300
CF00
FC00
C600
C600
C200
C300
C100
C180
ENDCHAR
STARTCHAR S
ENCODING 83
SWIDTH 600 0
DWIDTH 12 0
BBX 10 15 1 0
BITMAP
1E00
3F80
61C0
40C0
6000
6000
3800
1F00
0780
01C0
00C0
C0C0
60C0
7F80
1F00
ENDCHAR
STARTCHAR T
ENCODING 84
SWIDTH 600 0
DWIDTH 12 0
BBX 10 15 1 0
BITMAP
FFC0
FC00
0C00
0C00
0C00
0C00
0C00
0C00
0C00
0C00
0C00
0C00
0C00
0C00
0C00
ENDCHAR
STARTCHAR U
ENCODING 85
SWIDTH 600 0
DWIDTH 12 0
BBX 10 15 1 0
BITMAP
C0C0
C0C0
C0C0
C0C0
C0C0
C0C0
C0C0
C0C0
C0C0
C0C0
C0C0
4080
6180
3F00
1E00
ENDCHAR
STARTCHAR V
ENCODING 86
SWIDTH 600 0
DWIDTH 12 0
BBX 10 15 1 0
BITMAP
C0C0
C0C0
C080
6180
6180
6180
3300
3300
3300
1600
1E00
1E00
1E00
0C00
0C00
ENDCHAR
STARTCHAR W
ENCODING 87
SWIDTH 600 0
DWIDTH 12 0
BBX 11 15 1 0
BITMAP
8C60
CC40
CC40
CEC0
CEC0
DEC0
DAC0
5AC0
52C0
5380
5380
7380
7180
7180
6180
ENDCHAR
STARTCHAR X
ENCODING 88
SWIDTH 600 0
DWIDTH 12 0
BBX 10 15 1 0
BITMAP
C0C0
6180
6180
3300
3B00
1E00
0E00
0C00
0E00
1E00
3300
3300
6180
61C0
C0C0
ENDCHAR
STARTCHAR Y
ENCODING 89
SWIDTH 600 0
DWIDTH 12 0
BBX 10 15 1 0
BITMAP
C0C0
C180
6180
6180
3300
3300
1E00
1E00
0C00
0C00
0C00
0C00
0C00
0C00
0C00
ENDCHAR
STARTCHAR Z
ENCODING 90
SWIDTH 600 0
DWIDTH 12 0
BBX 10 15 1 0
BITMAP
FF80
FF80
0180
0300
0600
0600
0C00
0C00
1800
1800
3000
6000
6000
FFC0
FFC0
ENDCHAR
STARTCHAR bracketleft
ENCODING 91
SWIDTH 600 0
DWIDTH 12 0
BBX 4 20 4 -3
BITMAP
F0
F0
C0
C0
C0
C0
C0
C0
C0
C0
C0
C0
C0
C0
C0
C0
C0
C0
F0
F0
ENDCHAR
STARTCHAR backslash
ENCODING 92
SWIDTH 600 0
DWIDTH 12 0
BBX 8 15 2 0
BITMAP
C0
40
60
20
30
30
10
18
08
0C
0C
04
06
06
03
ENDCHAR
STARTCHAR bracketright
ENCODING 93
SWIDTH 600 0
DWIDTH 12 0
BBX 4 20 4 -3
BITMAP
F0
F0
30
30
30
30
30
30
30
30
30
30
30
30
30
30
30
30
30
F0
ENDCHAR
STARTCHAR asciicircum
ENCODING 94
SWIDTH 600 0
DWIDTH 12 0
BBX 8 8 2 7
BITMAP
18
18
3C
3C
24
66
66
C3
ENDCHAR
STARTCHAR underscore
ENCODING 95
SWIDTH 600 0
DWIDTH 12 0
BBX 8 2 2 -1
BITMAP
FF
FF
ENDCHAR
STARTCHAR grave
ENCODING 96
SWIDTH 600 0
DWIDTH 12 0
BBX 4 2 4 13
BITMAP
E0
30
ENDCHAR
STARTCHAR a
ENCODING 97
SWIDTH 600 0
DWIDTH 12 0
BBX 9 11 2 0
BITMAP
3C00
FF00
C300
0300
3F00
FB00
C300
8300
C300
FF00
7980
ENDCHAR
STARTCHAR b
ENCODING 98
SWIDTH 600 0
DWIDTH 12 0
BBX 9 15 2 0
BITMAP
C000
C000
C000
C000
FC00
FF00
C300
C100
C180
C180
C180
C100
C300
FF00
BC00
ENDCHAR
STARTCHAR c
ENCODING 99
SWIDTH 600 0
DWIDTH 12 0
BBX 10 11 1 0
BITMAP
1E00
3F80
6180
40C0
C000
C000
C000
40C0
6180
3F80
1E00
ENDCHAR
STARTCHAR d
ENCODING 100
SWIDTH 600 0
DWIDTH 12 0
BBX 9 15 1 0
BITMAP
0180
0180
0180
0180
1F80
3F80
6180
4180
C180
C180
C180
4180
6180
3F80
1E80
ENDCHAR
STARTCHAR e
ENCODING 101
SWIDTH 600 0
DWIDTH 12 0
BBX 10 11 1 0
BITMAP
1E00
3F80
6180
4080
C0C0
FFC0
C000
4000
60C0
3F80
1F00
ENDCHAR
STARTCHAR f
ENCODING 102
SWIDTH 600 0
DWIDTH 12 0
BBX 10 16 1 0
BITMAP
0100
0FC0
0C00
1800
1800
FF80
F800
1800
1800
1800
1800
1800
1800
1800
1800
1800
ENDCHAR
STARTCHAR g
ENCODING 103
SWIDTH 600 0
DWIDTH 12 0
BBX 9 15 1 -4
BITMAP
1E80
7F80
6180
4180
C180
C180
C180
4180
6180
3F80
1F80
0180
4180
7F00
1E00
ENDCHAR
STARTCHAR h
ENCODING 104
SWIDTH 600 0
DWIDTH 12 0
BBX 8 15 2 0
BITMAP
C0
C0
C0
C0
DE
FF
C3
C1
C1
C1
C1
C1
C1
C1
C1
ENDCHAR
STARTCHAR i
ENCODING 105
SWIDTH 600 0
DWIDTH 12 0
BBX 9 15 2 0
BITMAP
1800
1C00
0000
0000
F800
F800
0800
0800
0800
0800
0800
0800
0800
0F80
FF80
ENDCHAR
STARTCHAR j
ENCODING 106
SWIDTH 600 0
DWIDTH 12 0
BBX 6 19 2 -4
BITMAP
0C
0C
00
00
7C
7C
0C
0C
0C
0C
0C
0C
0C
0C
0C
0C
0C
BC
F0
ENDCHAR
STARTCHAR k
ENCODING 107
SWIDTH 600 0
DWIDTH 12 0
BBX 9 15 2 0
BITMAP
C000
C000
C000
C000
C300
C600
CC00
D800
F000
F800
DC00
CC00
C600
C300
C380
ENDCHAR
STARTCHAR l
ENCODING 108
SWIDTH 600 0
DWIDTH 12 0
BBX 9 15 2 0
BITMAP
F800
F800
0800
0800
0800
0800
0800
0800
0800
0800
0800
0800
0800
0F80
FF80
ENDCHAR
STARTCHAR m
ENCODING 109
SWIDTH 600 0
DWIDTH 12 0
BBX 10 11 1 0
BITMAP
FB80
FFC0
CCC0
CCC0
CCC0
CCC0
CCC0
CCC0
CCC0
CCC0
CCC0
ENDCHAR
STARTCHAR n
ENCODING 110
SWIDTH 600 0
DWIDTH 12 0
BBX 8 11 2 0
BITMAP
9E
BF
C3
C1
C1
C1
C1
C1
C1
C1
C1
ENDCHAR
STARTCHAR o
ENCODING 111
SWIDTH 600 0
DWIDTH 12 0
BBX 10 11 1 0
BITMAP
1E00
3F00
6180
C0C0
C0C0
C0C0
C0C0
C0C0
6180
3F00
1E00
ENDCHAR
STARTCHAR p
ENCODING 112
SWIDTH 600 0
DWIDTH 12 0
BBX 9 15 2 -4
BITMAP
BC00
FF00
C300
C100
C180
C180
C180
C100
C300
FE00
FC00
C000
C000
C000
C000
ENDCHAR
STARTCHAR q
ENCODING 113
SWIDTH 600 0
DWIDTH 12 0
BBX 9 15 1 -4
BITMAP
1E80
7F80
6180
4180
C180
C180
C180
4180
6180
3F80
1F80
0180
0180
0180
0180
ENDCHAR
STARTCHAR r
ENCODING 114
SWIDTH 600 0
DWIDTH 12 0
BBX 7 11 3 0
BITMAP
DE
FE
E0
C0
C0
C0
C0
C0
C0
C0
C0
ENDCHAR
STARTCHAR s
ENCODING 115
SWIDTH 600 0
DWIDTH 12 0
BBX 9 11 2 0
BITMAP
3E00
7F00
C300
C000
6000
3E00
0700
C180
C100
FF00
3E00
ENDCHAR
STARTCHAR t
ENCODING 116
SWIDTH 600 0
DWIDTH 12 0
BBX 9 14 1 0
BITMAP
1800
1800
1800
FF80
F800
1800
1800
1800
1800
1800
1800
1800
0F80
0780
ENDCHAR
STARTCHAR u
ENCODING 117
SWIDTH 600 0
DWIDTH 12 0
BBX 8 11 2 0
BITMAP
C3
C3
C3
C3
C3
C3
C3
C3
C3
FF
7D
ENDCHAR
STARTCHAR v
ENCODING 118
SWIDTH 600 0
DWIDTH 12 0
BBX 10 11 1 0
BITMAP
C0C0
4080
6180
6180
2100
3300
1200
1E00
1E00
0C00
0C00
ENDCHAR
STARTCHAR w
ENCODING 119
SWIDTH 600 0
DWIDTH 12 0
BBX 12 11 0 0
BITMAP
C630
4620
6620
6660
6F60
2960
2940
2940
39C0
38C0
1080
ENDCHAR
STARTCHAR x
ENCODING 120
SWIDTH 600 0
DWIDTH 12 0
BBX 10 11 1 0
BITMAP
E0C0
6180
3300
1E00
1E00
0C00
1E00
1B00
3300
6180
E0C0
ENDCHAR
STARTCHAR y
ENCODING 121
SWIDTH 600 0
DWIDTH 12 0
BBX 10 15 1 -4
BITMAP
C0C0
C0C0
6180
6180
3100
3300
1200
1E00
1E00
0C00
0C00
0800
1800
7000
E000
ENDCHAR
STARTCHAR z
ENCODING 122
SWIDTH 600 0
DWIDTH 12 0
BBX 9 11 2 0
BITMAP
FF00
FF00
0600
0E00
0C00
1800
3000
6000
E000
FF80
FF80
ENDCHAR
STARTCHAR braceleft
ENCODING 123
SWIDTH 600 0
DWIDTH 12 0
BBX 7 20 3 -4
BITMAP
02
0E
18
18
18
18
18
18
30
F0
E0
30
18
18
18
18
18
18
0E
06
ENDCHAR
STARTCHAR bar
ENCODING 124
SWIDTH 600 0
DWIDTH 12 0
BBX 2 19 5 -4
BITMAP
C0
C0
C0
C0
C0
C0
C0
C0
C0
C0
C0
C0
C0
C0
C0
C0
C0
C0
C0
ENDCHAR
STARTCHAR braceright
ENCODING 125
SWIDTH 600 0
DWIDTH 12 0
BBX 7 20 3 -4
BITMAP
80
E0
20
30
30
30
30
30
10
1E
0E
18
30
30
30
30
30
30
E0
C0
ENDCHAR
STARTCHAR asciitilde
ENCODING 126
SWIDTH 600 0
DWIDTH 12 0
BBX 12 4 0 4
BITMAP
3830
7E20
47E0
C1C0
ENDCHAR
STARTCHAR nonbreakingspace
ENCODING 160
SWIDTH 600 0
DWIDTH 12 0
BBX 1 1 0 0
BITMAP
00
ENDCHAR
STARTCHAR exclamdown
ENCODING 161
SWIDTH 600 0
DWIDTH 12 0
BBX 2 15 5 -4
BITMAP
C0
C0
00
00
00
C0
C0
C0
C0
C0
C0
C0
C0
C0
C0
ENDCHAR
STARTCHAR cent
ENCODING 162
SWIDTH 600 0
DWIDTH 12 0
BBX 10 16 1 -2
BITMAP
0C00
0C00
0C00
3F00
7180
6080
4040
C000
C000
4000
60C0
7180
3F00
0C00
0C00
0C00
ENDCHAR
STARTCHAR sterling
ENCODING 163
SWIDTH 600 0
DWIDTH 12 0
BBX 10 15 1 0
BITMAP
0F00
1F80
30C0
30C0
2000
2000
2000
3E00
FE00
3000
3000
3000
2000
7FC0
FFC0
ENDCHAR
STARTCHAR currency
ENCODING 164
SWIDTH 600 0
DWIDTH 12 0
BBX 10 11 1 0
BITMAP
DEC0
7FC0
6180
40C0
C0C0
C0C0
C0C0
40C0
6180
FFC0
5E40
ENDCHAR
STARTCHAR yen
ENCODING 165
SWIDTH 600 0
DWIDTH 12 0
BBX 12 15 0 0
BITMAP
E070
6060
30C0
30C0
1980
1980
0F00
0F00
7FE0
0600
07E0
7FE0
0600
0600
0600
ENDCHAR
STARTCHAR brokenbar
ENCODING 166
SWIDTH 600 0
DWIDTH 12 0
BBX 2 18 5 -3
BITMAP
C0
C0
C0
C0
C0
C0
C0
C0
00
00
C0
C0
C0
C0
C0
C0
C0
C0
ENDCHAR
STARTCHAR section
ENCODING 167
SWIDTH 600 0
DWIDTH 12 0
BBX 10 19 1 -4
BITMAP
1F00
7F80
60C0
C0C0
C000
7000
3E00
EF80
C1C0
C0C0
C0C0
70C0
3F80
0780
0180
C0C0
C0C0
E180
7F00
ENDCHAR
STARTCHAR dieresis
ENCODING 168
SWIDTH 600 0
DWIDTH 12 0
BBX 6 1 3 14
BITMAP
CC
ENDCHAR
STARTCHAR copyright
ENCODING 169
SWIDTH 600 0
DWIDTH 12 0
BBX 10 11 1 0
BITMAP
1E00
7F80
5E80
9E40
B240
B040
B240
9E40
5E80
7F80
1E00
ENDCHAR
STARTCHAR ordfeminine
ENCODING 170
SWIDTH 600 0
DWIDTH 12 0
BBX 6 9 3 6
BITMAP
78
FC
CC
0C
7C
EC
8C
FC
74
ENDCHAR
STARTCHAR guillemotleft
ENCODING 171
SWIDTH 600 0
DWIDTH 12 0
BBX 7 8 2 2
BITMAP
36
24
6C
D8
D8
6C
24
36
ENDCHAR
STARTCHAR logicalnot
ENCODING 172
SWIDTH 600 0
DWIDTH 12 0
BBX 8 4 2 4
BITMAP
FF
FF
03
03
ENDCHAR
STARTCHAR uni00AD
ENCODING 173
SWIDTH 600 0
DWIDTH 12 0
BBX 8 2 2 6
BITMAP
FF
FF
ENDCHAR
STARTCHAR registered
ENCODING 174
SWIDTH 600 0
DWIDTH 12 0
BBX 10 11 1 0
BITMAP
1E00
7F80
5E80
9640
9240
9E40
9440
9240
4080
7F80
1E00
ENDCHAR
STARTCHAR macron
ENCODING 175
SWIDTH 600 0
DWIDTH 12 0
BBX 6 1 3 14
BITMAP
FC
ENDCHAR
STARTCHAR degree
ENCODING 176
SWIDTH 600 0
DWIDTH 12 0
BBX 4 5 4 10
BITMAP
60
F0
90
90
F0
ENDCHAR
STARTCHAR plusminus
ENCODING 177
SWIDTH 600 0
DWIDTH 12 0
BBX 8 13 2 0
BITMAP
18
18
18
18
1F
FF
18
18
18
18
00
FF
FF
ENDCHAR
STARTCHAR twosuperior
ENCODING 178
SWIDTH 600 0
DWIDTH 12 0
BBX 6 8 3 7
BITMAP
78
FC
CC
0C
18
30
60
FC
ENDCHAR
STARTCHAR threesuperior
ENCODING 179
SWIDTH 600 0
DWIDTH 12 0
BBX 6 9 3 6
BITMAP
78
FC
CC
0C
38
3C
04
FC
78
ENDCHAR
STARTCHAR acute
ENCODING 180
SWIDTH 600 0
DWIDTH 12 0
BBX 4 2 4 13
BITMAP
70
C0
ENDCHAR
STARTCHAR mu
ENCODING 181
SWIDTH 600 0
DWIDTH 12 0
BBX 8 15 2 -4
BITMAP
C3
C3
C3
C3
C3
C3
C3
C3
C3
FF
FF
C0
C0
C0
C0
ENDCHAR
STARTCHAR paragraph
ENCODING 182
SWIDTH 600 0
DWIDTH 12 0
BBX 8 15 2 0
BITMAP
3F
7F
FF
FF
FF
FF
FF
7F
3F
03
03
03
03
03
03
ENDCHAR
STARTCHAR periodcentered
ENCODING 183
SWIDTH 600 0
DWIDTH 12 0
BBX 2 2 5 6
BITMAP
C0
C0
ENDCHAR
STARTCHAR cedilla
ENCODING 184
SWIDTH 600 0
DWIDTH 12 0
BBX 3 5 5 -4
BITMAP
80
C0
60
40
C0
ENDCHAR
STARTCHAR onesuperior
ENCODING 185
SWIDTH 600 0
DWIDTH 12 0
BBX 3 8 4 7
BITMAP
20
E0
A0
20
20
20
20
20
ENDCHAR
STARTCHAR ordmasculine
ENCODING 186
SWIDTH 600 0
DWIDTH 12 0
BBX 6 8 3 7
BITMAP
78
FC
84
84
84
84
FC
78
ENDCHAR
STARTCHAR guillemotright
ENCODING 187
SWIDTH 600 0
DWIDTH 12 0
BBX 8 8 2 2
BITMAP
CC
44
66
33
33
66
44
CC
ENDCHAR
STARTCHAR onequarter
ENCODING 188
SWIDTH 600 0
DWIDTH 12 0
BBX 11 14 0 0
BITMAP
2000
E000
2080
2180
2100
2200
2600
04C0
0CC0
0940
1B40
13E0
03E0
0040
ENDCHAR
STARTCHAR onehalf
ENCODING 189
SWIDTH 600 0
DWIDTH 12 0
BBX 11 14 0 0
BITMAP
2000
E000
2100
2300
2200
2400
2C00
0BC0
1A60
1060
3040
2180
0300
03E0
ENDCHAR
STARTCHAR threequarters
ENCODING 190
SWIDTH 600 0
DWIDTH 12 0
BBX 10 14 1 0
BITMAP
F000
9800
1880
3180
0900
8A00
F600
0580
0D80
0A80
1E80
17C0
07C0
0080
ENDCHAR
STARTCHAR questiondown
ENCODING 191
SWIDTH 600 0
DWIDTH 12 0
BBX 8 15 2 -4
BITMAP
18
18
00
00
18
18
18
30
60
C0
C0
C3
C3
7E
3C
ENDCHAR
STARTCHAR Agrave
ENCODING 192
SWIDTH 600 0
DWIDTH 12 0
BBX 10 18 1 0
BITMAP
3800
0800
0400
0C00
0C00
0E00
1E00
1A00
1300
3300
3300
3100
7F80
7F80
6080
40C0
C0C0
C0C0
ENDCHAR
STARTCHAR Aacute
ENCODING 193
SWIDTH 600 0
DWIDTH 12 0
BBX 10 18 1 0
BITMAP
0700
0400
0800
0C00
0C00
0E00
1E00
1A00
1300
3300
3300
3100
7F80
7F80
6080
40C0
C0C0
C0C0
ENDCHAR
STARTCHAR Acircumflex
ENCODING 194
SWIDTH 600 0
DWIDTH 12 0
BBX 10 18 1 0
BITMAP
0C00
1600
2100
0C00
0C00
0E00
1E00
1A00
1300
3300
3300
3100
7F80
7F80
6080
40C0
C0C0
C0C0
ENDCHAR
STARTCHAR Atilde
ENCODING 195
SWIDTH 600 0
DWIDTH 12 0
BBX 10 18 1 0
BITMAP
3F00
6000
0000
0C00
0C00
0E00
1E00
1A00
1300
3300
3300
3100
7F80
7F80
6080
40C0
C0C0
C0C0
ENDCHAR
STARTCHAR Adieresis
ENCODING 196
SWIDTH 600 0
DWIDTH 12 0
BBX 10 18 1 0
BITMAP
3300
2100
0000
0C00
0C00
0E00
1E00
1A00
1300
3300
3300
3100
7F80
7F80
6080
40C0
C0C0
C0C0
ENDCHAR
STARTCHAR Aring
ENCODING 197
SWIDTH 600 0
DWIDTH 12 0
BBX 10 19 1 0
BITMAP
0C00
1E00
1200
1E00
0C00
0C00
0E00
1E00
1A00
1300
3300
3300
3100
7F80
7F80
6080
40C0
C0C0
C0C0
ENDCHAR
STARTCHAR AE
ENCODING 198
SWIDTH 600 0
DWIDTH 12 0
BBX 12 15 0 0
BITMAP
03E0
0700
0700
0700
0F00
0B00
1BE0
1BE0
1B00
3300
3F00
2300
6300
63F0
C3F0
ENDCHAR
STARTCHAR Ccedilla
ENCODING 199
SWIDTH 600 0
DWIDTH 12 0
BBX 10 19 1 -4
BITMAP
1E00
3F80
6180
40C0
C0C0
C000
C000
C000
C000
C000
C0C0
40C0
6180
3F80
1E00
0600
0300
0A00
0600
ENDCHAR
STARTCHAR Egrave
ENCODING 200
SWIDTH 600 0
DWIDTH 12 0
BBX 9 18 2 0
BITMAP
7000
1000
0800
FF00
C000
C000
C000
C000
C000
C000
FF00
C000
C000
C000
C000
C000
FF80
FF80
ENDCHAR
STARTCHAR Eacute
ENCODING 201
SWIDTH 600 0
DWIDTH 12 0
BBX 9 18 2 0
BITMAP
0E00
0800
1000
FF00
C000
C000
C000
C000
C000
C000
FF00
C000
C000
C000
C000
C000
FF80
FF80
ENDCHAR
STARTCHAR Ecircumflex
ENCODING 202
SWIDTH 600 0
DWIDTH 12 0
BBX 9 18 2 0
BITMAP
1800
2C00
4200
FF00
C000
C000
C000
C000
C000
C000
FF00
C000
C000
C000
C000
C000
FF80
FF80
ENDCHAR
STARTCHAR Edieresis
ENCODING 203
SWIDTH 600 0
DWIDTH 12 0
BBX 9 18 2 0
BITMAP
6600
4200
0000
FF00
C000
C000
C000
C000
C000
C000
FF00
C000
C000
C000
C000
C000
FF80
FF80
ENDCHAR
STARTCHAR Igrave
ENCODING 204
SWIDTH 600 0
DWIDTH 12 0
BBX 8 18 2 0
BITMAP
E0
20
10
FF
F8
18
18
18
18
18
18
18
18
18
18
18
1F
FF
ENDCHAR
STARTCHAR Iacute
ENCODING 205
SWIDTH 600 0
DWIDTH 12 0
BBX 8 18 2 0
BITMAP
0E
08
10
FF
F8
18
18
18
18
18
18
18
18
18
18
18
1F
FF
ENDCHAR
STARTCHAR Icircumflex
ENCODING 206
SWIDTH 600 0
DWIDTH 12 0
BBX 8 18 2 0
BITMAP
18
2C
42
FF
F8
18
18
18
18
18
18
18
18
18
18
18
1F
FF
ENDCHAR
STARTCHAR Idieresis
ENCODING 207
SWIDTH 600 0
DWIDTH 12 0
BBX 8 18 2 0
BITMAP
66
42
00
FF
F8
18
18
18
18
18
18
18
18
18
18
18
1F
FF
ENDCHAR
STARTCHAR Eth
ENCODING 208
SWIDTH 614 0
DWIDTH 12 0
BBX 11 15 0 0
BITMAP
3F00
3780
30C0
3060
3060
3060
3020
FC20
F020
3060
3060
3060
30C0
3780
3F00
ENDCHAR
STARTCHAR Ntilde
ENCODING 209
SWIDTH 600 0
DWIDTH 12 0
BBX 10 18 1 0
BITMAP
3F00
6000
0000
C0C0
E0C0
E0C0
F0C0
D0C0
D8C0
C8C0
CCC0
C4C0
C6C0
C2C0
C3C0
C1C0
C1C0
C0C0
ENDCHAR
STARTCHAR Ograve
ENCODING 210
SWIDTH 600 0
DWIDTH 12 0
BBX 10 19 1 0
BITMAP
3800
0800
0400
0000
1E00
3F00
6180
4080
C0C0
C0C0
C0C0
C0C0
C0C0
C0C0
C0C0
4080
6180
3F00
1E00
ENDCHAR
STARTCHAR Oacute
ENCODING 211
SWIDTH 600 0
DWIDTH 12 0
BBX 10 19 1 0
BITMAP
0700
0400
0800
0000
1E00
3F00
6180
4080
C0C0
C0C0
C0C0
C0C0
C0C0
C0C0
C0C0
4080
6180
3F00
1E00
ENDCHAR
STARTCHAR Ocircumflex
ENCODING 212
SWIDTH 600 0
DWIDTH 12 0
BBX 10 19 1 0
BITMAP
0C00
1600
2100
0000
1E00
3F00
6180
4080
C0C0
C0C0
C0C0
C0C0
C0C0
C0C0
C0C0
4080
6180
3F00
1E00
ENDCHAR
STARTCHAR Otilde
ENCODING 213
SWIDTH 600 0
DWIDTH 12 0
BBX 10 19 1 0
BITMAP
3F00
6000
0000
0000
1E00
3F00
6180
4080
C0C0
C0C0
C0C0
C0C0
C0C0
C0C0
C0C0
4080
6180
3F00
1E00
ENDCHAR
STARTCHAR Odieresis
ENCODING 214
SWIDTH 600 0
DWIDTH 12 0
BBX 10 19 1 0
BITMAP
3300
2100
0000
0000
1E00
3F00
6180
4080
C0C0
C0C0
C0C0
C0C0
C0C0
C0C0
C0C0
4080
6180
3F00
1E00
ENDCHAR
STARTCHAR multiply
ENCODING 215
SWIDTH 600 0
DWIDTH 12 0
BBX 9 9 2 2
BITMAP
8100
C380
6600
3C00
1800
3C00
6600
C380
8100
ENDCHAR
STARTCHAR Oslash
ENCODING 216
SWIDTH 600 0
DWIDTH 12 0
BBX 10 15 1 0
BITMAP
1E40
3F80
6180
4180
C3C0
C2C0
C4C0
CCC0
C8C0
D8C0
D0C0
F080
6180
7F00
DE00
ENDCHAR
STARTCHAR Ugrave
ENCODING 217
SWIDTH 600 0
DWIDTH 12 0
BBX 10 18 1 0
BITMAP
3800
0800
0400
C0C0
C0C0
C0C0
C0C0
C0C0
C0C0
C0C0
C0C0
C0C0
C0C0
C0C0
4080
6180
3F00
1E00
ENDCHAR
STARTCHAR Uacute
ENCODING 218
SWIDTH 600 0
DWIDTH 12 0
BBX 10 18 1 0
BITMAP
0380
0200
0400
C0C0
C0C0
C0C0
C0C0
C0C0
C0C0
C0C0
C0C0
C0C0
C0C0
C0C0
4080
6180
3F00
1E00
ENDCHAR
STARTCHAR Ucircumflex
ENCODING 219
SWIDTH 600 0
DWIDTH 12 0
BBX 10 18 1 0
BITMAP
0600
0B00
1080
C0C0
C0C0
C0C0
C0C0
C0C0
C0C0
C0C0
C0C0
C0C0
C0C0
C0C0
4080
6180
3F00
1E00
ENDCHAR
STARTCHAR Udieresis
ENCODING 220
SWIDTH 600 0
DWIDTH 12 0
BBX 10 18 1 0
BITMAP
3300
2100
0000
C0C0
C0C0
C0C0
C0C0
C0C0
C0C0
C0C0
C0C0
C0C0
C0C0
C0C0
4080
6180
3F00
1E00
ENDCHAR
STARTCHAR Yacute
ENCODING 221
SWIDTH 600 0
DWIDTH 12 0
BBX 10 18 1 0
BITMAP
0700
0400
0800
C0C0
C180
6180
6180
3300
3300
1E00
1E00
0C00
0C00
0C00
0C00
0C00
0C00
0C00
ENDCHAR
STARTCHAR Thorn
ENCODING 222
SWIDTH 600 0
DWIDTH 12 0
BBX 9 15 2 0
BITMAP
8000
8000
8000
F000
FE00
8300
8180
8180
8180
8180
8F00
FE00
8000
8000
8000
ENDCHAR
STARTCHAR germandbls
ENCODING 223
SWIDTH 600 0
DWIDTH 12 0
BBX 9 16 2 0
BITMAP
1000
7C00
C600
C600
8600
8600
8C00
8C00
8C00
8600
8700
8300
8180
8180
9F00
BE00
ENDCHAR
STARTCHAR agrave
ENCODING 224
SWIDTH 600 0
DWIDTH 12 0
BBX 9 15 2 0
BITMAP
7000
1000
0800
0000
3C00
FF00
C300
0300
3F00
FB00
C300
8300
C300
FF00
7980
ENDCHAR
STARTCHAR aacute
ENCODING 225
SWIDTH 600 0
DWIDTH 12 0
BBX 9 15 2 0
BITMAP
0E00
0800
1000
0000
3C00
FF00
C300
0300
3F00
FB00
C300
8300
C300
FF00
7980
ENDCHAR
STARTCHAR acircumflex
ENCODING 226
SWIDTH 600 0
DWIDTH 12 0
BBX 9 15 2 0
BITMAP
1800
2C00
4200
0000
3C00
FF00
C300
0300
3F00
FB00
C300
8300
C300
FF00
7980
ENDCHAR
STARTCHAR atilde
ENCODING 227
SWIDTH 600 0
DWIDTH 12 0
BBX 9 15 2 0
BITMAP
7E00
C000
0000
0000
3C00
FF00
C300
0300
3F00
FB00
C300
8300
C300
FF00
7980
ENDCHAR
STARTCHAR adieresis
ENCODING 228
SWIDTH 600 0
DWIDTH 12 0
BBX 9 15 2 0
BITMAP
6600
4200
0000
0000
3C00
FF00
C300
0300
3F00
FB00
C300
8300
C300
FF00
7980
ENDCHAR
STARTCHAR aring
ENCODING 229
SWIDTH 600 0
DWIDTH 12 0
BBX 9 16 2 0
BITMAP
1800
3C00
2400
3C00
1800
3C00
FF00
C300
0300
3F00
FB00
C300
8300
C300
FF00
7980
ENDCHAR
STARTCHAR ae
ENCODING 230
SWIDTH 600 0
DWIDTH 12 0
BBX 12 11 0 0
BITMAP
3DC0
7FE0
4630
0630
0630
7FF0
6600
C600
C600
7FE0
39E0
ENDCHAR
STARTCHAR ccedilla
ENCODING 231
SWIDTH 600 0
DWIDTH 12 0
BBX 10 15 1 -4
BITMAP
1E00
3F80
6180
40C0
C000
C000
C000
40C0
6180
3F80
1E00
0600
0300
0A00
0600
ENDCHAR
STARTCHAR egrave
ENCODING 232
SWIDTH 600 0
DWIDTH 12 0
BBX 10 15 1 0
BITMAP
3800
0800
0400
0000
1E00
3F80
6180
4080
C0C0
FFC0
C000
4000
60C0
3F80
1F00
ENDCHAR
STARTCHAR eacute
ENCODING 233
SWIDTH 600 0
DWIDTH 12 0
BBX 10 15 1 0
BITMAP
0700
0400
0800
0000
1E00
3F80
6180
4080
C0C0
FFC0
C000
4000
60C0
3F80
1F00
ENDCHAR
STARTCHAR ecircumflex
ENCODING 234
SWIDTH 600 0
DWIDTH 12 0
BBX 10 15 1 0
BITMAP
0C00
1600
2100
0000
1E00
3F80
6180
4080
C0C0
FFC0
C000
4000
60C0
3F80
1F00
ENDCHAR
STARTCHAR edieresis
ENCODING 235
SWIDTH 600 0
DWIDTH 12 0
BBX 10 15 1 0
BITMAP
3300
2100
0000
0000
1E00
3F80
6180
4080
C0C0
FFC0
C000
4000
60C0
3F80
1F00
ENDCHAR
STARTCHAR igrave
ENCODING 236
SWIDTH 600 0
DWIDTH 12 0
BBX 9 15 2 0
BITMAP
7000
1000
0800
0000
F800
F800
0800
0800
0800
0800
0800
0800
0800
0F80
FF80
ENDCHAR
STARTCHAR iacute
ENCODING 237
SWIDTH 600 0
DWIDTH 12 0
BBX 9 15 2 0
BITMAP
0700
0400
0800
0000
F800
F800
0800
0800
0800
0800
0800
0800
0800
0F80
FF80
ENDCHAR
STARTCHAR icircumflex
ENCODING 238
SWIDTH 600 0
DWIDTH 12 0
BBX 9 15 2 0
BITMAP
0C00
1600
2100
0000
F800
F800
0800
0800
0800
0800
0800
0800
0800
0F80
FF80
ENDCHAR
STARTCHAR idieresis
ENCODING 239
SWIDTH 600 0
DWIDTH 12 0
BBX 9 15 2 0
BITMAP
3300
2100
0000
0000
F800
F800
0800
0800
0800
0800
0800
0800
0800
0F80
FF80
ENDCHAR
STARTCHAR eth
ENCODING 240
SWIDTH 600 0
DWIDTH 12 0
BBX 9 15 1 0
BITMAP
1D80
0F00
0F00
3B00
0180
3D80
7F80
C180
C080
C080
C180
C180
C180
7F00
3E00
ENDCHAR
STARTCHAR ntilde
ENCODING 241
SWIDTH 600 0
DWIDTH 12 0
BBX 8 15 2 0
BITMAP
7E
C0
00
00
9E
BF
C3
C1
C1
C1
C1
C1
C1
C1
C1
ENDCHAR
STARTCHAR ograve
ENCODING 242
SWIDTH 600 0
DWIDTH 12 0
BBX 10 15 1 0
BITMAP
3800
0800
0400
0000
1E00
3F00
6180
C0C0
C0C0
C0C0
C0C0
C0C0
6180
3F00
1E00
ENDCHAR
STARTCHAR oacute
ENCODING 243
SWIDTH 600 0
DWIDTH 12 0
BBX 10 15 1 0
BITMAP
0700
0400
0800
0000
1E00
3F00
6180
C0C0
C0C0
C0C0
C0C0
C0C0
6180
3F00
1E00
ENDCHAR
STARTCHAR ocircumflex
ENCODING 244
SWIDTH 600 0
DWIDTH 12 0
BBX 10 15 1 0
BITMAP
0C00
1600
2100
0000
1E00
3F00
6180
C0C0
C0C0
C0C0
C0C0
C0C0
6180
3F00
1E00
ENDCHAR
STARTCHAR otilde
ENCODING 245
SWIDTH 600 0
DWIDTH 12 0
BBX 10 15 1 0
BITMAP
3F00
6000
0000
0000
1E00
3F00
6180
C0C0
C0C0
C0C0
C0C0
C0C0
6180
3F00
1E00
ENDCHAR
STARTCHAR odieresis
ENCODING 246
SWIDTH 600 0
DWIDTH 12 0
BBX 10 15 1 0
BITMAP
3300
2100
0000
0000
1E00
3F00
6180
C0C0
C0C0
C0C0
C0C0
C0C0
6180
3F00
1E00
ENDCHAR
STARTCHAR divide
ENCODING 247
SWIDTH 600 0
DWIDTH 12 0
BBX 10 10 1 2
BITMAP
0C00
0C00
0000
0000
FFC0
FFC0
0000
0000
0800
0C00
ENDCHAR
STARTCHAR oslash
ENCODING 248
SWIDTH 600 0
DWIDTH 12 0
BBX 10 14 1 -1
BITMAP
0080
0100
1F00
3F00
6380
C6C0
C4C0
CCC0
C8C0
D8C0
7180
3F00
3E00
6000
ENDCHAR
STARTCHAR ugrave
ENCODING 249
SWIDTH 600 0
DWIDTH 12 0
BBX 8 15 2 0
BITMAP
70
10
08
00
C3
C3
C3
C3
C3
C3
C3
C3
C3
FF
7D
ENDCHAR
STARTCHAR uacute
ENCODING 250
SWIDTH 600 0
DWIDTH 12 0
BBX 8 15 2 0
BITMAP
0E
08
10
00
C3
C3
C3
C3
C3
C3
C3
C3
C3
FF
7D
ENDCHAR
STARTCHAR ucircumflex
ENCODING 251
SWIDTH 600 0
DWIDTH 12 0
BBX 8 15 2 0
BITMAP
18
2C
42
00
C3
C3
C3
C3
C3
C3
C3
C3
C3
FF
7D
ENDCHAR
STARTCHAR udieresis
ENCODING 252
SWIDTH 600 0
DWIDTH 12 0
BBX 8 15 2 0
BITMAP
66
42
00
00
C3
C3
C3
C3
C3
C3
C3
C3
C3
FF
7D
ENDCHAR
STARTCHAR yacute
ENCODING 253
SWIDTH 600 0
DWIDTH 12 0
BBX 10 19 1 -4
BITMAP
0700
0400
0800
0000
C0C0
C0C0
6180
6180
3100
3300
1200
1E00
1E00
0C00
0C00
0800
1800
7000
E000
ENDCHAR
STARTCHAR thorn
ENCODING 254
SWIDTH 600 0
DWIDTH 12 0
BBX 9 20 2 -4
BITMAP
C000
C000
C000
C000
C000
FC00
FF00
C300
C100
C180
C180
C180
C100
C300
FF00
FC00
C000
C000
C000
C000
ENDCHAR
STARTCHAR ydieresis
ENCODING 255
SWIDTH 600 0
DWIDTH 12 0
BBX 10 19 1 -4
BITMAP
3300
2100
0000
0000
C0C0
C0C0
6180
6180
3100
3300
1200
1E00
1E00
0C00
0C00
0800
1800
7000
E000
ENDCHAR
STARTCHAR Amacron
ENCODING 256
SWIDTH 600 0
DWIDTH 12 0
BBX 10 18 1 0
BITMAP
3F00
3F00
0000
0C00
0C00
0E00
1E00
1A00
1300
3300
3300
3100
7F80
7F80
6080
40C0
C0C0
C0C0
ENDCHAR
STARTCHAR amacron
ENCODING 257
SWIDTH 600 0
DWIDTH 12 0
BBX 9 15 2 0
BITMAP
7E00
7E00
0000
0000
3C00
FF00
C300
0300
3F00
FB00
C300
8300
C300
FF00
7980
ENDCHAR
STARTCHAR Abreve
ENCODING 258
SWIDTH 600 0
DWIDTH 12 0
BBX 10 19 1 0
BITMAP
3300
3F00
1E00
0000
0C00
0C00
0E00
1E00
1A00
1300
3300
3300
3100
7F80
7F80
6080
40C0
C0C0
C0C0
ENDCHAR
STARTCHAR abreve
ENCODING 259
SWIDTH 600 0
DWIDTH 12 0
BBX 9 16 2 0
BITMAP
6600
7E00
3C00
0000
0000
3C00
FF00
C300
0300
3F00
FB00
C300
8300
C300
FF00
7980
ENDCHAR
STARTCHAR Aogonek
ENCODING 260
SWIDTH 600 0
DWIDTH 12 0
BBX 10 19 1 -4
BITMAP
0C00
0C00
0E00
1E00
1A00
1300
3300
3300
3100
7F80
7F80
6080
40C0
C0C0
C0C0
0080
0100
01C0
01C0
ENDCHAR
STARTCHAR aogonek
ENCODING 261
SWIDTH 600 0
DWIDTH 12 0
BBX 9 15 2 -4
BITMAP
3C00
FF00
C300
0300
3F00
FB00
C300
8300
C300
FF00
7980
0200
0600
0700
0780
ENDCHAR
STARTCHAR Cacute
ENCODING 262
SWIDTH 600 0
DWIDTH 12 0
BBX 10 19 1 0
BITMAP
0380
0200
0400
0000
1E00
3F80
6180
40C0
C0C0
C000
C000
C000
C000
C000
C0C0
40C0
6180
3F80
1E00
ENDCHAR
STARTCHAR cacute
ENCODING 263
SWIDTH 600 0
DWIDTH 12 0
BBX 10 15 1 0
BITMAP
0700
0400
0800
0000
1E00
3F80
6180
40C0
C000
C000
C000
40C0
6180
3F80
1E00
ENDCHAR
STARTCHAR Ccircumflex
ENCODING 264
SWIDTH 600 0
DWIDTH 12 0
BBX 10 19 1 0
BITMAP
0600
0B00
1080
0000
1E00
3F80
6180
40C0
C0C0
C000
C000
C000
C000
C000
C0C0
40C0
6180
3F80
1E00
ENDCHAR
STARTCHAR ccircumflex
ENCODING 265
SWIDTH 600 0
DWIDTH 12 0
BBX 10 15 1 0
BITMAP
0C00
1600
2100
0000
1E00
3F80
6180
40C0
C000
C000
C000
40C0
6180
3F80
1E00
ENDCHAR
STARTCHAR uni010A
ENCODING 266
SWIDTH 600 0
DWIDTH 12 0
BBX 10 19 1 0
BITMAP
0600
0600
0000
0000
1E00
3F80
6180
40C0
C0C0
C000
C000
C000
C000
C000
C0C0
40C0
6180
3F80
1E00
ENDCHAR
STARTCHAR uni010B
ENCODING 267
SWIDTH 600 0
DWIDTH 12 0
BBX 10 15 1 0
BITMAP
0C00
0C00
0000
0000
1E00
3F80
6180
40C0
C000
C000
C000
40C0
6180
3F80
1E00
ENDCHAR
STARTCHAR Ccaron
ENCODING 268
SWIDTH 600 0
DWIDTH 12 0
BBX 10 19 1 0
BITMAP
1980
0F00
0000
0000
1E00
3F80
6180
40C0
C0C0
C000
C000
C000
C000
C000
C0C0
40C0
6180
3F80
1E00
ENDCHAR
STARTCHAR ccaron
ENCODING 269
SWIDTH 600 0
DWIDTH 12 0
BBX 10 15 1 0
BITMAP
3300
1E00
0000
0000
1E00
3F80
6180
40C0
C000
C000
C000
40C0
6180
3F80
1E00
ENDCHAR
STARTCHAR Dcaron
ENCODING 270
SWIDTH 600 0
DWIDTH 12 0
BBX 9 18 2 0
BITMAP
6600
3C00
0000
F800
9E00
8300
8300
8180
8180
8180
8180
8180
8180
8180
8300
8300
9E00
F800
ENDCHAR
STARTCHAR dcaron
ENCODING 271
SWIDTH 673 0
DWIDTH 13 0
BBX 14 16 1 0
BITMAP
000C
018C
018C
018C
0198
1F80
3F80
6180
4180
C180
C180
C180
4180
6180
3F80
1E80
ENDCHAR
STARTCHAR Dcroat
ENCODING 272
SWIDTH 614 0
DWIDTH 12 0
BBX 11 15 0 0
BITMAP
3F00
3780
30C0
3060
3060
3060
3020
FC20
F020
3060
3060
3060
30C0
3780
3F00
ENDCHAR
STARTCHAR dcroat
ENCODING 273
SWIDTH 614 0
DWIDTH 12 0
BBX 11 15 1 0
BITMAP
0180
07E0
0780
0180
1F80
3F80
6180
4180
C180
C180
C180
4180
6180
3F80
1E80
ENDCHAR
STARTCHAR Emacron
ENCODING 274
SWIDTH 600 0
DWIDTH 12 0
BBX 9 18 2 0
BITMAP
7E00
7E00
0000
FF00
C000
C000
C000
C000
C000
C000
FF00
C000
C000
C000
C000
C000
FF80
FF80
ENDCHAR
STARTCHAR emacron
ENCODING 275
SWIDTH 600 0
DWIDTH 12 0
BBX 10 15 1 0
BITMAP
3F00
3F00
0000
0000
1E00
3F80
6180
4080
C0C0
FFC0
C000
4000
60C0
3F80
1F00
ENDCHAR
STARTCHAR Ebreve
ENCODING 276
SWIDTH 600 0
DWIDTH 12 0
BBX 9 19 2 0
BITMAP
6600
7E00
3C00
0000
FF00
C000
C000
C000
C000
C000
C000
FF00
C000
C000
C000
C000
C000
FF80
FF80
ENDCHAR
STARTCHAR ebreve
ENCODING 277
SWIDTH 600 0
DWIDTH 12 0
BBX 10 16 1 0
BITMAP
3300
3F00
1E00
0000
0000
1E00
3F80
6180
4080
C0C0
FFC0
C000
4000
60C0
3F80
1F00
ENDCHAR
STARTCHAR Edotaccent
ENCODING 278
SWIDTH 600 0
DWIDTH 12 0
BBX 9 18 2 0
BITMAP
1800
1800
0000
FF00
C000
C000
C000
C000
C000
C000
FF00
C000
C000
C000
C000
C000
FF80
FF80
ENDCHAR
STARTCHAR edotaccent
ENCODING 279
SWIDTH 600 0
DWIDTH 12 0
BBX 10 15 1 0
BITMAP
0C00
0C00
0000
0000
1E00
3F80
6180
4080
C0C0
FFC0
C000
4000
60C0
3F80
1F00
ENDCHAR
STARTCHAR Eogonek
ENCODING 280
SWIDTH 600 0
DWIDTH 12 0
BBX 9 19 2 -4
BITMAP
FF00
C000
C000
C000
C000
C000
FF00
FF00
C000
C000
C000
C000
C000
FF80
FF80
0600
0400
0F00
0700
ENDCHAR
STARTCHAR eogonek
ENCODING 281
SWIDTH 600 0
DWIDTH 12 0
BBX 10 15 1 -4
BITMAP
1E00
3F80
6180
4080
C0C0
FFC0
C000
4000
60C0
3F80
1F00
0400
0C00
0F00
0700
ENDCHAR
STARTCHAR Ecaron
ENCODING 282
SWIDTH 600 0
DWIDTH 12 0
BBX 9 18 2 0
BITMAP
6600
3C00
0000
FF00
C000
C000
C000
C000
C000
C000
FF00
C000
C000
C000
C000
C000
FF80
FF80
ENDCHAR
STARTCHAR ecaron
ENCODING 283
SWIDTH 600 0
DWIDTH 12 0
BBX 10 15 1 0
BITMAP
3300
1E00
0000
0000
1E00
3F80
6180
4080
C0C0
FFC0
C000
4000
60C0
3F80
1F00
ENDCHAR
STARTCHAR Gcircumflex
ENCODING 284
SWIDTH 600 0
DWIDTH 12 0
BBX 10 19 1 0
BITMAP
0C00
1600
2100
0000
1E00
3F80
6180
40C0
C000
C000
C000
C7C0
C7C0
C0C0
C0C0
40C0
60C0
3F80
1F00
ENDCHAR
STARTCHAR gcircumflex
ENCODING 285
SWIDTH 600 0
DWIDTH 12 0
BBX 9 19 1 -4
BITMAP
0C00
1600
2100
0000
1E80
7F80
6180
4180
C180
C180
C180
4180
6180
3F80
1F80
0180
4180
7F00
1E00
ENDCHAR
STARTCHAR Gbreve
ENCODING 286
SWIDTH 600 0
DWIDTH 12 0
BBX 10 19 1 0
BITMAP
3300
3F00
1E00
0000
1E00
3F80
6180
40C0
C000
C000
C000
C7C0
C7C0
C0C0
C0C0
40C0
60C0
3F80
1F00
ENDCHAR
STARTCHAR gbreve
ENCODING 287
SWIDTH 600 0
DWIDTH 12 0
BBX 9 20 1 -4
BITMAP
3300
3F00
1E00
0000
0000
1E80
7F80
6180
4180
C180
C180
C180
4180
6180
3F80
1F80
0180
4180
7F00
1E00
ENDCHAR
STARTCHAR uni0120
ENCODING 288
SWIDTH 600 0
DWIDTH 12 0
BBX 10 19 1 0
BITMAP
0C00
0C00
0000
0000
1E00
3F80
6180
40C0
C000
C000
C000
C7C0
C7C0
C0C0
C0C0
40C0
60C0
3F80
1F00
ENDCHAR
STARTCHAR uni0121
ENCODING 289
SWIDTH 600 0
DWIDTH 12 0
BBX 9 19 1 -4
BITMAP
0C00
0C00
0000
0000
1E80
7F80
6180
4180
C180
C180
C180
4180
6180
3F80
1F80
0180
4180
7F00
1E00
ENDCHAR
STARTCHAR Gcommaaccent
ENCODING 290
SWIDTH 600 0
DWIDTH 12 0
BBX 10 20 1 -5
BITMAP
1E00
3F80
6180
40C0
C000
C000
C000
C7C0
C7C0
C0C0
C0C0
40C0
60C0
3F80
1F00
0000
0400
0400
0C00
0800
ENDCHAR
STARTCHAR gcommaaccent
ENCODING 291
SWIDTH 600 0
DWIDTH 12 0
BBX 9 21 1 -4
BITMAP
0400
0C00
0C00
0C00
0000
0000
1E80
7F80
6180
4180
C180
C180
C180
4180
6180
3F80
1F80
0180
4180
7F00
1E00
ENDCHAR
STARTCHAR Hcircumflex
ENCODING 292
SWIDTH 600 0
DWIDTH 12 0
BBX 10 18 1 0
BITMAP
0C00
1600
2100
C0C0
C0C0
C0C0
C0C0
C0C0
C0C0
C0C0
FFC0
C0C0
C0C0
C0C0
C0C0
C0C0
C0C0
C0C0
ENDCHAR
STARTCHAR hcircumflex
ENCODING 293
SWIDTH 600 0
DWIDTH 12 0
BBX 8 19 2 0
BITMAP
30
58
84
00
C0
C0
C0
C0
DE
FF
C3
C1
C1
C1
C1
C1
C1
C1
C1
ENDCHAR
STARTCHAR Hbar
ENCODING 294
SWIDTH 600 0
DWIDTH 12 0
BBX 12 15 0 0
BITMAP
6060
6060
6060
6070
FFF0
6060
6060
7FE0
6060
6060
6060
6060
6060
6060
6060
ENDCHAR
STARTCHAR hbar
ENCODING 295
SWIDTH 614 0
DWIDTH 12 0
BBX 11 15 0 0
BITMAP
3000
FC00
F000
3000
3780
3FC0
3060
3060
3060
3060
3060
3060
3060
3060
3060
ENDCHAR
STARTCHAR Itilde
ENCODING 296
SWIDTH 600 0
DWIDTH 12 0
BBX 8 18 2 0
BITMAP
7E
C0
00
FF
F8
18
18
18
18
18
18
18
18
18
18
18
1F
FF
ENDCHAR
STARTCHAR itilde
ENCODING 297
SWIDTH 600 0
DWIDTH 12 0
BBX 9 15 2 0
BITMAP
3F00
6000
0000
0000
F800
F800
0800
0800
0800
0800
0800
0800
0800
0F80
FF80
ENDCHAR
STARTCHAR Imacron
ENCODING 298
SWIDTH 600 0
DWIDTH 12 0
BBX 8 18 2 0
BITMAP
7E
7E
00
FF
F8
18
18
18
18
18
18
18
18
18
18
18
1F
FF
ENDCHAR
STARTCHAR imacron
ENCODING 299
SWIDTH 600 0
DWIDTH 12 0
BBX 9 15 2 0
BITMAP
3F00
3F00
0000
0000
F800
F800
0800
0800
0800
0800
0800
0800
0800
0F80
FF80
ENDCHAR
STARTCHAR Ibreve
ENCODING 300
SWIDTH 600 0
DWIDTH 12 0
BBX 8 19 2 0
BITMAP
66
7E
3C
00
FF
F8
18
18
18
18
18
18
18
18
18
18
18
1F
FF
ENDCHAR
STARTCHAR ibreve
ENCODING 301
SWIDTH 600 0
DWIDTH 12 0
BBX 9 16 2 0
BITMAP
3300
3F00
1E00
0000
0000
F800
F800
0800
0800
0800
0800
0800
0800
0800
0F80
FF80
ENDCHAR
STARTCHAR Iogonek
ENCODING 302
SWIDTH 600 0
DWIDTH 12 0
BBX 8 19 2 -4
BITMAP
FF
F8
18
18
18
18
18
18
18
18
18
18
18
1F
FF
18
30
3C
1C
ENDCHAR
STARTCHAR iogonek
ENCODING 303
SWIDTH 600 0
DWIDTH 12 0
BBX 9 19 2 -4
BITMAP
1800
1C00
0000
0000
F800
F800
0800
0800
0800
0800
0800
0800
0800
0F80
FF80
1800
3000
3C00
1C00
ENDCHAR
STARTCHAR Idotaccent
ENCODING 304
SWIDTH 600 0
DWIDTH 12 0
BBX 8 18 2 0
BITMAP
18
18
00
FF
F8
18
18
18
18
18
18
18
18
18
18
18
1F
FF
ENDCHAR
STARTCHAR dotlessi
ENCODING 305
SWIDTH 600 0
DWIDTH 12 0
BBX 9 11 2 0
BITMAP
F800
F800
0800
0800
0800
0800
0800
0800
0800
0F80
FF80
ENDCHAR
STARTCHAR IJ
ENCODING 306
SWIDTH 600 0
DWIDTH 12 0
BBX 10 15 1 0
BITMAP
C0C0
C0C0
C0C0
C0C0
C0C0
C0C0
C0C0
C0C0
C0C0
C0C0
C0C0
C0C0
D8C0
CF80
CF00
ENDCHAR
STARTCHAR ij
ENCODING 307
SWIDTH 600 0
DWIDTH 12 0
BBX 10 19 1 -4
BITMAP
30C0
1080
0000
0000
F3C0
F3C0
30C0
30C0
30C0
30C0
30C0
30C0
30C0
3CC0
FCC0
00C0
0080
0F80
1F00
ENDCHAR
STARTCHAR Jcircumflex
ENCODING 308
SWIDTH 600 0
DWIDTH 12 0
BBX 11 18 1 0
BITMAP
0180
02C0
0420
0180
0180
0180
0180
0180
0180
0180
0180
0180
0180
0180
C180
C180
7F00
3E00
ENDCHAR
STARTCHAR jcircumflex
ENCODING 309
SWIDTH 600 0
DWIDTH 12 0
BBX 8 19 2 -4
BITMAP
0C
16
21
00
7C
7C
0C
0C
0C
0C
0C
0C
0C
0C
0C
0C
0C
B8
F0
ENDCHAR
STARTCHAR Kcommaaccent
ENCODING 310
SWIDTH 600 0
DWIDTH 12 0
BBX 10 20 2 -5
BITMAP
C180
C300
C600
CE00
CC00
D800
F000
F800
FC00
CC00
C600
C600
C300
C380
C1C0
0000
0800
0800
1800
1000
ENDCHAR
STARTCHAR kcommaaccent
ENCODING 311
SWIDTH 600 0
DWIDTH 12 0
BBX 9 20 2 -5
BITMAP
C000
C000
C000
C000
C300
C600
CC00
D800
F000
F800
DC00
CC00
C600
C300
C380
0000
1000
1000
3000
2000
ENDCHAR
STARTCHAR kgreenlandic
ENCODING 312
SWIDTH 600 0
DWIDTH 12 0
BBX 9 11 2 0
BITMAP
C380
C600
CC00
DC00
F800
F800
FC00
CC00
C600
C300
C380
ENDCHAR
STARTCHAR Lacute
ENCODING 313
SWIDTH 600 0
DWIDTH 12 0
BBX 9 18 2 0
BITMAP
7000
4000
8000
C000
C000
C000
C000
C000
C000
C000
C000
C000
C000
C000
C000
C000
FF80
FF80
ENDCHAR
STARTCHAR lacute
ENCODING 314
SWIDTH 600 0
DWIDTH 12 0
BBX 9 19 2 0
BITMAP
0700
0400
0800
0000
F800
F800
0800
0800
0800
0800
0800
0800
0800
0800
0800
0800
0800
0F80
FF80
ENDCHAR
STARTCHAR Lcommaaccent
ENCODING 315
SWIDTH 600 0
DWIDTH 12 0
BBX 9 20 2 -5
BITMAP
C000
C000
C000
C000
C000
C000
C000
C000
C000
C000
C000
C000
C000
FF80
FF80
0000
0800
0800
1800
1000
ENDCHAR
STARTCHAR lcommaaccent
ENCODING 316
SWIDTH 600 0
DWIDTH 12 0
BBX 9 20 2 -5
BITMAP
F800
F800
0800
0800
0800
0800
0800
0800
0800
0800
0800
0800
0800
0F80
FF80
0000
0800
0800
1800
1000
ENDCHAR
STARTCHAR Lcaron
ENCODING 317
SWIDTH 600 0
DWIDTH 12 0
BBX 9 15 2 0
BITMAP
C600
C600
C600
C600
CC00
C000
C000
C000
C000
C000
C000
C000
C000
FF80
FF80
ENDCHAR
STARTCHAR lcaron
ENCODING 318
SWIDTH 673 0
DWIDTH 13 0
BBX 10 16 2 0
BITMAP
00C0
F8C0
F8C0
08C0
0980
0800
0800
0800
0800
0800
0800
0800
0800
0800
0F80
FF80
ENDCHAR
STARTCHAR Ldot
ENCODING 319
SWIDTH 600 0
DWIDTH 12 0
BBX 9 15 2 0
BITMAP
C000
C000
C000
C000
C000
C000
CC00
CC00
C000
C000
C000
C000
C000
FF80
FF80
ENDCHAR
STARTCHAR ldot
ENCODING 320
SWIDTH 707 0
DWIDTH 14 0
BBX 9 15 2 0
BITMAP
F800
F800
0800
0800
0800
0980
0980
0800
0800
0800
0800
0800
0800
0F80
FF80
ENDCHAR
STARTCHAR Lslash
ENCODING 321
SWIDTH 600 0
DWIDTH 12 0
BBX 10 15 1 0
BITMAP
6000
6000
6000
6000
6000
6000
7800
F000
E000
6000
6000
6000
6000
7FC0
7FC0
ENDCHAR
STARTCHAR lslash
ENCODING 322
SWIDTH 600 0
DWIDTH 12 0
BBX 9 15 2 0
BITMAP
F800
F800
0800
0800
0900
0F00
1E00
7800
C800
0800
0800
0800
0800
0F80
FF80
ENDCHAR
STARTCHAR Nacute
ENCODING 323
SWIDTH 600 0
DWIDTH 12 0
BBX 10 18 1 0
BITMAP
0700
0400
0800
C0C0
E0C0
E0C0
F0C0
D0C0
D8C0
C8C0
CCC0
C4C0
C6C0
C2C0
C3C0
C1C0
C1C0
C0C0
ENDCHAR
STARTCHAR nacute
ENCODING 324
SWIDTH 600 0
DWIDTH 12 0
BBX 8 15 2 0
BITMAP
0E
08
10
00
9E
BF
C3
C1
C1
C1
C1
C1
C1
C1
C1
ENDCHAR
STARTCHAR Ncommaaccent
ENCODING 325
SWIDTH 600 0
DWIDTH 12 0
BBX 10 20 1 -5
BITMAP
C0C0
E0C0
E0C0
F0C0
D0C0
D8C0
C8C0
CCC0
C4C0
C6C0
C2C0
C3C0
C1C0
C1C0
C0C0
0000
0800
0800
1800
1000
ENDCHAR
STARTCHAR ncommaaccent
ENCODING 326
SWIDTH 600 0
DWIDTH 12 0
BBX 8 16 2 -5
BITMAP
9E
BF
C3
C1
C1
C1
C1
C1
C1
C1
C1
00
10
10
30
20
ENDCHAR
STARTCHAR Ncaron
ENCODING 327
SWIDTH 600 0
DWIDTH 12 0
BBX 10 18 1 0
BITMAP
3300
1E00
0000
C0C0
E0C0
E0C0
F0C0
D0C0
D8C0
C8C0
CCC0
C4C0
C6C0
C2C0
C3C0
C1C0
C1C0
C0C0
ENDCHAR
STARTCHAR ncaron
ENCODING 328
SWIDTH 600 0
DWIDTH 12 0
BBX 8 15 2 0
BITMAP
66
3C
00
00
9E
BF
C3
C1
C1
C1
C1
C1
C1
C1
C1
ENDCHAR
STARTCHAR napostrophe
ENCODING 329
SWIDTH 600 0
DWIDTH 12 0
BBX 10 16 0 0
BITMAP
C000
C000
C000
C000
8000
2780
2FC0
30C0
3040
3040
3040
3040
3040
3040
3040
3040
ENDCHAR
STARTCHAR Eng
ENCODING 330
SWIDTH 600 0
DWIDTH 12 0
BBX 8 19 2 -4
BITMAP
C3
C3
E3
E3
F3
F3
D3
DB
CB
CF
CF
C7
C7
C3
C3
03
03
0F
0E
ENDCHAR
STARTCHAR eng
ENCODING 331
SWIDTH 600 0
DWIDTH 12 0
BBX 8 15 2 -4
BITMAP
9E
FF
C3
C3
C3
C3
C3
C3
C3
C3
C3
03
03
0F
0E
ENDCHAR
STARTCHAR Omacron
ENCODING 332
SWIDTH 600 0
DWIDTH 12 0
BBX 10 18 1 0
BITMAP
3F00
3F00
0000
1E00
3F00
6180
4080
C0C0
C0C0
C0C0
C0C0
C0C0
C0C0
C0C0
4080
6180
3F00
1E00
ENDCHAR
STARTCHAR omacron
ENCODING 333
SWIDTH 600 0
DWIDTH 12 0
BBX 10 15 1 0
BITMAP
3F00
3F00
0000
0000
1E00
3F00
6180
C0C0
C0C0
C0C0
C0C0
C0C0
6180
3F00
1E00
ENDCHAR
STARTCHAR Obreve
ENCODING 334
SWIDTH 600 0
DWIDTH 12 0
BBX 10 19 1 0
BITMAP
3300
3F00
1E00
0000
1E00
3F00
6180
4080
C0C0
C0C0
C0C0
C0C0
C0C0
C0C0
C0C0
4080
6180
3F00
1E00
ENDCHAR
STARTCHAR obreve
ENCODING 335
SWIDTH 600 0
DWIDTH 12 0
BBX 10 16 1 0
BITMAP
3300
3F00
1E00
0000
0000
1E00
3F00
6180
C0C0
C0C0
C0C0
C0C0
C0C0
6180
3F00
1E00
ENDCHAR
STARTCHAR Ohungarumlaut
ENCODING 336
SWIDTH 600 0
DWIDTH 12 0
BBX 11 19 1 0
BITMAP
06E0
0D80
1B00
0000
1E00
3F00
6180
4080
C0C0
C0C0
C0C0
C0C0
C0C0
C0C0
C0C0
4080
6180
3F00
1E00
ENDCHAR
STARTCHAR ohungarumlaut
ENCODING 337
SWIDTH 600 0
DWIDTH 12 0
BBX 10 15 1 0
BITMAP
0DC0
1B00
3600
0000
1E00
3F00
6180
C0C0
C0C0
C0C0
C0C0
C0C0
6180
3F00
1E00
ENDCHAR
STARTCHAR OE
ENCODING 338
SWIDTH 600 0
DWIDTH 12 0
BBX 11 15 1 0
BITMAP
3FE0
7600
C600
C600
C600
C600
C600
C7C0
C600
C600
C600
C600
C600
77E0
3FE0
ENDCHAR
STARTCHAR oe
ENCODING 339
SWIDTH 600 0
DWIDTH 12 0
BBX 12 11 0 0
BITMAP
3DC0
7FE0
6730
4630
C630
C7F0
C600
4600
6700
7FE0
3DE0
ENDCHAR
STARTCHAR Racute
ENCODING 340
SWIDTH 600 0
DWIDTH 12 0
BBX 9 18 2 0
BITMAP
0E00
0800
1000
FC00
CF00
C300
C180
C180
C180
C300
CF00
FC00
C600
C600
C200
C300
C100
C180
ENDCHAR
STARTCHAR racute
ENCODING 341
SWIDTH 600 0
DWIDTH 12 0
BBX 7 15 3 0
BITMAP
1C
10
20
00
DE
FE
E0
C0
C0
C0
C0
C0
C0
C0
C0
ENDCHAR
STARTCHAR Rcommaaccent
ENCODING 342
SWIDTH 600 0
DWIDTH 12 0
BBX 9 20 2 -5
BITMAP
FC00
CF00
C300
C180
C180
C180
C300
CF00
FC00
C600
C600
C200
C300
C100
C180
0000
0800
0800
1800
1000
ENDCHAR
STARTCHAR rcommaaccent
ENCODING 343
SWIDTH 600 0
DWIDTH 12 0
BBX 7 16 3 -5
BITMAP
DE
FE
E0
C0
C0
C0
C0
C0
C0
C0
C0
00
40
40
C0
80
ENDCHAR
STARTCHAR Rcaron
ENCODING 344
SWIDTH 600 0
DWIDTH 12 0
BBX 9 18 2 0
BITMAP
6600
3C00
0000
FC00
CF00
C300
C180
C180
C180
C300
CF00
FC00
C600
C600
C200
C300
C100
C180
ENDCHAR
STARTCHAR rcaron
ENCODING 345
SWIDTH 600 0
DWIDTH 12 0
BBX 7 15 3 0
BITMAP
CC
78
00
00
DE
FE
E0
C0
C0
C0
C0
C0
C0
C0
C0
ENDCHAR
STARTCHAR Sacute
ENCODING 346
SWIDTH 600 0
DWIDTH 12 0
BBX 10 19 1 0
BITMAP
0700
0400
0800
0000
1E00
3F80
61C0
40C0
6000
6000
3800
1F00
0780
01C0
00C0
C0C0
60C0
7F80
1F00
ENDCHAR
STARTCHAR sacute
ENCODING 347
SWIDTH 600 0
DWIDTH 12 0
BBX 9 15 2 0
BITMAP
0E00
0800
1000
0000
3E00
7F00
C300
C000
6000
3E00
0700
C180
C100
FF00
3E00
ENDCHAR
STARTCHAR Scircumflex
ENCODING 348
SWIDTH 600 0
DWIDTH 12 0
BBX 10 19 1 0
BITMAP
0C00
1600
2100
0000
1E00
3F80
61C0
40C0
6000
6000
3800
1F00
0780
01C0
00C0
C0C0
60C0
7F80
1F00
ENDCHAR
STARTCHAR scircumflex
ENCODING 349
SWIDTH 600 0
DWIDTH 12 0
BBX 9 15 2 0
BITMAP
1800
2C00
4200
0000
3E00
7F00
C300
C000
6000
3E00
0700
C180
C100
FF00
3E00
ENDCHAR
STARTCHAR Scedilla
ENCODING 350
SWIDTH 600 0
DWIDTH 12 0
BBX 10 19 1 -4
BITMAP
1E00
3F80
61C0
40C0
6000
6000
3800
1F00
0780
01C0
00C0
C0C0
60C0
7F80
1F00
0600
0300
0A00
0600
ENDCHAR
STARTCHAR scedilla
ENCODING 351
SWIDTH 600 0
DWIDTH 12 0
BBX 9 15 2 -4
BITMAP
3E00
7F00
C300
C000
6000
3E00
0700
C180
C100
FF00
3E00
0C00
0600
1400
0C00
ENDCHAR
STARTCHAR Scaron
ENCODING 352
SWIDTH 600 0
DWIDTH 12 0
BBX 10 19 1 0
BITMAP
3300
1E00
0000
0000
1E00
3F80
61C0
40C0
6000
6000
3800
1F00
0780
01C0
00C0
C0C0
60C0
7F80
1F00
ENDCHAR
STARTCHAR scaron
ENCODING 353
SWIDTH 600 0
DWIDTH 12 0
BBX 9 15 2 0
BITMAP
6600
3C00
0000
0000
3E00
7F00
C300
C000
6000
3E00
0700
C180
C100
FF00
3E00
ENDCHAR
STARTCHAR uni0162
ENCODING 354
SWIDTH 600 0
DWIDTH 12 0
BBX 10 19 1 -4
BITMAP
FFC0
FC00
0C00
0C00
0C00
0C00
0C00
0C00
0C00
0C00
0C00
0C00
0C00
0C00
0C00
0600
0300
0A00
0600
ENDCHAR
STARTCHAR uni0163
ENCODING 355
SWIDTH 600 0
DWIDTH 12 0
BBX 9 18 1 -4
BITMAP
1800
1800
1800
FF80
F800
1800
1800
1800
1800
1800
1800
1800
0F80
0780
0300
0180
0500
0300
ENDCHAR
STARTCHAR Tcaron
ENCODING 356
SWIDTH 600 0
DWIDTH 12 0
BBX 10 18 1 0
BITMAP
3300
1E00
0000
FFC0
FC00
0C00
0C00
0C00
0C00
0C00
0C00
0C00
0C00
0C00
0C00
0C00
0C00
0C00
ENDCHAR
STARTCHAR tcaron
ENCODING 357
SWIDTH 619 0
DWIDTH 12 0
BBX 10 18 1 0
BITMAP
00C0
00C0
00C0
00C0
1980
1800
1800
FF80
F800
1800
1800
1800
1800
1800
1800
1800
0F80
0780
ENDCHAR
STARTCHAR Tbar
ENCODING 358
SWIDTH 600 0
DWIDTH 12 0
BBX 10 15 1 0
BITMAP
FFC0
FC00
0C00
0C00
0C00
0F00
3F00
0C00
0C00
0C00
0C00
0C00
0C00
0C00
0C00
ENDCHAR
STARTCHAR tbar
ENCODING 359
SWIDTH 600 0
DWIDTH 12 0
BBX 9 14 1 0
BITMAP
1800
1800
1800
FF80
F800
1800
1E00
7E00
1800
1800
1800
1800
0F80
0780
ENDCHAR
STARTCHAR Utilde
ENCODING 360
SWIDTH 600 0
DWIDTH 12 0
BBX 10 18 1 0
BITMAP
1F80
3000
0000
C0C0
C0C0
C0C0
C0C0
C0C0
C0C0
C0C0
C0C0
C0C0
C0C0
C0C0
4080
6180
3F00
1E00
ENDCHAR
STARTCHAR utilde
ENCODING 361
SWIDTH 600 0
DWIDTH 12 0
BBX 8 15 2 0
BITMAP
7E
C0
00
00
C3
C3
C3
C3
C3
C3
C3
C3
C3
FF
7D
ENDCHAR
STARTCHAR Umacron
ENCODING 362
SWIDTH 600 0
DWIDTH 12 0
BBX 10 18 1 0
BITMAP
3F00
3F00
0000
C0C0
C0C0
C0C0
C0C0
C0C0
C0C0
C0C0
C0C0
C0C0
C0C0
C0C0
4080
6180
3F00
1E00
ENDCHAR
STARTCHAR umacron
ENCODING 363
SWIDTH 600 0
DWIDTH 12 0
BBX 8 15 2 0
BITMAP
7E
7E
00
00
C3
C3
C3
C3
C3
C3
C3
C3
C3
FF
7D
ENDCHAR
STARTCHAR Ubreve
ENCODING 364
SWIDTH 600 0
DWIDTH 12 0
BBX 10 19 1 0
BITMAP
3300
3F00
1E00
0000
C0C0
C0C0
C0C0
C0C0
C0C0
C0C0
C0C0
C0C0
C0C0
C0C0
C0C0
4080
6180
3F00
1E00
ENDCHAR
STARTCHAR ubreve
ENCODING 365
SWIDTH 600 0
DWIDTH 12 0
BBX 8 16 2 0
BITMAP
66
7E
3C
00
00
C3
C3
C3
C3
C3
C3
C3
C3
C3
FF
7D
ENDCHAR
STARTCHAR Uring
ENCODING 366
SWIDTH 600 0
DWIDTH 12 0
BBX 10 19 1 0
BITMAP
0C00
1E00
1200
1E00
CCC0
C0C0
C0C0
C0C0
C0C0
C0C0
C0C0
C0C0
C0C0
C0C0
C0C0
4080
6180
3F00
1E00
ENDCHAR
STARTCHAR uring
ENCODING 367
SWIDTH 600 0
DWIDTH 12 0
BBX 8 16 2 0
BITMAP
18
3C
24
3C
18
C3
C3
C3
C3
C3
C3
C3
C3
C3
FF
7D
ENDCHAR
STARTCHAR Uhungarumlaut
ENCODING 368
SWIDTH 600 0
DWIDTH 12 0
BBX 11 18 1 0
BITMAP
06E0
0D80
1B00
C0C0
C0C0
C0C0
C0C0
C0C0
C0C0
C0C0
C0C0
C0C0
C0C0
C0C0
4080
6180
3F00
1E00
ENDCHAR
STARTCHAR uhungarumlaut
ENCODING 369
SWIDTH 600 0
DWIDTH 12 0
BBX 9 15 2 0
BITMAP
1B80
3600
6C00
0000
C300
C300
C300
C300
C300
C300
C300
C300
C300
FF00
7D00
ENDCHAR
STARTCHAR Uogonek
ENCODING 370
SWIDTH 600 0
DWIDTH 12 0
BBX 10 19 1 -4
BITMAP
C0C0
C0C0
C0C0
C0C0
C0C0
C0C0
C0C0
C0C0
C0C0
C0C0
C0C0
4080
6180
3F80
1E00
0400
0C00
0F00
0700
ENDCHAR
STARTCHAR uogonek
ENCODING 371
SWIDTH 600 0
DWIDTH 12 0
BBX 9 15 2 -4
BITMAP
C300
C300
C300
C300
C300
C300
C300
C300
C300
FD00
7900
0200
0600
0680
0380
ENDCHAR
STARTCHAR Wcircumflex
ENCODING 372
SWIDTH 600 0
DWIDTH 12 0
BBX 11 18 1 0
BITMAP
0C00
1600
2100
8C60
CC40
CC40
CEC0
CEC0
DEC0
DAC0
5AC0
52C0
5380
5380
7380
7180
7180
6180
ENDCHAR
STARTCHAR wcircumflex
ENCODING 373
SWIDTH 600 0
DWIDTH 12 0
BBX 12 15 0 0
BITMAP
0600
0B00
1080
0000
C630
4620
6620
6660
6F60
2960
2940
2940
39C0
38C0
1080
ENDCHAR
STARTCHAR Ycircumflex
ENCODING 374
SWIDTH 600 0
DWIDTH 12 0
BBX 10 18 1 0
BITMAP
0C00
1600
2100
C0C0
C180
6180
6180
3300
3300
1E00
1E00
0C00
0C00
0C00
0C00
0C00
0C00
0C00
ENDCHAR
STARTCHAR ycircumflex
ENCODING 375
SWIDTH 600 0
DWIDTH 12 0
BBX 10 19 1 -4
BITMAP
0C00
1600
2100
0000
C0C0
C0C0
6180
6180
3100
3300
1200
1E00
1E00
0C00
0C00
0800
1800
7000
E000
ENDCHAR
STARTCHAR Ydieresis
ENCODING 376
SWIDTH 600 0
DWIDTH 12 0
BBX 10 18 1 0
BITMAP
3300
2100
0000
C0C0
C180
6180
6180
3300
3300
1E00
1E00
0C00
0C00
0C00
0C00
0C00
0C00
0C00
ENDCHAR
STARTCHAR Zacute
ENCODING 377
SWIDTH 600 0
DWIDTH 12 0
BBX 10 18 1 0
BITMAP
0380
0200
0400
FF80
FF80
0180
0300
0600
0600
0C00
0C00
1800
1800
3000
6000
6000
FFC0
FFC0
ENDCHAR
STARTCHAR zacute
ENCODING 378
SWIDTH 600 0
DWIDTH 12 0
BBX 9 15 2 0
BITMAP
0700
0400
0800
0000
FF00
FF00
0600
0E00
0C00
1800
3000
6000
E000
FF80
FF80
ENDCHAR
STARTCHAR Zdotaccent
ENCODING 379
SWIDTH 600 0
DWIDTH 12 0
BBX 10 18 1 0
BITMAP
0C00
0C00
0000
FF80
FF80
0180
0300
0600
0600
0C00
0C00
1800
1800
3000
6000
6000
FFC0
FFC0
ENDCHAR
STARTCHAR zdotaccent
ENCODING 380
SWIDTH 600 0
DWIDTH 12 0
BBX 9 15 2 0
BITMAP
1800
1800
0000
0000
FF00
FF00
0600
0E00
0C00
1800
3000
6000
E000
FF80
FF80
ENDCHAR
STARTCHAR Zcaron
ENCODING 381
SWIDTH 600 0
DWIDTH 12 0
BBX 10 18 1 0
BITMAP
3300
1E00
0000
FF80
FF80
0180
0300
0600
0600
0C00
0C00
1800
1800
3000
6000
6000
FFC0
FFC0
ENDCHAR
STARTCHAR zcaron
ENCODING 382
SWIDTH 600 0
DWIDTH 12 0
BBX 9 15 2 0
BITMAP
6600
3C00
0000
0000
FF00
FF00
0600
0E00
0C00
1800
3000
6000
E000
FF80
FF80
ENDCHAR
STARTCHAR longs
ENCODING 383
SWIDTH 600 0
DWIDTH 12 0
BBX 6 16 4 0
BITMAP
08
3C
60
60
C0
C0
C0
C0
C0
C0
C0
C0
C0
C0
C0
C0
ENDCHAR
STARTCHAR florin
ENCODING 402
SWIDTH 600 0
DWIDTH 12 0
BBX 9 20 2 -4
BITMAP
0780
0F80
1800
1800
1800
7E00
7800
1800
1800
1800
1800
1800
1800
1800
1800
1800
1800
1800
F000
E000
ENDCHAR
STARTCHAR Ohorn
ENCODING 416
SWIDTH 600 0
DWIDTH 12 0
BBX 11 15 1 0
BITMAP
1E60
3FE0
61C0
C080
C0C0
C0C0
C0C0
C0C0
C0C0
C0C0
C0C0
4080
6180
3F00
1E00
ENDCHAR
STARTCHAR ohorn
ENCODING 417
SWIDTH 600 0
DWIDTH 12 0
BBX 11 12 1 0
BITMAP
0060
1E40
7FC0
6180
C080
C0C0
C0C0
C0C0
C0C0
6180
7F00
1E00
ENDCHAR
STARTCHAR Uhorn
ENCODING 431
SWIDTH 600 0
DWIDTH 12 0
BBX 13 15 1 0
BITMAP
C0D8
C0D8
C0F0
C0E0
C0C0
C0C0
C0C0
C0C0
C0C0
C0C0
C0C0
4080
6180
3F00
1E00
ENDCHAR
STARTCHAR uhorn
ENCODING 432
SWIDTH 600 0
DWIDTH 12 0
BBX 11 12 2 0
BITMAP
0060
C360
C3E0
C3C0
C300
C300
C300
C300
C300
C300
FD00
7900
ENDCHAR
STARTCHAR uni01F0
ENCODING 496
SWIDTH 600 0
DWIDTH 12 0
BBX 8 19 2 -4
BITMAP
33
1E
00
00
7C
7C
0C
0C
0C
0C
0C
0C
0C
0C
0C
0C
0C
B8
F0
ENDCHAR
STARTCHAR Aringacute
ENCODING 506
SWIDTH 600 0
DWIDTH 12 0
BBX 10 20 1 0
BITMAP
0700
0000
0E00
1200
0E00
0C00
0C00
0E00
1E00
1A00
1300
3300
3300
3100
7F80
7F80
6080
40C0
C0C0
C0C0
ENDCHAR
STARTCHAR aringacute
ENCODING 507
SWIDTH 600 0
DWIDTH 12 0
BBX 9 17 2 0
BITMAP
0E00
0000
1C00
2400
1C00
0000
3C00
FF00
C300
0300
3F00
FB00
C300
8300
C300
FF00
7980
ENDCHAR
STARTCHAR AEacute
ENCODING 508
SWIDTH 600 0
DWIDTH 12 0
BBX 12 18 0 0
BITMAP
01C0
0100
0200
03E0
0700
0700
0700
0F00
0B00
1BE0
1BE0
1B00
3300
3F00
2300
6300
63F0
C3F0
ENDCHAR
STARTCHAR aeacute
ENCODING 509
SWIDTH 600 0
DWIDTH 12 0
BBX 12 15 0 0
BITMAP
0380
0200
0400
0000
3DC0
7FE0
4630
0630
0630
7FF0
6600
C600
C600
7FE0
39E0
ENDCHAR
STARTCHAR Oslashacute
ENCODING 510
SWIDTH 600 0
DWIDTH 12 0
BBX 10 19 1 0
BITMAP
0700
0400
0800
0000
1E40
3F80
6180
4180
C3C0
C2C0
C4C0
CCC0
C8C0
D8C0
D0C0
F080
6180
7F00
DE00
ENDCHAR
STARTCHAR oslashacute
ENCODING 511
SWIDTH 600 0
DWIDTH 12 0
BBX 10 16 1 -1
BITMAP
0700
0400
0880
0100
1F00
3F00
6380
C6C0
C4C0
CCC0
C8C0
D8C0
7180
3F00
3E00
6000
ENDCHAR
STARTCHAR uni0218
ENCODING 536
SWIDTH 600 0
DWIDTH 12 0
BBX 10 20 1 -5
BITMAP
1E00
3F80
61C0
40C0
6000
6000
3800
1F00
0780
01C0
00C0
C0C0
60C0
7F80
1F00
0000
0400
0400
0C00
0800
ENDCHAR
STARTCHAR uni0219
ENCODING 537
SWIDTH 600 0
DWIDTH 12 0
BBX 9 16 2 -5
BITMAP
3E00
7F00
C300
C000
6000
3E00
0700
C180
C100
FF00
3E00
0000
0800
0800
1800
1000
ENDCHAR
STARTCHAR uni021A
ENCODING 538
SWIDTH 600 0
DWIDTH 12 0
BBX 10 20 1 -5
BITMAP
FFC0
FC00
0C00
0C00
0C00
0C00
0C00
0C00
0C00
0C00
0C00
0C00
0C00
0C00
0C00
0000
0400
0400
0C00
0800
ENDCHAR
STARTCHAR uni021B
ENCODING 539
SWIDTH 600 0
DWIDTH 12 0
BBX 9 19 1 -5
BITMAP
1800
1800
1800
FF80
F800
1800
1800
1800
1800
1800
1800
1800
0F80
0780
0000
0200
0200
0600
0400
ENDCHAR
STARTCHAR uni0237
ENCODING 567
SWIDTH 600 0
DWIDTH 12 0
BBX 6 15 2 -4
BITMAP
7C
7C
0C
0C
0C
0C
0C
0C
0C
0C
0C
0C
0C
B8
F0
ENDCHAR
STARTCHAR schwa
ENCODING 601
SWIDTH 600 0
DWIDTH 12 0
BBX 9 11 2 0
BITMAP
7C00
FF00
8300
0180
0180
FF80
C180
C180
C300
7F00
3C00
ENDCHAR
STARTCHAR uni02BC
ENCODING 700
SWIDTH 600 0
DWIDTH 12 0
BBX 2 5 5 11
BITMAP
C0
C0
C0
C0
80
ENDCHAR
STARTCHAR circumflex
ENCODING 710
SWIDTH 600 0
DWIDTH 12 0
BBX 6 2 2 13
BITMAP
30
DC
ENDCHAR
STARTCHAR caron
ENCODING 711
SWIDTH 600 0
DWIDTH 12 0
BBX 6 2 3 13
BITMAP
CC
78
ENDCHAR
STARTCHAR macron.dup2
ENCODING 713
SWIDTH 600 0
DWIDTH 12 0
BBX 6 1 3 14
BITMAP
FC
ENDCHAR
STARTCHAR breve
ENCODING 728
SWIDTH 600 0
DWIDTH 12 0
BBX 6 3 3 12
BITMAP
CC
FC
78
ENDCHAR
STARTCHAR dotaccent
ENCODING 729
SWIDTH 600 0
DWIDTH 12 0
BBX 2 2 5 13
BITMAP
C0
C0
ENDCHAR
STARTCHAR ring
ENCODING 730
SWIDTH 600 0
DWIDTH 12 0
BBX 4 5 4 10
BITMAP
60
F0
90
F0
60
ENDCHAR
STARTCHAR ogonek
ENCODING 731
SWIDTH 600 0
DWIDTH 12 0
BBX 4 5 4 -4
BITMAP
20
C0
80
E0
F0
ENDCHAR
STARTCHAR tilde
ENCODING 732
SWIDTH 600 0
DWIDTH 12 0
BBX 7 2 1 13
BITMAP
7E
C0
ENDCHAR
STARTCHAR hungarumlaut
ENCODING 733
SWIDTH 600 0
DWIDTH 12 0
BBX 8 3 2 12
BITMAP
37
6C
D8
ENDCHAR
STARTCHAR uni02F3
ENCODING 755
SWIDTH 600 0
DWIDTH 12 0
BBX 3 4 4 -4
BITMAP
40
E0
E0
60
ENDCHAR
STARTCHAR gravecomb
ENCODING 768
SWIDTH 540 0
DWIDTH 11 0
BBX 3 4 -8 12
BITMAP
C0
C0
40
60
ENDCHAR
STARTCHAR acutecomb
ENCODING 769
SWIDTH 540 0
DWIDTH 11 0
BBX 2 4 -6 12
BITMAP
40
C0
80
80
ENDCHAR
STARTCHAR tildecomb
ENCODING 771
SWIDTH 540 0
DWIDTH 11 0
BBX 7 2 -9 13
BITMAP
7E
C0
ENDCHAR
STARTCHAR hook
ENCODING 777
SWIDTH 540 0
DWIDTH 11 0
BBX 3 5 -7 12
BITMAP
80
E0
20
60
40
ENDCHAR
STARTCHAR uni030F
ENCODING 783
SWIDTH 540 0
DWIDTH 11 0
BBX 7 3 -10 12
BITMAP
FC
34
1E
ENDCHAR
STARTCHAR dotbelow
ENCODING 803
SWIDTH 540 0
DWIDTH 11 0
BBX 2 2 -7 -3
BITMAP
C0
C0
ENDCHAR
STARTCHAR tonos
ENCODING 900
SWIDTH 600 0
DWIDTH 12 0
BBX 3 4 5 13
BITMAP
60
40
40
80
ENDCHAR
STARTCHAR dieresistonos
ENCODING 901
SWIDTH 600 0
DWIDTH 12 0
BBX 7 5 3 13
BITMAP
18
18
10
C6
C6
ENDCHAR
STARTCHAR Alphatonos
ENCODING 902
SWIDTH 600 0
DWIDTH 12 0
BBX 10 17 1 0
BITMAP
3000
2000
2C00
4C00
0E00
1E00
1A00
1300
3300
3300
3100
7F80
7F80
6080
40C0
C0C0
C0C0
ENDCHAR
STARTCHAR anoteleia
ENCODING 903
SWIDTH 600 0
DWIDTH 12 0
BBX 2 2 6 6
BITMAP
C0
C0
ENDCHAR
STARTCHAR Epsilontonos
ENCODING 904
SWIDTH 648 0
DWIDTH 13 0
BBX 12 17 0 0
BITMAP
6000
4000
5FE0
9800
1800
1800
1800
1800
1800
1FE0
1800
1800
1800
1800
1800
1FF0
1FF0
ENDCHAR
STARTCHAR Etatonos
ENCODING 905
SWIDTH 648 0
DWIDTH 13 0
BBX 12 17 0 0
BITMAP
6000
4000
7030
B030
3030
3030
3030
3030
3030
3FF0
3030
3030
3030
3030
3030
3030
3030
ENDCHAR
STARTCHAR Iotatonos
ENCODING 906
SWIDTH 648 0
DWIDTH 13 0
BBX 12 17 -1 0
BITMAP
6000
4000
4FF0
8F80
0180
0180
0180
0180
0180
0180
0180
0180
0180
0180
0180
01F0
0FF0
ENDCHAR
STARTCHAR Omicrontonos
ENCODING 908
SWIDTH 609 0
DWIDTH 12 0
BBX 11 17 0 0
BITMAP
6000
4000
4F00
9F80
30C0
2040
6060
6060
6060
6060
6060
6060
6060
2040
30C0
1F80
0F00
ENDCHAR
STARTCHAR Upsilontonos
ENCODING 910
SWIDTH 648 0
DWIDTH 13 0
BBX 13 17 -1 0
BITMAP
6000
4000
5818
9830
0C30
0C30
0660
0660
03C0
03C0
0180
0180
0180
0180
0180
0180
0180
ENDCHAR
STARTCHAR Omegatonos
ENCODING 911
SWIDTH 609 0
DWIDTH 12 0
BBX 11 17 0 0
BITMAP
6000
4000
4F00
9F80
30C0
6060
6060
6060
6060
6060
6060
6060
2040
30C0
1080
09E0
79E0
ENDCHAR
STARTCHAR iotadieresistonos
ENCODING 912
SWIDTH 600 0
DWIDTH 12 0
BBX 9 17 2 0
BITMAP
0C00
0C00
0800
6300
6300
0000
F800
F800
1800
1800
1800
1800
1800
1800
1800
0F00
0F80
ENDCHAR
STARTCHAR Alpha
ENCODING 913
SWIDTH 600 0
DWIDTH 12 0
BBX 10 15 1 0
BITMAP
0C00
0C00
0E00
1E00
1A00
1300
3300
3300
3100
7F80
7F80
6080
40C0
C0C0
C0C0
ENDCHAR
STARTCHAR Beta
ENCODING 914
SWIDTH 600 0
DWIDTH 12 0
BBX 9 15 2 0
BITMAP
FC00
CF00
C300
C180
C180
C300
CE00
FE00
C300
C180
C180
C180
C380
CF00
FE00
ENDCHAR
STARTCHAR Gamma
ENCODING 915
SWIDTH 600 0
DWIDTH 12 0
BBX 8 15 2 0
BITMAP
FF
C0
C0
C0
C0
C0
C0
C0
C0
C0
C0
C0
C0
C0
C0
ENDCHAR
STARTCHAR Delta
ENCODING 916
SWIDTH 600 0
DWIDTH 12 0
BBX 12 15 0 0
BITMAP
0600
0700
0700
0D00
0D00
0980
1980
1880
10C0
30C0
3040
2060
6060
6060
FFF0
ENDCHAR
STARTCHAR Epsilon
ENCODING 917
SWIDTH 600 0
DWIDTH 12 0
BBX 9 15 2 0
BITMAP
FF00
C000
C000
C000
C000
C000
C000
FF00
C000
C000
C000
C000
C000
FF80
FF80
ENDCHAR
STARTCHAR Zeta
ENCODING 918
SWIDTH 600 0
DWIDTH 12 0
BBX 10 15 1 0
BITMAP
FF80
FF80
0180
0300
0600
0600
0C00
0C00
1800
1800
3000
6000
6000
FFC0
FFC0
ENDCHAR
STARTCHAR Eta
ENCODING 919
SWIDTH 600 0
DWIDTH 12 0
BBX 10 15 1 0
BITMAP
C0C0
C0C0
C0C0
C0C0
C0C0
C0C0
C0C0
FFC0
C0C0
C0C0
C0C0
C0C0
C0C0
C0C0
C0C0
ENDCHAR
STARTCHAR Theta
ENCODING 920
SWIDTH 600 0
DWIDTH 12 0
BBX 10 15 1 0
BITMAP
1E00
3F00
6180
4080
C0C0
C0C0
DEC0
DEC0
C0C0
C0C0
C0C0
4080
6180
3F00
1E00
ENDCHAR
STARTCHAR Iota
ENCODING 921
SWIDTH 600 0
DWIDTH 12 0
BBX 8 15 2 0
BITMAP
FF
F8
18
18
18
18
18
18
18
18
18
18
18
1F
FF
ENDCHAR
STARTCHAR Kappa
ENCODING 922
SWIDTH 600 0
DWIDTH 12 0
BBX 10 15 2 0
BITMAP
C180
C300
C600
CE00
CC00
D800
F000
F800
FC00
CC00
C600
C600
C300
C380
C1C0
ENDCHAR
STARTCHAR Lambda
ENCODING 923
SWIDTH 600 0
DWIDTH 12 0
BBX 11 15 1 0
BITMAP
0C00
0C00
1E00
1E00
1E00
1300
3300
3300
2180
6180
6180
4080
C0C0
C0C0
C060
ENDCHAR
STARTCHAR Mu
ENCODING 924
SWIDTH 600 0
DWIDTH 12 0
BBX 10 15 1 0
BITMAP
E1C0
E1C0
E1C0
F3C0
D3C0
D2C0
DEC0
DEC0
CCC0
CCC0
CCC0
C0C0
C0C0
C0C0
C0C0
ENDCHAR
STARTCHAR Nu
ENCODING 925
SWIDTH 600 0
DWIDTH 12 0
BBX 10 15 1 0
BITMAP
C0C0
E0C0
E0C0
F0C0
D0C0
D8C0
C8C0
CCC0
C4C0
C6C0
C2C0
C3C0
C1C0
C1C0
C0C0
ENDCHAR
STARTCHAR Xi
ENCODING 926
SWIDTH 600 0
DWIDTH 12 0
BBX 10 15 1 0
BITMAP
FF80
FF80
0000
0000
0000
0000
7F80
7F80
0000
0000
0000
0000
0000
FFC0
FFC0
ENDCHAR
STARTCHAR Omicron
ENCODING 927
SWIDTH 600 0
DWIDTH 12 0
BBX 10 15 1 0
BITMAP
1E00
3F00
6180
4080
C0C0
C0C0
C0C0
C0C0
C0C0
C0C0
C0C0
4080
6180
3F00
1E00
ENDCHAR
STARTCHAR Pi
ENCODING 928
SWIDTH 600 0
DWIDTH 12 0
BBX 8 15 2 0
BITMAP
FF
81
81
81
81
81
81
81
81
81
81
81
81
81
81
ENDCHAR
STARTCHAR Rho
ENCODING 929
SWIDTH 600 0
DWIDTH 12 0
BBX 9 15 2 0
BITMAP
FE00
CF00
C180
C180
C180
C180
C180
CF00
FE00
C000
C000
C000
C000
C000
C000
ENDCHAR
STARTCHAR Sigma
ENCODING 931
SWIDTH 600 0
DWIDTH 12 0
BBX 10 15 1 0
BITMAP
FFC0
C000
6000
3000
3800
1800
0C00
0600
0C00
1800
1800
3000
6000
FFC0
FFC0
ENDCHAR
STARTCHAR Tau
ENCODING 932
SWIDTH 600 0
DWIDTH 12 0
BBX 10 15 1 0
BITMAP
FFC0
FC00
0C00
0C00
0C00
0C00
0C00
0C00
0C00
0C00
0C00
0C00
0C00
0C00
0C00
ENDCHAR
STARTCHAR Upsilon
ENCODING 933
SWIDTH 600 0
DWIDTH 12 0
BBX 10 15 1 0
BITMAP
C0C0
C180
6180
6180
3300
3300
1E00
1E00
0C00
0C00
0C00
0C00
0C00
0C00
0C00
ENDCHAR
STARTCHAR Phi
ENCODING 934
SWIDTH 600 0
DWIDTH 12 0
BBX 10 15 1 0
BITMAP
0C00
0C00
1E00
7F80
CCC0
CCC0
CCC0
8C40
CCC0
CCC0
CCC0
7F80
3F00
0C00
0C00
ENDCHAR
STARTCHAR Chi
ENCODING 935
SWIDTH 600 0
DWIDTH 12 0
BBX 10 15 1 0
BITMAP
C0C0
6180
6180
3300
3B00
1E00
0E00
0C00
0E00
1E00
3300
3300
6180
61C0
C0C0
ENDCHAR
STARTCHAR Psi
ENCODING 936
SWIDTH 600 0
DWIDTH 12 0
BBX 10 15 1 0
BITMAP
CCC0
CCC0
CCC0
CCC0
CCC0
CCC0
CCC0
CCC0
CCC0
6D80
3F80
1E00
0C00
0C00
0C00
ENDCHAR
STARTCHAR Omega
ENCODING 937
SWIDTH 600 0
DWIDTH 12 0
BBX 10 15 1 0
BITMAP
1E00
3F00
6180
C0C0
C0C0
C0C0
C0C0
C0C0
C0C0
C0C0
4080
6180
2100
13C0
F3C0
ENDCHAR
STARTCHAR Iotadieresis
ENCODING 938
SWIDTH 600 0
DWIDTH 12 0
BBX 8 18 2 0
BITMAP
66
42
00
FF
F8
18
18
18
18
18
18
18
18
18
18
18
1F
FF
ENDCHAR
STARTCHAR Upsilondieresis
ENCODING 939
SWIDTH 600 0
DWIDTH 12 0
BBX 10 18 1 0
BITMAP
3300
2100
0000
C0C0
C180
6180
6180
3300
3300
1E00
1E00
0C00
0C00
0C00
0C00
0C00
0C00
0C00
ENDCHAR
STARTCHAR alphatonos
ENCODING 940
SWIDTH 600 0
DWIDTH 12 0
BBX 10 17 1 0
BITMAP
0600
0400
0400
0800
0000
0000
3C80
7F80
6180
C180
C180
C180
C180
C180
6180
7FC0
3CC0
ENDCHAR
STARTCHAR epsilontonos
ENCODING 941
SWIDTH 600 0
DWIDTH 12 0
BBX 10 17 1 0
BITMAP
0600
0400
0400
0800
0000
0000
3F00
7F80
40C0
4000
7E00
3E00
6000
C000
C0C0
7F80
3F00
ENDCHAR
STARTCHAR etatonos
ENCODING 942
SWIDTH 600 0
DWIDTH 12 0
BBX 8 21 2 -4
BITMAP
0C
08
08
10
00
00
9E
BF
C3
81
81
81
81
81
81
81
81
01
01
01
01
ENDCHAR
STARTCHAR iotatonos
ENCODING 943
SWIDTH 600 0
DWIDTH 12 0
BBX 9 17 2 0
BITMAP
0C00
0800
0800
1000
0000
0000
F800
F800
1800
1800
1800
1800
1800
1800
1800
0F00
0F80
ENDCHAR
STARTCHAR upsilondieresistonos
ENCODING 944
SWIDTH 600 0
DWIDTH 12 0
BBX 9 17 2 0
BITMAP
1800
1800
1000
C600
C600
0000
8300
8300
8300
8180
8180
8180
8180
8300
C300
FE00
3C00
ENDCHAR
STARTCHAR alpha
ENCODING 945
SWIDTH 600 0
DWIDTH 12 0
BBX 10 11 1 0
BITMAP
3C80
7F80
6180
C180
C180
C180
C180
C180
6180
7FC0
3CC0
ENDCHAR
STARTCHAR beta
ENCODING 946
SWIDTH 600 0
DWIDTH 12 0
BBX 9 19 2 -4
BITMAP
3C00
7E00
C300
C300
C300
C300
CE00
DE00
C300
C180
C180
C180
C180
FF00
FE00
C000
C000
C000
C000
ENDCHAR
STARTCHAR gamma
ENCODING 947
SWIDTH 600 0
DWIDTH 12 0
BBX 10 15 1 -4
BITMAP
C0C0
C0C0
6080
6180
2180
3300
1300
1A00
1E00
0C00
0C00
0C00
0C00
0C00
0C00
ENDCHAR
STARTCHAR delta
ENCODING 948
SWIDTH 600 0
DWIDTH 12 0
BBX 10 16 1 0
BITMAP
1F00
3F00
2000
3000
3800
1E00
3F80
6180
40C0
C0C0
C0C0
C0C0
C0C0
6180
3F80
1E00
ENDCHAR
STARTCHAR epsilon
ENCODING 949
SWIDTH 600 0
DWIDTH 12 0
BBX 10 11 1 0
BITMAP
3F00
7F80
40C0
4000
7E00
3E00
6000
C000
C0C0
7F80
3F00
ENDCHAR
STARTCHAR zeta
ENCODING 950
SWIDTH 600 0
DWIDTH 12 0
BBX 9 18 1 -3
BITMAP
FF80
FF80
0300
0600
0C00
1800
1000
3000
6000
6000
6000
6000
7000
3F00
0780
0180
0180
0300
ENDCHAR
STARTCHAR eta
ENCODING 951
SWIDTH 600 0
DWIDTH 12 0
BBX 8 15 2 -4
BITMAP
9E
BF
C3
81
81
81
81
81
81
81
81
01
01
01
01
ENDCHAR
STARTCHAR theta
ENCODING 952
SWIDTH 600 0
DWIDTH 12 0
BBX 8 15 2 0
BITMAP
3C
7E
C3
C3
C3
C3
C3
FF
C3
C3
C3
C3
C3
7E
3C
ENDCHAR
STARTCHAR iota
ENCODING 953
SWIDTH 600 0
DWIDTH 12 0
BBX 9 11 2 0
BITMAP
F800
F800
1800
1800
1800
1800
1800
1800
1800
0F00
0F80
ENDCHAR
STARTCHAR kappa
ENCODING 954
SWIDTH 600 0
DWIDTH 12 0
BBX 9 11 2 0
BITMAP
C380
C600
CC00
DC00
F800
F800
FC00
CC00
C600
C300
C380
ENDCHAR
STARTCHAR lambda
ENCODING 955
SWIDTH 600 0
DWIDTH 12 0
BBX 10 15 1 0
BITMAP
E000
F000
3000
1800
1800
1C00
1C00
3C00
3600
3600
6300
6300
4300
C1C0
C0C0
ENDCHAR
STARTCHAR uni03BC
ENCODING 956
SWIDTH 600 0
DWIDTH 12 0
BBX 8 15 2 -4
BITMAP
C3
C3
C3
C3
C3
C3
C3
C3
C3
FF
FF
C0
C0
C0
C0
ENDCHAR
STARTCHAR nu
ENCODING 957
SWIDTH 600 0
DWIDTH 12 0
BBX 10 11 1 0
BITMAP
C0C0
4080
6180
6180
2100
3300
1200
1E00
1E00
0C00
0C00
ENDCHAR
STARTCHAR xi
ENCODING 958
SWIDTH 600 0
DWIDTH 12 0
BBX 8 19 2 -4
BITMAP
1F
7F
C0
C0
60
3E
3E
60
C0
C0
C0
C0
E0
7C
0F
01
01
03
02
ENDCHAR
STARTCHAR omicron
ENCODING 959
SWIDTH 600 0
DWIDTH 12 0
BBX 10 11 1 0
BITMAP
1E00
3F00
6180
C0C0
C0C0
C0C0
C0C0
C0C0
6180
3F00
1E00
ENDCHAR
STARTCHAR pi
ENCODING 960
SWIDTH 600 0
DWIDTH 12 0
BBX 11 11 1 0
BITMAP
FFC0
E100
6100
6100
6100
6100
6100
6100
6100
61C0
61E0
ENDCHAR
STARTCHAR rho
ENCODING 961
SWIDTH 600 0
DWIDTH 12 0
BBX 9 15 2 -4
BITMAP
3C00
7E00
C300
C100
8180
8180
8180
8180
C300
FF00
BE00
8000
8000
8000
8000
ENDCHAR
STARTCHAR sigma1
ENCODING 962
SWIDTH 600 0
DWIDTH 12 0
BBX 9 15 1 -4
BITMAP
1E00
3F80
6180
C080
C000
C000
C000
C000
6000
3800
1F80
0180
0180
0180
0300
ENDCHAR
STARTCHAR sigma
ENCODING 963
SWIDTH 600 0
DWIDTH 12 0
BBX 10 11 1 0
BITMAP
1FC0
7F00
6180
C180
C080
C0C0
C080
C180
6180
7F00
1E00
ENDCHAR
STARTCHAR tau
ENCODING 964
SWIDTH 600 0
DWIDTH 12 0
BBX 8 11 2 0
BITMAP
FF
F8
18
18
18
18
18
18
18
0F
0F
ENDCHAR
STARTCHAR upsilon
ENCODING 965
SWIDTH 600 0
DWIDTH 12 0
BBX 9 11 2 0
BITMAP
8300
8300
8300
8180
8180
8180
8180
8300
C300
FE00
3C00
ENDCHAR
STARTCHAR phi
ENCODING 966
SWIDTH 600 0
DWIDTH 12 0
BBX 10 15 1 -4
BITMAP
2700
7F80
6CC0
CCC0
CCC0
CCC0
CCC0
CCC0
6D80
7F80
1E00
0C00
0C00
0C00
0C00
ENDCHAR
STARTCHAR chi
ENCODING 967
SWIDTH 600 0
DWIDTH 12 0
BBX 10 11 1 0
BITMAP
E0C0
6180
3300
1E00
1E00
0C00
1E00
1B00
3300
6180
E0C0
ENDCHAR
STARTCHAR psi
ENCODING 968
SWIDTH 600 0
DWIDTH 12 0
BBX 10 15 1 -4
BITMAP
CCC0
CCC0
CCC0
CCC0
CCC0
CCC0
CCC0
CCC0
6D80
3F80
0C00
0C00
0C00
0C00
0C00
ENDCHAR
STARTCHAR omega
ENCODING 969
SWIDTH 600 0
DWIDTH 12 0
BBX 10 11 1 0
BITMAP
61C0
C0C0
C0C0
CCC0
CC40
CC40
CCC0
CCC0
CCC0
7EC0
7380
ENDCHAR
STARTCHAR iotadieresis
ENCODING 970
SWIDTH 600 0
DWIDTH 12 0
BBX 9 15 2 0
BITMAP
6600
4200
0000
0000
F800
F800
1800
1800
1800
1800
1800
1800
1800
0F00
0F80
ENDCHAR
STARTCHAR upsilondieresis
ENCODING 971
SWIDTH 600 0
DWIDTH 12 0
BBX 9 15 2 0
BITMAP
6600
4200
0000
0000
8300
8300
8300
8180
8180
8180
8180
8300
C300
FE00
3C00
ENDCHAR
STARTCHAR omicrontonos
ENCODING 972
SWIDTH 600 0
DWIDTH 12 0
BBX 10 17 1 0
BITMAP
0600
0400
0400
0800
0000
0000
1E00
3F00
6180
C0C0
C0C0
C0C0
C0C0
C0C0
6180
3F00
1E00
ENDCHAR
STARTCHAR upsilontonos
ENCODING 973
SWIDTH 600 0
DWIDTH 12 0
BBX 9 17 2 0
BITMAP
0C00
0800
0800
1000
0000
0000
8300
8300
8300
8180
8180
8180
8180
8300
C300
FE00
3C00
ENDCHAR
STARTCHAR omegatonos
ENCODING 974
SWIDTH 600 0
DWIDTH 12 0
BBX 10 17 1 0
BITMAP
0600
0400
0400
0800
0000
0000
61C0
C0C0
C0C0
CCC0
CC40
CC40
CCC0
CCC0
CCC0
7EC0
7380
ENDCHAR
STARTCHAR uni03D1
ENCODING 977
SWIDTH 600 0
DWIDTH 12 0
BBX 11 15 1 0
BITMAP
0F00
1F80
1180
1180
1180
1980
1D80
CFC0
C3E0
C180
C180
4180
6180
7F00
1E00
ENDCHAR
STARTCHAR uni03D2
ENCODING 978
SWIDTH 600 0
DWIDTH 12 0
BBX 11 15 1 0
BITMAP
C0E0
E1C0
6180
3100
3300
1200
1E00
1E00
0C00
0C00
0C00
0C00
0C00
0C00
0C00
ENDCHAR
STARTCHAR uni03D6
ENCODING 982
SWIDTH 600 0
DWIDTH 12 0
BBX 11 11 0 0
BITMAP
FFE0
E0C0
6040
6060
6660
6660
6660
6660
6660
7FC0
39C0
ENDCHAR
STARTCHAR uni0400
ENCODING 1024
SWIDTH 600 0
DWIDTH 12 0
BBX 9 18 2 0
BITMAP
7000
1000
0800
FF00
C000
C000
C000
C000
C000
C000
FF00
C000
C000
C000
C000
C000
FF80
FF80
ENDCHAR
STARTCHAR uni0401
ENCODING 1025
SWIDTH 600 0
DWIDTH 12 0
BBX 9 18 2 0
BITMAP
6600
4200
0000
FF00
C000
C000
C000
C000
C000
C000
FF00
C000
C000
C000
C000
C000
FF80
FF80
ENDCHAR
STARTCHAR uni0402
ENCODING 1026
SWIDTH 600 0
DWIDTH 12 0
BBX 11 15 0 0
BITMAP
FFE0
FC00
0C00
0C00
0C00
0C00
0E00
0FC0
0CE0
0C60
0C60
0C60
0C60
0DE0
0DC0
ENDCHAR
STARTCHAR uni0403
ENCODING 1027
SWIDTH 600 0
DWIDTH 12 0
BBX 8 18 2 0
BITMAP
0E
08
10
FF
C0
C0
C0
C0
C0
C0
C0
C0
C0
C0
C0
C0
C0
C0
ENDCHAR
STARTCHAR uni0404
ENCODING 1028
SWIDTH 600 0
DWIDTH 12 0
BBX 10 15 1 0
BITMAP
1F00
3F80
60C0
40C0
C0C0
C000
FF00
FF00
C000
C000
C0C0
60C0
6080
3F80
1F00
ENDCHAR
STARTCHAR uni0405
ENCODING 1029
SWIDTH 600 0
DWIDTH 12 0
BBX 10 15 1 0
BITMAP
1E00
3F80
61C0
40C0
6000
6000
3800
1F00
0780
01C0
00C0
C0C0
60C0
7F80
1F00
ENDCHAR
STARTCHAR uni0406
ENCODING 1030
SWIDTH 600 0
DWIDTH 12 0
BBX 8 15 2 0
BITMAP
FF
F8
18
18
18
18
18
18
18
18
18
18
18
1F
FF
ENDCHAR
STARTCHAR uni0407
ENCODING 1031
SWIDTH 600 0
DWIDTH 12 0
BBX 8 18 2 0
BITMAP
66
42
00
FF
F8
18
18
18
18
18
18
18
18
18
18
18
1F
FF
ENDCHAR
STARTCHAR uni0408
ENCODING 1032
SWIDTH 600 0
DWIDTH 12 0
BBX 9 15 1 0
BITMAP
0180
0180
0180
0180
0180
0180
0180
0180
0180
0180
0180
C180
C180
7F00
3E00
ENDCHAR
STARTCHAR uni0409
ENCODING 1033
SWIDTH 600 0
DWIDTH 12 0
BBX 12 15 0 0
BITMAP
3E00
3600
3600
3600
3600
3600
37C0
36E0
3660
2620
2630
2620
6660
66E0
C7C0
ENDCHAR
STARTCHAR uni040A
ENCODING 1034
SWIDTH 600 0
DWIDTH 12 0
BBX 10 15 1 0
BITMAP
C400
C400
C400
C400
C400
C400
C400
FF80
C5C0
C4C0
C440
C440
C4C0
C7C0
C780
ENDCHAR
STARTCHAR uni040B
ENCODING 1035
SWIDTH 600 0
DWIDTH 12 0
BBX 10 15 1 0
BITMAP
FFC0
F800
1800
1800
1800
1800
1C00
1F80
18C0
18C0
18C0
18C0
18C0
18C0
18C0
ENDCHAR
STARTCHAR uni040C
ENCODING 1036
SWIDTH 600 0
DWIDTH 12 0
BBX 10 18 2 0
BITMAP
0E00
0800
1000
C180
C300
C600
CE00
CC00
D800
F000
F800
FC00
CC00
C600
C600
C300
C380
C1C0
ENDCHAR
STARTCHAR uni040D
ENCODING 1037
SWIDTH 600 0
DWIDTH 12 0
BBX 8 18 2 0
BITMAP
70
10
08
83
83
87
87
8D
8D
89
99
91
B1
B1
E1
E1
C1
C1
ENDCHAR
STARTCHAR uni040E
ENCODING 1038
SWIDTH 600 0
DWIDTH 12 0
BBX 12 19 0 0
BITMAP
1980
1F80
0F00
0000
E070
6060
3060
30C0
30C0
1880
1980
0D80
0F00
0700
0600
0600
0400
5C00
7800
ENDCHAR
STARTCHAR uni040F
ENCODING 1039
SWIDTH 600 0
DWIDTH 12 0
BBX 8 18 2 -3
BITMAP
81
81
81
81
81
81
81
81
81
81
81
81
81
81
FF
18
18
18
ENDCHAR
STARTCHAR uni0410
ENCODING 1040
SWIDTH 600 0
DWIDTH 12 0
BBX 10 15 1 0
BITMAP
0C00
0C00
0E00
1E00
1A00
1300
3300
3300
3100
7F80
7F80
6080
40C0
C0C0
C0C0
ENDCHAR
STARTCHAR uni0411
ENCODING 1041
SWIDTH 600 0
DWIDTH 12 0
BBX 9 15 2 0
BITMAP
FF00
8000
8000
8000
8000
8000
F000
FE00
8300
8180
8180
8180
8300
8F00
FC00
ENDCHAR
STARTCHAR uni0412
ENCODING 1042
SWIDTH 600 0
DWIDTH 12 0
BBX 9 15 2 0
BITMAP
FC00
CF00
C300
C180
C180
C300
CE00
FE00
C300
C180
C180
C180
C380
CF00
FE00
ENDCHAR
STARTCHAR uni0413
ENCODING 1043
SWIDTH 600 0
DWIDTH 12 0
BBX 8 15 2 0
BITMAP
FF
C0
C0
C0
C0
C0
C0
C0
C0
C0
C0
C0
C0
C0
C0
ENDCHAR
STARTCHAR uni0414
ENCODING 1044
SWIDTH 600 0
DWIDTH 12 0
BBX 10 18 1 -3
BITMAP
1F80
1180
3180
3180
3180
3180
3180
3180
3180
3180
3180
2180
6180
E1C0
FFC0
80C0
80C0
80C0
ENDCHAR
STARTCHAR uni0415
ENCODING 1045
SWIDTH 600 0
DWIDTH 12 0
BBX 9 15 2 0
BITMAP
FF00
C000
C000
C000
C000
C000
C000
FF00
C000
C000
C000
C000
C000
FF80
FF80
ENDCHAR
STARTCHAR uni0416
ENCODING 1046
SWIDTH 600 0
DWIDTH 12 0
BBX 12 15 0 0
BITMAP
6660
6660
6660
36C0
36C0
36C0
1680
1F80
1F80
36C0
36C0
36C0
6660
6660
E670
ENDCHAR
STARTCHAR uni0417
ENCODING 1047
SWIDTH 600 0
DWIDTH 12 0
BBX 10 15 1 0
BITMAP
3F00
7F80
C0C0
C0C0
00C0
00C0
0780
1F00
0180
00C0
00C0
C0C0
C0C0
7F80
3F00
ENDCHAR
STARTCHAR uni0418
ENCODING 1048
SWIDTH 600 0
DWIDTH 12 0
BBX 8 15 2 0
BITMAP
83
83
87
87
8D
8D
89
99
91
B1
B1
E1
E1
C1
C1
ENDCHAR
STARTCHAR uni0419
ENCODING 1049
SWIDTH 600 0
DWIDTH 12 0
BBX 8 19 2 0
BITMAP
66
7E
3C
00
83
83
87
87
8D
8D
89
99
91
B1
B1
E1
E1
C1
C1
ENDCHAR
STARTCHAR uni041A
ENCODING 1050
SWIDTH 600 0
DWIDTH 12 0
BBX 10 15 2 0
BITMAP
8180
8300
8300
8600
8600
8C00
9800
F800
9800
8C00
8E00
8600
8300
8180
81C0
ENDCHAR
STARTCHAR uni041B
ENCODING 1051
SWIDTH 600 0
DWIDTH 12 0
BBX 10 15 0 0
BITMAP
1FC0
1840
1040
1040
1040
1040
1040
1040
1040
1040
1040
3040
3040
7040
E040
ENDCHAR
STARTCHAR uni041C
ENCODING 1052
SWIDTH 600 0
DWIDTH 12 0
BBX 10 15 1 0
BITMAP
E1C0
E1C0
E1C0
F3C0
D3C0
D2C0
DEC0
DEC0
CCC0
CCC0
CCC0
C0C0
C0C0
C0C0
C0C0
ENDCHAR
STARTCHAR uni041D
ENCODING 1053
SWIDTH 600 0
DWIDTH 12 0
BBX 10 15 1 0
BITMAP
C0C0
C0C0
C0C0
C0C0
C0C0
C0C0
C0C0
FFC0
C0C0
C0C0
C0C0
C0C0
C0C0
C0C0
C0C0
ENDCHAR
STARTCHAR uni041E
ENCODING 1054
SWIDTH 600 0
DWIDTH 12 0
BBX 10 15 1 0
BITMAP
1E00
3F00
6180
4080
C0C0
C0C0
C0C0
C0C0
C0C0
C0C0
C0C0
4080
6180
3F00
1E00
ENDCHAR
STARTCHAR uni041F
ENCODING 1055
SWIDTH 600 0
DWIDTH 12 0
BBX 8 15 2 0
BITMAP
FF
81
81
81
81
81
81
81
81
81
81
81
81
81
81
ENDCHAR
STARTCHAR uni0420
ENCODING 1056
SWIDTH 600 0
DWIDTH 12 0
BBX 9 15 2 0
BITMAP
FE00
CF00
C180
C180
C180
C180
C180
CF00
FE00
C000
C000
C000
C000
C000
C000
ENDCHAR
STARTCHAR uni0421
ENCODING 1057
SWIDTH 600 0
DWIDTH 12 0
BBX 10 15 1 0
BITMAP
1E00
3F80
6180
40C0
C0C0
C000
C000
C000
C000
C000
C0C0
40C0
6180
3F80
1E00
ENDCHAR
STARTCHAR uni0422
ENCODING 1058
SWIDTH 600 0
DWIDTH 12 0
BBX 10 15 1 0
BITMAP
FFC0
FC00
0C00
0C00
0C00
0C00
0C00
0C00
0C00
0C00
0C00
0C00
0C00
0C00
0C00
ENDCHAR
STARTCHAR uni0423
ENCODING 1059
SWIDTH 600 0
DWIDTH 12 0
BBX 12 15 0 0
BITMAP
E070
6060
3060
30C0
30C0
1880
1980
0D80
0F00
0700
0600
0600
0400
5C00
7800
ENDCHAR
STARTCHAR uni0424
ENCODING 1060
SWIDTH 600 0
DWIDTH 12 0
BBX 10 15 1 0
BITMAP
0C00
0C00
1E00
7F80
CCC0
CCC0
CCC0
8C40
CCC0
CCC0
CCC0
7F80
3F00
0C00
0C00
ENDCHAR
STARTCHAR uni0425
ENCODING 1061
SWIDTH 600 0
DWIDTH 12 0
BBX 10 15 1 0
BITMAP
C0C0
6180
6180
3300
3B00
1E00
0E00
0C00
0E00
1E00
3300
3300
6180
61C0
C0C0
ENDCHAR
STARTCHAR uni0426
ENCODING 1062
SWIDTH 600 0
DWIDTH 12 0
BBX 10 18 2 -3
BITMAP
8100
8100
8100
8100
8100
8100
8100
8100
8100
8100
8100
8100
8100
81C0
FFC0
00C0
00C0
00C0
ENDCHAR
STARTCHAR uni0427
ENCODING 1063
SWIDTH 600 0
DWIDTH 12 0
BBX 8 15 2 0
BITMAP
81
81
81
81
81
C1
C1
C3
7F
11
01
01
01
01
01
ENDCHAR
STARTCHAR uni0428
ENCODING 1064
SWIDTH 600 0
DWIDTH 12 0
BBX 10 15 1 0
BITMAP
CCC0
CCC0
CCC0
CCC0
CCC0
CCC0
CCC0
CCC0
CCC0
CCC0
CCC0
CCC0
CCC0
CCC0
FFC0
ENDCHAR
STARTCHAR uni0429
ENCODING 1065
SWIDTH 600 0
DWIDTH 12 0
BBX 11 18 1 -3
BITMAP
CCC0
CCC0
CCC0
CCC0
CCC0
CCC0
CCC0
CCC0
CCC0
CCC0
CCC0
CCC0
CCC0
CCE0
FFE0
0060
0060
0060
ENDCHAR
STARTCHAR uni042A
ENCODING 1066
SWIDTH 600 0
DWIDTH 12 0
BBX 11 15 0 0
BITMAP
F800
F800
1800
1800
1800
1800
1E00
1FC0
18E0
1860
1860
1860
1860
19C0
1F80
ENDCHAR
STARTCHAR uni042B
ENCODING 1067
SWIDTH 600 0
DWIDTH 12 0
BBX 10 15 1 0
BITMAP
C0C0
C0C0
C0C0
C0C0
C0C0
C0C0
E0C0
FCC0
CCC0
C6C0
C6C0
C6C0
C6C0
DCC0
F8C0
ENDCHAR
STARTCHAR uni042C
ENCODING 1068
SWIDTH 600 0
DWIDTH 12 0
BBX 9 15 2 0
BITMAP
8000
8000
8000
8000
8000
8000
F000
FE00
8300
8180
8180
8180
8300
8F00
FE00
ENDCHAR
STARTCHAR uni042D
ENCODING 1069
SWIDTH 600 0
DWIDTH 12 0
BBX 10 15 1 0
BITMAP
1E00
7F00
6180
C080
C0C0
00C0
00C0
1FC0
1FC0
00C0
C0C0
C080
6180
7F00
3E00
ENDCHAR
STARTCHAR uni042E
ENCODING 1070
SWIDTH 600 0
DWIDTH 12 0
BBX 10 15 1 0
BITMAP
C700
CF80
D8C0
D8C0
D8C0
D8C0
D8C0
F8C0
D8C0
D8C0
D8C0
D8C0
D8C0
CF80
C700
ENDCHAR
STARTCHAR uni042F
ENCODING 1071
SWIDTH 600 0
DWIDTH 12 0
BBX 9 15 1 0
BITMAP
1F80
7880
6080
C080
C080
C080
6080
7880
1F80
3080
3080
6080
6080
C080
C080
ENDCHAR
STARTCHAR uni0430
ENCODING 1072
SWIDTH 600 0
DWIDTH 12 0
BBX 9 11 2 0
BITMAP
3C00
FF00
C300
0300
3F00
FB00
C300
8300
C300
FF00
7980
ENDCHAR
STARTCHAR uni0431
ENCODING 1073
SWIDTH 600 0
DWIDTH 12 0
BBX 10 16 1 0
BITMAP
0180
0180
0F00
3C00
6000
4400
5F00
E180
C180
C0C0
C0C0
C0C0
C080
6180
7F00
1E00
ENDCHAR
STARTCHAR uni0432
ENCODING 1074
SWIDTH 600 0
DWIDTH 12 0
BBX 8 11 2 0
BITMAP
FC
8F
83
83
83
FE
8F
81
81
8F
FE
ENDCHAR
STARTCHAR uni0433
ENCODING 1075
SWIDTH 600 0
DWIDTH 12 0
BBX 8 11 2 0
BITMAP
FF
C0
C0
C0
C0
C0
C0
C0
C0
C0
C0
ENDCHAR
STARTCHAR uni0434
ENCODING 1076
SWIDTH 600 0
DWIDTH 12 0
BBX 11 14 1 -3
BITMAP
3F80
3180
3180
3180
3180
3180
3180
3180
2180
61E0
FFC0
8040
8040
8040
ENDCHAR
STARTCHAR uni0435
ENCODING 1077
SWIDTH 600 0
DWIDTH 12 0
BBX 10 11 1 0
BITMAP
1E00
3F80
6180
4080
C0C0
FFC0
C000
4000
60C0
3F80
1F00
ENDCHAR
STARTCHAR uni0436
ENCODING 1078
SWIDTH 600 0
DWIDTH 12 0
BBX 12 11 0 0
BITMAP
6660
6660
36C0
36C0
1680
1F80
1780
36C0
36C0
6660
E670
ENDCHAR
STARTCHAR uni0437
ENCODING 1079
SWIDTH 600 0
DWIDTH 12 0
BBX 10 11 1 0
BITMAP
3F00
7F80
C0C0
0080
0780
1F00
0180
00C0
C0C0
7F80
3F00
ENDCHAR
STARTCHAR uni0438
ENCODING 1080
SWIDTH 600 0
DWIDTH 12 0
BBX 8 11 2 0
BITMAP
83
83
87
8D
8D
99
B1
B1
E1
C1
C1
ENDCHAR
STARTCHAR uni0439
ENCODING 1081
SWIDTH 600 0
DWIDTH 12 0
BBX 8 16 2 0
BITMAP
66
7E
3C
00
00
83
83
87
8D
8D
99
B1
B1
E1
C1
C1
ENDCHAR
STARTCHAR uni043A
ENCODING 1082
SWIDTH 600 0
DWIDTH 12 0
BBX 9 11 2 0
BITMAP
8180
8300
8600
8C00
9800
F800
9800
8C00
8600
8300
8180
ENDCHAR
STARTCHAR uni043B
ENCODING 1083
SWIDTH 600 0
DWIDTH 12 0
BBX 9 11 1 0
BITMAP
3F80
3080
3080
3080
3080
3080
3080
2080
6080
E080
C080
ENDCHAR
STARTCHAR uni043C
ENCODING 1084
SWIDTH 600 0
DWIDTH 12 0
BBX 9 11 1 0
BITMAP
E180
E180
E380
F380
F380
D280
D680
DE80
CC80
CC80
CC80
ENDCHAR
STARTCHAR uni043D
ENCODING 1085
SWIDTH 600 0
DWIDTH 12 0
BBX 8 11 2 0
BITMAP
81
81
81
81
81
FF
81
81
81
81
81
ENDCHAR
STARTCHAR uni043E
ENCODING 1086
SWIDTH 600 0
DWIDTH 12 0
BBX 10 11 1 0
BITMAP
1E00
3F00
6180
C0C0
C0C0
C0C0
C0C0
C0C0
6180
3F00
1E00
ENDCHAR
STARTCHAR uni043F
ENCODING 1087
SWIDTH 600 0
DWIDTH 12 0
BBX 8 11 2 0
BITMAP
FF
81
81
81
81
81
81
81
81
81
81
ENDCHAR
STARTCHAR uni0440
ENCODING 1088
SWIDTH 600 0
DWIDTH 12 0
BBX 9 15 2 -4
BITMAP
BC00
FF00
C300
C100
C180
C180
C180
C100
C300
FE00
FC00
C000
C000
C000
C000
ENDCHAR
STARTCHAR uni0441
ENCODING 1089
SWIDTH 600 0
DWIDTH 12 0
BBX 10 11 1 0
BITMAP
1E00
3F80
6180
40C0
C000
C000
C000
40C0
6180
3F80
1E00
ENDCHAR
STARTCHAR uni0442
ENCODING 1090
SWIDTH 600 0
DWIDTH 12 0
BBX 10 11 1 0
BITMAP
FFC0
FC00
0C00
0C00
0C00
0C00
0C00
0C00
0C00
0C00
0C00
ENDCHAR
STARTCHAR uni0443
ENCODING 1091
SWIDTH 600 0
DWIDTH 12 0
BBX 10 15 1 -4
BITMAP
C0C0
C0C0
6180
6180
3100
3300
1200
1E00
1E00
0C00
0C00
0800
1800
7000
E000
ENDCHAR
STARTCHAR uni0444
ENCODING 1092
SWIDTH 600 0
DWIDTH 12 0
BBX 10 20 1 -4
BITMAP
0C00
0C00
0C00
0C00
0C00
1E00
7F80
6D80
CCC0
CCC0
CCC0
CCC0
CCC0
6D80
7F80
1E00
0C00
0C00
0C00
0C00
ENDCHAR
STARTCHAR uni0445
ENCODING 1093
SWIDTH 600 0
DWIDTH 12 0
BBX 10 11 1 0
BITMAP
E0C0
6180
3300
1E00
1E00
0C00
1E00
1B00
3300
6180
E0C0
ENDCHAR
STARTCHAR uni0446
ENCODING 1094
SWIDTH 600 0
DWIDTH 12 0
BBX 9 14 2 -3
BITMAP
8300
8300
8300
8300
8300
8300
8300
8300
8300
8380
FF80
0080
0080
0080
ENDCHAR
STARTCHAR uni0447
ENCODING 1095
SWIDTH 600 0
DWIDTH 12 0
BBX 9 11 1 0
BITMAP
C080
C080
C080
C080
C080
6080
3F80
0880
0080
0080
0080
ENDCHAR
STARTCHAR uni0448
ENCODING 1096
SWIDTH 600 0
DWIDTH 12 0
BBX 10 11 1 0
BITMAP
CCC0
CCC0
CCC0
CCC0
CCC0
CCC0
CCC0
CCC0
CCC0
CCC0
FFC0
ENDCHAR
STARTCHAR uni0449
ENCODING 1097
SWIDTH 600 0
DWIDTH 12 0
BBX 10 14 1 -3
BITMAP
CCC0
CCC0
CCC0
CCC0
CCC0
CCC0
CCC0
CCC0
CCC0
CCC0
FFC0
0040
0040
0040
ENDCHAR
STARTCHAR uni044A
ENCODING 1098
SWIDTH 600 0
DWIDTH 12 0
BBX 10 11 1 0
BITMAP
F000
F000
3000
3000
3C00
3F80
30C0
30C0
30C0
33C0
3F00
ENDCHAR
STARTCHAR uni044B
ENCODING 1099
SWIDTH 600 0
DWIDTH 12 0
BBX 10 11 1 0
BITMAP
C0C0
C0C0
C0C0
C0C0
E0C0
FCC0
CCC0
C6C0
C6C0
DCC0
F8C0
ENDCHAR
STARTCHAR uni044C
ENCODING 1100
SWIDTH 600 0
DWIDTH 12 0
BBX 9 11 2 0
BITMAP
8000
8000
8000
8000
F800
FF00
8300
8180
8180
8700
FE00
ENDCHAR
STARTCHAR uni044D
ENCODING 1101
SWIDTH 600 0
DWIDTH 12 0
BBX 10 11 1 0
BITMAP
3E00
7F00
C180
0180
00C0
0FC0
00C0
C180
4180
7F00
3E00
ENDCHAR
STARTCHAR uni044E
ENCODING 1102
SWIDTH 600 0
DWIDTH 12 0
BBX 10 11 1 0
BITMAP
C700
CF80
C8C0
D8C0
D8C0
F8C0
D8C0
D8C0
C8C0
CF80
C700
ENDCHAR
STARTCHAR uni044F
ENCODING 1103
SWIDTH 600 0
DWIDTH 12 0
BBX 9 11 1 0
BITMAP
3F80
7080
C080
C080
C080
7080
3F80
3080
6080
6080
C080
ENDCHAR
STARTCHAR uni0450
ENCODING 1104
SWIDTH 600 0
DWIDTH 12 0
BBX 10 15 1 0
BITMAP
3800
0800
0400
0000
1E00
3F80
6180
4080
C0C0
FFC0
C000
4000
60C0
3F80
1F00
ENDCHAR
STARTCHAR uni0451
ENCODING 1105
SWIDTH 600 0
DWIDTH 12 0
BBX 10 15 1 0
BITMAP
3300
2100
0000
0000
1E00
3F80
6180
4080
C0C0
FFC0
C000
4000
60C0
3F80
1F00
ENDCHAR
STARTCHAR uni0452
ENCODING 1106
SWIDTH 600 0
DWIDTH 12 0
BBX 10 19 0 -4
BITMAP
2000
FC00
E000
2000
2780
2FC0
30C0
2040
2040
2040
2040
2040
2040
2040
2040
0040
00C0
03C0
0380
ENDCHAR
STARTCHAR uni0453
ENCODING 1107
SWIDTH 600 0
DWIDTH 12 0
BBX 8 15 2 0
BITMAP
0E
08
10
00
FF
C0
C0
C0
C0
C0
C0
C0
C0
C0
C0
ENDCHAR
STARTCHAR uni0454
ENCODING 1108
SWIDTH 600 0
DWIDTH 12 0
BBX 10 11 1 0
BITMAP
1E00
3F80
6180
40C0
FC00
FC00
C000
60C0
6180
3F80
1E00
ENDCHAR
STARTCHAR uni0455
ENCODING 1109
SWIDTH 600 0
DWIDTH 12 0
BBX 9 11 2 0
BITMAP
3E00
7F00
C300
C000
6000
3E00
0700
C180
C100
FF00
3E00
ENDCHAR
STARTCHAR uni0456
ENCODING 1110
SWIDTH 600 0
DWIDTH 12 0
BBX 9 15 2 0
BITMAP
1800
1C00
0000
0000
F800
F800
0800
0800
0800
0800
0800
0800
0800
0F80
FF80
ENDCHAR
STARTCHAR uni0457
ENCODING 1111
SWIDTH 600 0
DWIDTH 12 0
BBX 9 15 2 0
BITMAP
3300
2100
0000
0000
F800
F800
0800
0800
0800
0800
0800
0800
0800
0F80
FF80
ENDCHAR
STARTCHAR uni0458
ENCODING 1112
SWIDTH 600 0
DWIDTH 12 0
BBX 6 19 2 -4
BITMAP
0C
0C
00
00
7C
7C
0C
0C
0C
0C
0C
0C
0C
0C
0C
0C
0C
BC
F0
ENDCHAR
STARTCHAR uni0459
ENCODING 1113
SWIDTH 600 0
DWIDTH 12 0
BBX 12 11 0 0
BITMAP
3F00
3300
3300
3300
3300
33E0
3370
3330
3330
63E0
C3C0
ENDCHAR
STARTCHAR uni045A
ENCODING 1114
SWIDTH 600 0
DWIDTH 12 0
BBX 10 11 1 0
BITMAP
C400
C400
C400
C400
C600
FFC0
C4C0
C440
C4C0
C5C0
C780
ENDCHAR
STARTCHAR uni045B
ENCODING 1115
SWIDTH 600 0
DWIDTH 12 0
BBX 10 15 0 0
BITMAP
3000
3E00
FE00
3000
3780
3FC0
30C0
3040
3040
3040
3040
3040
3040
3040
3040
ENDCHAR
STARTCHAR uni045C
ENCODING 1116
SWIDTH 600 0
DWIDTH 12 0
BBX 9 15 2 0
BITMAP
1C00
1000
2000
0000
8180
8300
8600
8C00
9800
F800
9800
8C00
8600
8300
8180
ENDCHAR
STARTCHAR uni045D
ENCODING 1117
SWIDTH 600 0
DWIDTH 12 0
BBX 8 15 2 0
BITMAP
70
10
08
00
83
83
87
8D
8D
99
B1
B1
E1
C1
C1
ENDCHAR
STARTCHAR uni045E
ENCODING 1118
SWIDTH 600 0
DWIDTH 12 0
BBX 10 20 1 -4
BITMAP
3300
3F00
1E00
0000
0000
C0C0
C0C0
6180
6180
3100
3300
1200
1E00
1E00
0C00
0C00
0800
1800
7000
E000
ENDCHAR
STARTCHAR uni045F
ENCODING 1119
SWIDTH 600 0
DWIDTH 12 0
BBX 8 14 2 -3
BITMAP
81
81
81
81
81
81
81
81
81
81
FF
18
18
18
ENDCHAR
STARTCHAR uni0460
ENCODING 1120
SWIDTH 600 0
DWIDTH 12 0
BBX 10 15 1 0
BITMAP
CCC0
CCC0
CCC0
CCC0
CCC0
CCC0
CCC0
CCC0
CCC0
CCC0
CCC0
CCC0
CCC0
FFC0
7380
ENDCHAR
STARTCHAR uni0461
ENCODING 1121
SWIDTH 600 0
DWIDTH 12 0
BBX 10 11 1 0
BITMAP
CCC0
CCC0
CCC0
CCC0
CCC0
CCC0
CCC0
CCC0
CCC0
FFC0
7380
ENDCHAR
STARTCHAR uni0462
ENCODING 1122
SWIDTH 600 0
DWIDTH 12 0
BBX 11 15 0 0
BITMAP
2000
2000
3C00
FC00
2000
2000
3C00
3F80
20C0
2060
2060
2060
20C0
23C0
3F80
ENDCHAR
STARTCHAR uni0463
ENCODING 1123
SWIDTH 600 0
DWIDTH 12 0
BBX 11 16 0 0
BITMAP
3000
3000
3000
3000
FE00
F000
3000
3000
3000
3E00
3FC0
30C0
3060
3060
31C0
3F80
ENDCHAR
STARTCHAR uni0464
ENCODING 1124
SWIDTH 600 0
DWIDTH 12 0
BBX 10 15 1 0
BITMAP
C780
CFC0
CCC0
C840
C800
D800
DF00
FF00
D800
D800
C800
C840
CCC0
CFC0
C780
ENDCHAR
STARTCHAR uni0465
ENCODING 1125
SWIDTH 600 0
DWIDTH 12 0
BBX 9 11 2 0
BITMAP
8700
8F80
9980
9800
9E00
FE00
9800
9800
9980
8F80
8700
ENDCHAR
STARTCHAR uni0466
ENCODING 1126
SWIDTH 600 0
DWIDTH 12 0
BBX 12 15 0 0
BITMAP
0600
0600
0700
0F00
0D00
0980
1980
1880
10C0
3FC0
36C0
2660
6660
6660
C630
ENDCHAR
STARTCHAR uni0467
ENCODING 1127
SWIDTH 600 0
DWIDTH 12 0
BBX 10 11 1 0
BITMAP
0C00
0C00
1E00
1E00
3300
3300
2100
7F80
6D80
CCC0
CCC0
ENDCHAR
STARTCHAR uni0468
ENCODING 1128
SWIDTH 600 0
DWIDTH 12 0
BBX 11 15 1 0
BITMAP
C300
C300
C700
C700
C780
C580
C580
CD80
CC80
FFC0
FFC0
DAC0
DAC0
DA60
F260
ENDCHAR
STARTCHAR uni0469
ENCODING 1129
SWIDTH 600 0
DWIDTH 12 0
BBX 11 11 1 0
BITMAP
C300
C300
C700
C780
C580
CD80
CC80
FFC0
DAC0
DA40
F260
ENDCHAR
STARTCHAR uni046A
ENCODING 1130
SWIDTH 600 0
DWIDTH 12 0
BBX 10 15 1 0
BITMAP
FFC0
6180
6180
3300
3300
1E00
1E00
7F80
EDC0
CCC0
CCC0
CCC0
CCC0
CCC0
CCC0
ENDCHAR
STARTCHAR uni046B
ENCODING 1131
SWIDTH 600 0
DWIDTH 12 0
BBX 10 11 1 0
BITMAP
FFC0
6180
3300
3300
1E00
7F80
EF80
CCC0
CCC0
CCC0
CCC0
ENDCHAR
STARTCHAR uni046C
ENCODING 1132
SWIDTH 600 0
DWIDTH 12 0
BBX 10 15 1 0
BITMAP
9FC0
98C0
8C80
8D80
8D80
8700
8700
FF80
9AC0
9240
9240
9240
9240
9240
9240
ENDCHAR
STARTCHAR uni046D
ENCODING 1133
SWIDTH 600 0
DWIDTH 12 0
BBX 10 11 1 0
BITMAP
9FC0
88C0
8D80
8D80
8700
FF80
9BC0
9240
9240
9240
9240
ENDCHAR
STARTCHAR uni046E
ENCODING 1134
SWIDTH 600 0
DWIDTH 12 0
BBX 8 23 2 -4
BITMAP
66
38
10
00
FC
FE
03
03
03
03
1E
3C
07
03
01
03
03
0E
FC
C0
C0
C0
60
ENDCHAR
STARTCHAR uni046F
ENCODING 1135
SWIDTH 600 0
DWIDTH 12 0
BBX 8 20 2 -4
BITMAP
66
3C
18
00
00
7C
7E
03
03
1E
3E
03
03
03
0F
7C
C0
C0
60
20
ENDCHAR
STARTCHAR uni0470
ENCODING 1136
SWIDTH 600 0
DWIDTH 12 0
BBX 10 15 1 0
BITMAP
CCC0
CCC0
CCC0
CCC0
CCC0
CCC0
CCC0
CCC0
CCC0
6D80
3F80
1E00
0C00
0C00
0C00
ENDCHAR
STARTCHAR uni0471
ENCODING 1137
SWIDTH 600 0
DWIDTH 12 0
BBX 10 15 1 -4
BITMAP
CCC0
CCC0
CCC0
CCC0
CCC0
CCC0
CCC0
CCC0
6D80
3F80
0C00
0C00
0C00
0C00
0C00
ENDCHAR
STARTCHAR uni0472
ENCODING 1138
SWIDTH 600 0
DWIDTH 12 0
BBX 10 15 1 0
BITMAP
1E00
3F00
6180
C080
C0C0
C0C0
C0C0
FFC0
C0C0
C0C0
C0C0
4080
6180
3F00
1E00
ENDCHAR
STARTCHAR uni0473
ENCODING 1139
SWIDTH 600 0
DWIDTH 12 0
BBX 10 11 1 0
BITMAP
1E00
7F00
6180
C180
C080
FFC0
C080
C180
6180
7F00
1E00
ENDCHAR
STARTCHAR uni0474
ENCODING 1140
SWIDTH 600 0
DWIDTH 12 0
BBX 12 15 0 0
BITMAP
C030
6070
6060
6040
30C0
30C0
30C0
1980
1980
1980
0900
0F00
0F00
0600
0600
ENDCHAR
STARTCHAR uni0475
ENCODING 1141
SWIDTH 600 0
DWIDTH 12 0
BBX 10 11 1 0
BITMAP
C0C0
C1C0
4300
6300
6300
2600
3600
1400
1400
1C00
0800
ENDCHAR
STARTCHAR uni0476
ENCODING 1142
SWIDTH 600 0
DWIDTH 12 0
BBX 12 18 0 0
BITMAP
7E00
1A00
0F00
C030
6070
6060
6040
30C0
30C0
30C0
1980
1980
1980
0900
0F00
0F00
0600
0600
ENDCHAR
STARTCHAR uni0477
ENCODING 1143
SWIDTH 600 0
DWIDTH 12 0
BBX 11 15 0 0
BITMAP
FC00
3400
1E00
0000
6060
60E0
2180
3180
3180
1300
1B00
0A00
0A00
0E00
0400
ENDCHAR
STARTCHAR uni0478
ENCODING 1144
SWIDTH 600 0
DWIDTH 12 0
BBX 11 19 1 -4
BITMAP
7000
F800
D800
9800
8B60
8B60
8B40
8B40
8BC0
89C0
89C0
9980
D980
F980
7180
0180
0100
0700
0600
ENDCHAR
STARTCHAR uni0479
ENCODING 1145
SWIDTH 600 0
DWIDTH 12 0
BBX 11 15 1 -4
BITMAP
7360
FB60
CB40
8F40
8FC0
8DC0
8DC0
8D80
C980
F980
7180
0180
0100
0700
0600
ENDCHAR
STARTCHAR uni047A
ENCODING 1146
SWIDTH 600 0
DWIDTH 12 0
BBX 10 17 1 -1
BITMAP
0C00
1E00
3F00
6D80
4080
C0C0
C0C0
C0C0
C0C0
C0C0
C0C0
C0C0
4080
6D80
3F00
1E00
0C00
ENDCHAR
STARTCHAR uni047B
ENCODING 1147
SWIDTH 600 0
DWIDTH 12 0
BBX 10 14 1 -1
BITMAP
0C00
0C00
1E00
3F00
6D80
C0C0
C0C0
C0C0
C0C0
C0C0
6D80
3F00
1E00
0C00
ENDCHAR
STARTCHAR uni047C
ENCODING 1148
SWIDTH 600 0
DWIDTH 12 0
BBX 10 19 1 0
BITMAP
1C00
3F80
2380
0400
6D80
E1C0
C0C0
C0C0
C0C0
C0C0
CCC0
CCC0
CCC0
CCC0
CCC0
CCC0
CCC0
FFC0
7380
ENDCHAR
STARTCHAR uni047D
ENCODING 1149
SWIDTH 600 0
DWIDTH 12 0
BBX 10 15 1 0
BITMAP
1C00
3F80
2480
0400
6D80
61C0
C0C0
C0C0
C0C0
CCC0
CCC0
CCC0
CCC0
FFC0
7380
ENDCHAR
STARTCHAR uni047E
ENCODING 1150
SWIDTH 600 0
DWIDTH 12 0
BBX 10 19 1 0
BITMAP
3F80
3F80
0C00
0000
CCC0
CCC0
CCC0
CCC0
CCC0
CCC0
CCC0
CCC0
CCC0
CCC0
CCC0
CCC0
CCC0
7FC0
7B80
ENDCHAR
STARTCHAR uni047F
ENCODING 1151
SWIDTH 600 0
DWIDTH 12 0
BBX 10 15 1 0
BITMAP
3F80
3C00
0C00
0000
CCC0
CCC0
CCC0
CCC0
CCC0
CCC0
CCC0
CCC0
CCC0
FFC0
7380
ENDCHAR
STARTCHAR uni0480
ENCODING 1152
SWIDTH 600 0
DWIDTH 12 0
BBX 10 19 1 -4
BITMAP
1F00
3F80
6180
60C0
40C0
4000
C000
C000
C000
C000
4000
6000
6000
3000
1E00
0600
0600
0600
0600
ENDCHAR
STARTCHAR uni0481
ENCODING 1153
SWIDTH 600 0
DWIDTH 12 0
BBX 9 15 2 -4
BITMAP
3E00
7F00
6300
C180
C000
C000
C000
C000
C000
6000
3800
0800
0800
0800
0800
ENDCHAR
STARTCHAR uni0482
ENCODING 1154
SWIDTH 600 0
DWIDTH 12 0
BBX 10 14 1 0
BITMAP
00C0
0080
1180
1D00
0700
0780
06C0
4C40
E800
3800
1C00
3700
2100
6000
ENDCHAR
STARTCHAR uni0483
ENCODING 1155
SWIDTH 0 0
DWIDTH 0 0
BBX 7 3 2 13
BITMAP
06
FE
C0
ENDCHAR
STARTCHAR uni0484
ENCODING 1156
SWIDTH 0 0
DWIDTH 0 0
BBX 8 2 2 14
BITMAP
1E
FF
ENDCHAR
STARTCHAR uni0485
ENCODING 1157
SWIDTH 0 0
DWIDTH 0 0
BBX 3 3 4 13
BITMAP
C0
40
60
ENDCHAR
STARTCHAR uni0486
ENCODING 1158
SWIDTH 0 0
DWIDTH 0 0
BBX 2 3 6 13
BITMAP
C0
C0
80
ENDCHAR
STARTCHAR uni0488
ENCODING 1160
SWIDTH 0 0
DWIDTH 0 0
BBX 19 18 -3 -3
BITMAP
00E000
00F000
080100
3C0380
240680
000000
000000
200040
7000E0
900120
000000
000000
000000
180380
3C0780
004000
00E000
009000
ENDCHAR
STARTCHAR uni0489
ENCODING 1161
SWIDTH 0 0
DWIDTH 0 0
BBX 18 19 1 -4
BITMAP
004000
00C000
008000
308100
100700
180C00
080000
000000
000000
E00180
200040
000000
000000
080400
180400
20C200
008200
008000
008000
ENDCHAR
STARTCHAR uni048A
ENCODING 1162
SWIDTH 600 0
DWIDTH 12 0
BBX 10 23 2 -4
BITMAP
6600
7E00
3C00
0000
8300
8300
8700
8700
8D00
8D00
8900
9900
9100
B100
B100
E100
E100
C1C0
C1C0
00C0
00C0
0180
0080
ENDCHAR
STARTCHAR uni048B
ENCODING 1163
SWIDTH 600 0
DWIDTH 12 0
BBX 10 20 2 -4
BITMAP
6600
7E00
3C00
0000
0000
8300
8300
8700
8D00
8D00
9900
B100
B100
E100
C1C0
C1C0
00C0
00C0
0180
0080
ENDCHAR
STARTCHAR uni048C
ENCODING 1164
SWIDTH 600 0
DWIDTH 12 0
BBX 11 15 0 0
BITMAP
2000
2000
3C00
FC00
2000
2000
3C00
3F80
20C0
2060
2060
2060
20C0
23C0
3F80
ENDCHAR
STARTCHAR uni048D
ENCODING 1165
SWIDTH 600 0
DWIDTH 12 0
BBX 11 11 0 0
BITMAP
2000
3C00
FC00
2000
3E00
3FC0
20C0
2060
2060
21C0
3F80
ENDCHAR
STARTCHAR uni048E
ENCODING 1166
SWIDTH 600 0
DWIDTH 12 0
BBX 9 15 2 0
BITMAP
FE00
CF00
C180
C180
C180
C980
CD80
CF00
FE00
C300
C100
C000
C000
C000
C000
ENDCHAR
STARTCHAR uni048F
ENCODING 1167
SWIDTH 600 0
DWIDTH 12 0
BBX 9 15 2 -4
BITMAP
BC00
FF00
C300
C100
C180
C180
C180
C900
CF00
FE00
FF80
C100
C000
C000
C000
ENDCHAR
STARTCHAR uni0490
ENCODING 1168
SWIDTH 600 0
DWIDTH 12 0
BBX 9 18 2 0
BITMAP
0180
0180
0180
FF80
C000
C000
C000
C000
C000
C000
C000
C000
C000
C000
C000
C000
C000
C000
ENDCHAR
STARTCHAR uni0491
ENCODING 1169
SWIDTH 600 0
DWIDTH 12 0
BBX 8 14 2 0
BITMAP
01
01
01
FF
C0
C0
C0
C0
C0
C0
C0
C0
C0
C0
ENDCHAR
STARTCHAR uni0492
ENCODING 1170
SWIDTH 600 0
DWIDTH 12 0
BBX 10 15 0 0
BITMAP
3FC0
3000
3000
3000
3000
3000
3C00
FC00
3000
3000
3000
3000
3000
3000
3000
ENDCHAR
STARTCHAR uni0493
ENCODING 1171
SWIDTH 600 0
DWIDTH 12 0
BBX 10 11 0 0
BITMAP
3FC0
3000
3000
3000
3C00
FC00
3000
3000
3000
3000
3000
ENDCHAR
STARTCHAR uni0494
ENCODING 1172
SWIDTH 600 0
DWIDTH 12 0
BBX 9 18 2 -3
BITMAP
FF80
C000
C000
C000
C000
C000
C000
FC00
DF00
C300
C180
C180
C180
C180
C180
0180
0700
0600
ENDCHAR
STARTCHAR uni0495
ENCODING 1173
SWIDTH 600 0
DWIDTH 12 0
BBX 9 14 2 -3
BITMAP
FF00
C000
C000
C000
F000
FE00
C300
C180
C180
C180
C180
0300
0600
0400
ENDCHAR
STARTCHAR uni0496
ENCODING 1174
SWIDTH 600 0
DWIDTH 12 0
BBX 13 19 0 -4
BITMAP
6660
6660
6660
36C0
36C0
36C0
1680
1F80
1F80
36C0
36C0
36C0
6660
6660
E678
0018
0018
0018
0018
ENDCHAR
STARTCHAR uni0497
ENCODING 1175
SWIDTH 600 0
DWIDTH 12 0
BBX 12 15 0 -4
BITMAP
6660
6660
36C0
36C0
1680
1F80
1780
36C0
36C0
6660
E670
0030
0030
0030
0030
ENDCHAR
STARTCHAR uni0498
ENCODING 1176
SWIDTH 600 0
DWIDTH 12 0
BBX 10 20 1 -5
BITMAP
3F00
7F80
C0C0
C0C0
00C0
00C0
0780
1F00
0180
00C0
00C0
C0C0
C0C0
7F80
3F00
0C00
0C00
0C00
0C00
0C00
ENDCHAR
STARTCHAR uni0499
ENCODING 1177
SWIDTH 600 0
DWIDTH 12 0
BBX 10 16 1 -5
BITMAP
3F00
7F80
C0C0
0080
0780
1F00
0180
00C0
C0C0
7F80
3F00
0C00
0C00
0C00
0C00
0C00
ENDCHAR
STARTCHAR uni049A
ENCODING 1178
SWIDTH 600 0
DWIDTH 12 0
BBX 10 19 2 -4
BITMAP
8180
8300
8300
8600
8600
8C00
9800
F800
9800
8C00
8E00
8600
8300
8180
81C0
00C0
00C0
00C0
00C0
ENDCHAR
STARTCHAR uni049B
ENCODING 1179
SWIDTH 600 0
DWIDTH 12 0
BBX 10 15 2 -4
BITMAP
8180
8300
8600
8C00
9800
F800
9800
8C00
8600
8300
81C0
00C0
00C0
00C0
00C0
ENDCHAR
STARTCHAR uni049C
ENCODING 1180
SWIDTH 600 0
DWIDTH 12 0
BBX 10 15 2 0
BITMAP
C180
C180
C300
C300
F300
F600
F600
FC00
FE00
F600
F700
C300
C380
C180
C1C0
ENDCHAR
STARTCHAR uni049D
ENCODING 1181
SWIDTH 600 0
DWIDTH 12 0
BBX 9 11 2 0
BITMAP
8380
8300
8600
B600
BC00
FC00
BC00
B600
B700
8300
8180
ENDCHAR
STARTCHAR uni049E
ENCODING 1182
SWIDTH 609 0
DWIDTH 12 0
BBX 12 15 0 0
BITMAP
3070
3060
FCC0
F180
3180
3300
3600
3E00
3600
3300
3180
3180
30C0
3060
3070
ENDCHAR
STARTCHAR uni049F
ENCODING 1183
SWIDTH 609 0
DWIDTH 12 0
BBX 11 15 0 0
BITMAP
3000
3C00
FC00
3000
30E0
3180
3300
3600
3C00
3E00
3300
3380
3180
30C0
3060
ENDCHAR
STARTCHAR uni04A0
ENCODING 1184
SWIDTH 600 0
DWIDTH 12 0
BBX 12 15 0 0
BITMAP
F860
F860
08C0
08C0
0980
0980
0980
0F00
0B00
0980
0980
08C0
08C0
0860
0870
ENDCHAR
STARTCHAR uni04A1
ENCODING 1185
SWIDTH 600 0
DWIDTH 12 0
BBX 11 11 1 0
BITMAP
F8C0
F9C0
1980
1B00
1B00
1E00
1B00
1B00
1980
18C0
18E0
ENDCHAR
STARTCHAR uni04A2
ENCODING 1186
SWIDTH 600 0
DWIDTH 12 0
BBX 11 19 1 -4
BITMAP
C0C0
C0C0
C0C0
C0C0
C0C0
C0C0
C0C0
FFC0
C0C0
C0C0
C0C0
C0C0
C0C0
C0C0
C0E0
0060
0060
0060
0060
ENDCHAR
STARTCHAR uni04A3
ENCODING 1187
SWIDTH 600 0
DWIDTH 12 0
BBX 10 15 2 -4
BITMAP
8100
8100
8100
8100
8100
FF00
8100
8100
8100
8100
81C0
00C0
00C0
00C0
00C0
ENDCHAR
STARTCHAR uni04A4
ENCODING 1188
SWIDTH 600 0
DWIDTH 12 0
BBX 11 15 1 0
BITMAP
C3E0
C200
C200
C200
C200
C200
C200
FE00
C200
C200
C200
C200
C200
C200
C200
ENDCHAR
STARTCHAR uni04A5
ENCODING 1189
SWIDTH 600 0
DWIDTH 12 0
BBX 11 11 1 0
BITMAP
C3E0
C200
C200
C200
C200
FE00
C200
C200
C200
C200
C200
ENDCHAR
STARTCHAR uni04A6
ENCODING 1190
SWIDTH 600 0
DWIDTH 12 0
BBX 11 18 1 -3
BITMAP
FC00
CC00
CC00
CC00
CC00
CC00
CC00
CF00
CF80
CCC0
CCC0
CC40
CC60
CC40
CC40
00C0
01C0
0180
ENDCHAR
STARTCHAR uni04A7
ENCODING 1191
SWIDTH 600 0
DWIDTH 12 0
BBX 10 14 1 -3
BITMAP
FC00
CC00
CC00
CC00
CC00
CF80
CDC0
CCC0
CCC0
CCC0
CCC0
00C0
0380
0100
ENDCHAR
STARTCHAR uni04A8
ENCODING 1192
SWIDTH 600 0
DWIDTH 12 0
BBX 10 15 1 0
BITMAP
2700
6F80
4C80
CCC0
C8C0
C8C0
C8C0
C8C0
C8C0
C8C0
CC80
CD80
6780
3FC0
1FC0
ENDCHAR
STARTCHAR uni04A9
ENCODING 1193
SWIDTH 600 0
DWIDTH 12 0
BBX 10 11 1 0
BITMAP
2700
6F80
CCC0
CCC0
CCC0
CCC0
CCC0
CCC0
6780
7FC0
1FC0
ENDCHAR
STARTCHAR uni04AA
ENCODING 1194
SWIDTH 600 0
DWIDTH 12 0
BBX 10 20 1 -5
BITMAP
1E00
3F80
6180
40C0
C0C0
C000
C000
C000
C000
C000
C0C0
40C0
6180
3F80
1E00
0C00
0C00
0C00
0C00
0C00
ENDCHAR
STARTCHAR uni04AB
ENCODING 1195
SWIDTH 600 0
DWIDTH 12 0
BBX 10 16 1 -5
BITMAP
1E00
3F80
6180
40C0
C000
C000
C000
40C0
6180
3F80
1E00
0C00
0C00
0C00
0C00
0C00
ENDCHAR
STARTCHAR uni04AC
ENCODING 1196
SWIDTH 600 0
DWIDTH 12 0
BBX 10 19 1 -4
BITMAP
FFC0
FC00
0C00
0C00
0C00
0C00
0C00
0C00
0C00
0C00
0C00
0C00
0C00
0C00
0E00
0600
0600
0600
0600
ENDCHAR
STARTCHAR uni04AD
ENCODING 1197
SWIDTH 600 0
DWIDTH 12 0
BBX 10 15 1 -4
BITMAP
FFC0
FC00
0C00
0C00
0C00
0C00
0C00
0C00
0C00
0C00
0E00
0600
0600
0600
0600
ENDCHAR
STARTCHAR uni04AE
ENCODING 1198
SWIDTH 600 0
DWIDTH 12 0
BBX 10 15 1 0
BITMAP
C0C0
C180
6180
6180
3300
3300
1E00
1E00
0C00
0C00
0C00
0C00
0C00
0C00
0C00
ENDCHAR
STARTCHAR uni04AF
ENCODING 1199
SWIDTH 600 0
DWIDTH 12 0
BBX 10 15 1 -4
BITMAP
C0C0
C0C0
6080
6180
2180
3300
1300
1A00
1E00
0C00
0C00
0C00
0C00
0C00
0C00
ENDCHAR
STARTCHAR uni04B0
ENCODING 1200
SWIDTH 600 0
DWIDTH 12 0
BBX 10 15 1 0
BITMAP
C0C0
C180
6180
6180
3300
3300
1600
1E00
3F00
3C00
0C00
0C00
0C00
0C00
0C00
ENDCHAR
STARTCHAR uni04B1
ENCODING 1201
SWIDTH 600 0
DWIDTH 12 0
BBX 10 15 1 -4
BITMAP
C0C0
C0C0
6080
6180
2180
3300
3300
1A00
1E00
0F00
3F00
0C00
0C00
0C00
0C00
ENDCHAR
STARTCHAR uni04B2
ENCODING 1202
SWIDTH 600 0
DWIDTH 12 0
BBX 11 19 1 -4
BITMAP
C0C0
6180
6180
3300
3B00
1E00
0E00
0C00
0E00
1E00
3300
3300
6180
61C0
C0E0
0060
0060
0060
0060
ENDCHAR
STARTCHAR uni04B3
ENCODING 1203
SWIDTH 600 0
DWIDTH 12 0
BBX 10 15 1 -4
BITMAP
E0C0
6180
3300
1E00
1E00
0C00
1E00
1B00
3300
6180
E0C0
00C0
00C0
00C0
00C0
ENDCHAR
STARTCHAR uni04B4
ENCODING 1204
SWIDTH 600 0
DWIDTH 12 0
BBX 11 18 1 -3
BITMAP
FC80
F080
3080
3080
3080
3080
3080
3080
3080
3080
3080
3080
3080
30E0
3FE0
0060
0060
0060
ENDCHAR
STARTCHAR uni04B5
ENCODING 1205
SWIDTH 600 0
DWIDTH 12 0
BBX 10 14 1 -3
BITMAP
FD80
F180
3180
3180
3180
3180
3180
3180
3180
31C0
3FC0
0040
0040
0040
ENDCHAR
STARTCHAR uni04B6
ENCODING 1206
SWIDTH 600 0
DWIDTH 12 0
BBX 10 19 2 -4
BITMAP
8100
8100
8100
8100
8100
C100
C100
C300
7F00
1100
0100
0100
0100
0100
01C0
00C0
00C0
00C0
00C0
ENDCHAR
STARTCHAR uni04B7
ENCODING 1207
SWIDTH 600 0
DWIDTH 12 0
BBX 11 15 1 -4
BITMAP
C080
C080
C080
C080
C080
6080
3F80
0880
0080
0080
00E0
0060
0060
0060
0060
ENDCHAR
STARTCHAR uni04B8
ENCODING 1208
SWIDTH 600 0
DWIDTH 12 0
BBX 8 15 2 0
BITMAP
81
81
81
81
81
D9
D9
DB
7F
19
19
19
01
01
01
ENDCHAR
STARTCHAR uni04B9
ENCODING 1209
SWIDTH 600 0
DWIDTH 12 0
BBX 9 11 1 0
BITMAP
C080
C080
C080
CC80
4C80
6C80
3F80
0C80
0C80
0080
0080
ENDCHAR
STARTCHAR uni04BA
ENCODING 1210
SWIDTH 600 0
DWIDTH 12 0
BBX 9 15 2 0
BITMAP
C000
C000
C000
C000
C000
C000
FE00
FF00
C180
C180
C180
C180
C180
C180
C180
ENDCHAR
STARTCHAR uni04BB
ENCODING 1211
SWIDTH 600 0
DWIDTH 12 0
BBX 8 15 2 0
BITMAP
C0
C0
C0
C0
DE
FF
C3
C1
C1
C1
C1
C1
C1
C1
C1
ENDCHAR
STARTCHAR uni04BC
ENCODING 1212
SWIDTH 600 0
DWIDTH 12 0
BBX 11 15 0 0
BITMAP
0780
0FC0
0C60
1860
D860
5820
7820
3FE0
1800
1800
1800
1800
0C00
0FE0
03C0
ENDCHAR
STARTCHAR uni04BD
ENCODING 1213
SWIDTH 600 0
DWIDTH 12 0
BBX 11 11 0 0
BITMAP
0780
0FC0
C860
D860
7860
3FE0
1800
1800
1820
0FE0
07C0
ENDCHAR
STARTCHAR uni04BE
ENCODING 1214
SWIDTH 600 0
DWIDTH 12 0
BBX 11 20 0 -5
BITMAP
0780
0FC0
0C60
1860
D860
5820
7820
3FE0
1800
1800
1800
1800
0C00
0FE0
03C0
0180
0180
0180
0180
0180
ENDCHAR
STARTCHAR uni04BF
ENCODING 1215
SWIDTH 600 0
DWIDTH 12 0
BBX 11 16 0 -5
BITMAP
0780
0FC0
C860
D860
7860
3FE0
1800
1800
1820
0FE0
07C0
0180
0180
0180
0180
0180
ENDCHAR
STARTCHAR uni04C0
ENCODING 1216
SWIDTH 600 0
DWIDTH 12 0
BBX 8 15 2 0
BITMAP
FF
F8
18
18
18
18
18
18
18
18
18
18
18
1F
FF
ENDCHAR
STARTCHAR uni04C1
ENCODING 1217
SWIDTH 600 0
DWIDTH 12 0
BBX 12 19 0 0
BITMAP
1980
1F80
0F00
0000
6660
6660
6660
36C0
36C0
36C0
1680
1F80
1F80
36C0
36C0
36C0
6660
6660
E670
ENDCHAR
STARTCHAR uni04C2
ENCODING 1218
SWIDTH 600 0
DWIDTH 12 0
BBX 12 16 0 0
BITMAP
1980
1F80
0F00
0000
0000
6660
6660
36C0
36C0
1680
1F80
1780
36C0
36C0
6660
E670
ENDCHAR
STARTCHAR uni04C3
ENCODING 1219
SWIDTH 600 0
DWIDTH 12 0
BBX 9 18 2 -3
BITMAP
C180
C300
C300
C600
C400
CC00
D800
FE00
CF00
C180
C180
C180
C080
C080
C180
0180
0700
0600
ENDCHAR
STARTCHAR uni04C4
ENCODING 1220
SWIDTH 600 0
DWIDTH 12 0
BBX 9 14 2 -3
BITMAP
C380
C600
C600
CC00
D800
FE00
CF00
C300
C100
C180
C300
0300
0E00
0400
ENDCHAR
STARTCHAR uni04C5
ENCODING 1221
SWIDTH 600 0
DWIDTH 12 0
BBX 12 19 0 -4
BITMAP
1FC0
1840
1040
1040
1040
1040
1040
1040
1040
1040
1040
3040
3040
7070
E070
0030
0030
0060
0020
ENDCHAR
STARTCHAR uni04C6
ENCODING 1222
SWIDTH 600 0
DWIDTH 12 0
BBX 11 15 1 -4
BITMAP
3F80
3080
3080
3080
3080
3080
3080
2080
6080
E0E0
C0E0
0060
0060
00C0
0040
ENDCHAR
STARTCHAR uni04C7
ENCODING 1223
SWIDTH 600 0
DWIDTH 12 0
BBX 8 19 2 -4
BITMAP
C3
C3
C3
C3
C3
C3
C3
FF
C3
C3
C3
C3
C3
C3
C3
03
03
0F
0E
ENDCHAR
STARTCHAR uni04C8
ENCODING 1224
SWIDTH 600 0
DWIDTH 12 0
BBX 8 15 2 -4
BITMAP
C3
C3
C3
C3
C3
FF
C3
C3
C3
C3
C3
03
03
0F
0E
ENDCHAR
STARTCHAR uni04C9
ENCODING 1225
SWIDTH 600 0
DWIDTH 12 0
BBX 11 19 1 -4
BITMAP
C0C0
C0C0
C0C0
C0C0
C0C0
C0C0
C0C0
FFC0
C0C0
C0C0
C0C0
C0C0
C0C0
C0E0
C0E0
0060
0060
00C0
0040
ENDCHAR
STARTCHAR uni04CA
ENCODING 1226
SWIDTH 600 0
DWIDTH 12 0
BBX 10 15 2 -4
BITMAP
8100
8100
8100
8100
8100
FF00
8100
8100
8100
81C0
81C0
00C0
00C0
0180
0080
ENDCHAR
STARTCHAR uni04CB
ENCODING 1227
SWIDTH 600 0
DWIDTH 12 0
BBX 8 19 2 -4
BITMAP
81
81
81
81
81
C1
C1
C3
7F
11
01
01
01
01
07
06
06
06
06
ENDCHAR
STARTCHAR uni04CC
ENCODING 1228
SWIDTH 600 0
DWIDTH 12 0
BBX 9 15 1 -4
BITMAP
C080
C080
C080
C080
C080
6080
3F80
0880
0080
0080
0380
0300
0300
0300
0300
ENDCHAR
STARTCHAR uni04CD
ENCODING 1229
SWIDTH 600 0
DWIDTH 12 0
BBX 11 19 1 -4
BITMAP
E1C0
E1C0
E1C0
F3C0
D3C0
D2C0
DEC0
DEC0
CCC0
CCC0
CCC0
C0C0
C0C0
C0E0
C0E0
0060
0060
00C0
0040
ENDCHAR
STARTCHAR uni04CE
ENCODING 1230
SWIDTH 600 0
DWIDTH 12 0
BBX 11 15 1 -4
BITMAP
E180
E180
E380
F380
F380
D280
D680
DE80
CC80
CCE0
CCE0
0060
0060
00C0
0040
ENDCHAR
STARTCHAR uni04CF
ENCODING 1231
SWIDTH 600 0
DWIDTH 12 0
BBX 8 15 2 0
BITMAP
FF
F8
18
18
18
18
18
18
18
18
18
18
18
1F
FF
ENDCHAR
STARTCHAR uni04D0
ENCODING 1232
SWIDTH 600 0
DWIDTH 12 0
BBX 10 19 1 0
BITMAP
3300
3F00
1E00
0000
0C00
0C00
0E00
1E00
1A00
1300
3300
3300
3100
7F80
7F80
6080
40C0
C0C0
C0C0
ENDCHAR
STARTCHAR uni04D1
ENCODING 1233
SWIDTH 600 0
DWIDTH 12 0
BBX 9 16 2 0
BITMAP
6600
7E00
3C00
0000
0000
3C00
FF00
C300
0300
3F00
FB00
C300
8300
C300
FF00
7980
ENDCHAR
STARTCHAR uni04D2
ENCODING 1234
SWIDTH 600 0
DWIDTH 12 0
BBX 10 18 1 0
BITMAP
3300
2100
0000
0C00
0C00
0E00
1E00
1A00
1300
3300
3300
3100
7F80
7F80
6080
40C0
C0C0
C0C0
ENDCHAR
STARTCHAR uni04D3
ENCODING 1235
SWIDTH 600 0
DWIDTH 12 0
BBX 9 15 2 0
BITMAP
6600
4200
0000
0000
3C00
FF00
C300
0300
3F00
FB00
C300
8300
C300
FF00
7980
ENDCHAR
STARTCHAR uni04D4
ENCODING 1236
SWIDTH 600 0
DWIDTH 12 0
BBX 12 15 0 0
BITMAP
03E0
0700
0700
0700
0F00
0B00
1BE0
1BE0
1B00
3300
3F00
2300
6300
63F0
C3F0
ENDCHAR
STARTCHAR uni04D5
ENCODING 1237
SWIDTH 600 0
DWIDTH 12 0
BBX 12 11 0 0
BITMAP
3DC0
7FE0
4630
0630
0630
7FF0
6600
C600
C600
7FE0
39E0
ENDCHAR
STARTCHAR uni04D6
ENCODING 1238
SWIDTH 600 0
DWIDTH 12 0
BBX 9 19 2 0
BITMAP
6600
7E00
3C00
0000
FF00
C000
C000
C000
C000
C000
C000
FF00
C000
C000
C000
C000
C000
FF80
FF80
ENDCHAR
STARTCHAR uni04D7
ENCODING 1239
SWIDTH 600 0
DWIDTH 12 0
BBX 10 16 1 0
BITMAP
3300
3F00
1E00
0000
0000
1E00
3F80
6180
4080
C0C0
FFC0
C000
4000
60C0
3F80
1F00
ENDCHAR
STARTCHAR uni04D8
ENCODING 1240
SWIDTH 600 0
DWIDTH 12 0
BBX 10 15 1 0
BITMAP
3E00
7F00
0180
0080
00C0
00C0
00C0
FFC0
C0C0
C0C0
C0C0
C180
6180
7F00
1E00
ENDCHAR
STARTCHAR uni04D9
ENCODING 1241
SWIDTH 600 0
DWIDTH 12 0
BBX 9 11 2 0
BITMAP
7C00
FF00
8300
0180
0180
FF80
C180
C180
C300
7F00
3C00
ENDCHAR
STARTCHAR uni04DA
ENCODING 1242
SWIDTH 600 0
DWIDTH 12 0
BBX 10 18 1 0
BITMAP
3300
2100
0000
3E00
7F00
0180
0080
00C0
00C0
00C0
FFC0
C0C0
C0C0
C0C0
C180
6180
7F00
1E00
ENDCHAR
STARTCHAR uni04DB
ENCODING 1243
SWIDTH 600 0
DWIDTH 12 0
BBX 9 15 2 0
BITMAP
6600
4200
0000
0000
7C00
FF00
8300
0180
0180
FF80
C180
C180
C300
7F00
3C00
ENDCHAR
STARTCHAR uni04DC
ENCODING 1244
SWIDTH 600 0
DWIDTH 12 0
BBX 12 18 0 0
BITMAP
1980
1080
0000
6660
6660
6660
36C0
36C0
36C0
1680
1F80
1F80
36C0
36C0
36C0
6660
6660
E670
ENDCHAR
STARTCHAR uni04DD
ENCODING 1245
SWIDTH 600 0
DWIDTH 12 0
BBX 12 15 0 0
BITMAP
1980
1080
0000
0000
6660
6660
36C0
36C0
1680
1F80
1780
36C0
36C0
6660
E670
ENDCHAR
STARTCHAR uni04DE
ENCODING 1246
SWIDTH 600 0
DWIDTH 12 0
BBX 10 19 1 0
BITMAP
3300
2100
0000
0000
3F00
7F80
C0C0
C0C0
00C0
00C0
0780
1F00
0180
00C0
00C0
C0C0
C0C0
7F80
3F00
ENDCHAR
STARTCHAR uni04DF
ENCODING 1247
SWIDTH 600 0
DWIDTH 12 0
BBX 10 15 1 0
BITMAP
3300
2100
0000
0000
3F00
7F80
C0C0
0080
0780
1F00
0180
00C0
C0C0
7F80
3F00
ENDCHAR
STARTCHAR uni04E0
ENCODING 1248
SWIDTH 600 0
DWIDTH 12 0
BBX 10 15 1 0
BITMAP
7F80
7F80
0300
0300
0600
0C00
1800
1F00
0180
00C0
00C0
C0C0
6180
7F80
1E00
ENDCHAR
STARTCHAR uni04E1
ENCODING 1249
SWIDTH 600 0
DWIDTH 12 0
BBX 10 15 1 -4
BITMAP
7F80
7F80
0300
0600
0600
0C00
1E00
1F00
0180
00C0
00C0
C0C0
6180
7F80
1E00
ENDCHAR
STARTCHAR uni04E2
ENCODING 1250
SWIDTH 600 0
DWIDTH 12 0
BBX 8 18 2 0
BITMAP
7E
7E
00
83
83
87
87
8D
8D
89
99
91
B1
B1
E1
E1
C1
C1
ENDCHAR
STARTCHAR uni04E3
ENCODING 1251
SWIDTH 600 0
DWIDTH 12 0
BBX 8 15 2 0
BITMAP
7E
7E
00
00
83
83
87
8D
8D
99
B1
B1
E1
C1
C1
ENDCHAR
STARTCHAR uni04E4
ENCODING 1252
SWIDTH 600 0
DWIDTH 12 0
BBX 8 18 2 0
BITMAP
66
42
00
83
83
87
87
8D
8D
89
99
91
B1
B1
E1
E1
C1
C1
ENDCHAR
STARTCHAR uni04E5
ENCODING 1253
SWIDTH 600 0
DWIDTH 12 0
BBX 8 15 2 0
BITMAP
66
42
00
00
83
83
87
8D
8D
99
B1
B1
E1
C1
C1
ENDCHAR
STARTCHAR uni04E6
ENCODING 1254
SWIDTH 600 0
DWIDTH 12 0
BBX 10 19 1 0
BITMAP
3300
2100
0000
0000
1E00
3F00
6180
4080
C0C0
C0C0
C0C0
C0C0
C0C0
C0C0
C0C0
4080
6180
3F00
1E00
ENDCHAR
STARTCHAR uni04E7
ENCODING 1255
SWIDTH 600 0
DWIDTH 12 0
BBX 10 15 1 0
BITMAP
3300
2100
0000
0000
1E00
3F00
6180
C0C0
C0C0
C0C0
C0C0
C0C0
6180
3F00
1E00
ENDCHAR
STARTCHAR uni04E8
ENCODING 1256
SWIDTH 600 0
DWIDTH 12 0
BBX 10 15 1 0
BITMAP
1E00
3F00
6180
C080
C0C0
C0C0
C0C0
FFC0
C0C0
C0C0
C0C0
4080
6180
3F00
1E00
ENDCHAR
STARTCHAR uni04E9
ENCODING 1257
SWIDTH 600 0
DWIDTH 12 0
BBX 10 11 1 0
BITMAP
1E00
7F00
6180
C180
C080
FFC0
C080
C180
6180
7F00
1E00
ENDCHAR
STARTCHAR uni04EA
ENCODING 1258
SWIDTH 600 0
DWIDTH 12 0
BBX 10 18 1 0
BITMAP
3300
2100
0000
1E00
3F00
6180
C080
C0C0
C0C0
C0C0
FFC0
C0C0
C0C0
C0C0
4080
6180
3F00
1E00
ENDCHAR
STARTCHAR uni04EB
ENCODING 1259
SWIDTH 600 0
DWIDTH 12 0
BBX 10 16 1 0
BITMAP
3300
2100
0000
0000
0000
1E00
7F00
6180
C180
C080
FFC0
C080
C180
6180
7F00
1E00
ENDCHAR
STARTCHAR uni04EC
ENCODING 1260
SWIDTH 600 0
DWIDTH 12 0
BBX 10 19 1 0
BITMAP
3300
2100
0000
0000
1E00
7F00
6180
C080
C0C0
00C0
00C0
1FC0
1FC0
00C0
C0C0
C080
6180
7F00
3E00
ENDCHAR
STARTCHAR uni04ED
ENCODING 1261
SWIDTH 600 0
DWIDTH 12 0
BBX 10 15 1 0
BITMAP
3300
2100
0000
0000
3E00
7F00
C180
0180
00C0
0FC0
00C0
C180
4180
7F00
3E00
ENDCHAR
STARTCHAR uni04EE
ENCODING 1262
SWIDTH 600 0
DWIDTH 12 0
BBX 12 18 0 0
BITMAP
1F80
1F80
0000
E070
6060
3060
30C0
30C0
1880
1980
0D80
0F00
0700
0600
0600
0400
5C00
7800
ENDCHAR
STARTCHAR uni04EF
ENCODING 1263
SWIDTH 600 0
DWIDTH 12 0
BBX 10 19 1 -4
BITMAP
3F00
3F00
0000
0000
C0C0
C0C0
6180
6180
3100
3300
1200
1E00
1E00
0C00
0C00
0800
1800
7000
E000
ENDCHAR
STARTCHAR uni04F0
ENCODING 1264
SWIDTH 600 0
DWIDTH 12 0
BBX 12 18 0 0
BITMAP
1980
1080
0000
E070
6060
3060
30C0
30C0
1880
1980
0D80
0F00
0700
0600
0600
0400
5C00
7800
ENDCHAR
STARTCHAR uni04F1
ENCODING 1265
SWIDTH 600 0
DWIDTH 12 0
BBX 10 19 1 -4
BITMAP
3300
2100
0000
0000
C0C0
C0C0
6180
6180
3100
3300
1200
1E00
1E00
0C00
0C00
0800
1800
7000
E000
ENDCHAR
STARTCHAR uni04F2
ENCODING 1266
SWIDTH 600 0
DWIDTH 12 0
BBX 12 18 0 0
BITMAP
0370
06C0
0D80
E070
6060
3060
30C0
30C0
1880
1980
0D80
0F00
0700
0600
0600
0400
5C00
7800
ENDCHAR
STARTCHAR uni04F3
ENCODING 1267
SWIDTH 600 0
DWIDTH 12 0
BBX 11 19 1 -4
BITMAP
06E0
0D80
1B00
0000
C0C0
C0C0
6180
6180
3100
3300
1200
1E00
1E00
0C00
0C00
0800
1800
7000
E000
ENDCHAR
STARTCHAR uni04F4
ENCODING 1268
SWIDTH 600 0
DWIDTH 12 0
BBX 8 18 2 0
BITMAP
CC
84
00
81
81
81
81
81
C1
C1
C3
7F
11
01
01
01
01
01
ENDCHAR
STARTCHAR uni04F5
ENCODING 1269
SWIDTH 600 0
DWIDTH 12 0
BBX 9 15 1 0
BITMAP
3300
2100
0000
0000
C080
C080
C080
C080
C080
6080
3F80
0880
0080
0080
0080
ENDCHAR
STARTCHAR uni04F6
ENCODING 1270
SWIDTH 600 0
DWIDTH 12 0
BBX 8 19 2 -4
BITMAP
FF
C0
C0
C0
C0
C0
C0
C0
C0
C0
C0
C0
C0
C0
E0
60
60
60
60
ENDCHAR
STARTCHAR uni04F7
ENCODING 1271
SWIDTH 600 0
DWIDTH 12 0
BBX 8 15 2 -4
BITMAP
FF
C0
C0
C0
C0
C0
C0
C0
C0
C0
E0
60
60
60
60
ENDCHAR
STARTCHAR uni04F8
ENCODING 1272
SWIDTH 600 0
DWIDTH 12 0
BBX 10 18 1 0
BITMAP
3300
2100
0000
C0C0
C0C0
C0C0
C0C0
C0C0
C0C0
E0C0
FCC0
CCC0
C6C0
C6C0
C6C0
C6C0
DCC0
F8C0
ENDCHAR
STARTCHAR uni04F9
ENCODING 1273
SWIDTH 600 0
DWIDTH 12 0
BBX 10 15 1 0
BITMAP
1980
1080
0000
0000
C0C0
C0C0
C0C0
C0C0
E0C0
FCC0
CCC0
C6C0
C6C0
DCC0
F8C0
ENDCHAR
STARTCHAR uni04FA
ENCODING 1274
SWIDTH 600 0
DWIDTH 12 0
BBX 10 19 1 -4
BITMAP
3FC0
3000
3000
3000
3000
3000
FC00
FC00
3000
3000
3000
3000
3000
3800
3800
1800
1800
7000
E000
ENDCHAR
STARTCHAR uni04FB
ENCODING 1275
SWIDTH 600 0
DWIDTH 12 0
BBX 10 15 1 -4
BITMAP
3FC0
3000
3000
3000
3000
FC00
FC00
3000
3000
3800
3800
1800
1800
7000
E000
ENDCHAR
STARTCHAR uni04FC
ENCODING 1276
SWIDTH 600 0
DWIDTH 12 0
BBX 12 19 1 -4
BITMAP
C0C0
6180
6180
3300
3B00
1E00
0E00
0C00
0E00
1E00
3300
3300
6180
61F0
C0F0
0030
0030
00E0
01C0
ENDCHAR
STARTCHAR uni04FD
ENCODING 1277
SWIDTH 600 0
DWIDTH 12 0
BBX 11 15 1 -4
BITMAP
E0C0
6180
3300
1E00
1E00
0C00
1E00
1B00
3300
61E0
E0E0
0060
0060
01C0
0380
ENDCHAR
STARTCHAR uni04FE
ENCODING 1278
SWIDTH 600 0
DWIDTH 12 0
BBX 10 15 1 0
BITMAP
C0C0
61C0
6180
3300
3300
1E00
1E00
3F00
3E00
1E00
1B00
3300
6180
61C0
C0C0
ENDCHAR
STARTCHAR uni04FF
ENCODING 1279
SWIDTH 600 0
DWIDTH 12 0
BBX 10 11 1 0
BITMAP
E0C0
6180
3300
1E00
1F00
3F00
1E00
1B00
3300
6180
E0C0
ENDCHAR
STARTCHAR uni0500
ENCODING 1280
SWIDTH 600 0
DWIDTH 12 0
BBX 9 15 1 0
BITMAP
0080
0080
0080
0080
0080
0080
0080
7F80
6080
C080
C080
C080
C080
7880
3F80
ENDCHAR
STARTCHAR uni0501
ENCODING 1281
SWIDTH 600 0
DWIDTH 12 0
BBX 9 15 1 0
BITMAP
0180
0180
0180
0180
1F80
3F80
6180
4180
C180
C180
C180
4180
6180
3F80
1E80
ENDCHAR
STARTCHAR uni0502
ENCODING 1282
SWIDTH 600 0
DWIDTH 12 0
BBX 10 15 1 0
BITMAP
0400
0400
0400
0400
0400
0400
04C0
7CC0
C4C0
C440
C440
C4C0
C4C0
75C0
3F80
ENDCHAR
STARTCHAR uni0503
ENCODING 1283
SWIDTH 600 0
DWIDTH 12 0
BBX 10 16 1 0
BITMAP
0400
0400
0400
0400
0400
3400
7C00
C4C0
C4C0
C440
C440
C440
C4C0
C4C0
6FC0
7380
ENDCHAR
STARTCHAR uni0504
ENCODING 1284
SWIDTH 600 0
DWIDTH 12 0
BBX 10 15 1 0
BITMAP
F000
F800
0C00
0C00
0C00
0CC0
18C0
70C0
78C0
0C40
0CC0
0CC0
0CC0
0F80
0700
ENDCHAR
STARTCHAR uni0505
ENCODING 1285
SWIDTH 600 0
DWIDTH 12 0
BBX 10 11 1 0
BITMAP
F000
FC00
0C00
0CC0
0CC0
78C0
7CC0
0CC0
0CC0
0FC0
0780
ENDCHAR
STARTCHAR uni0506
ENCODING 1286
SWIDTH 600 0
DWIDTH 12 0
BBX 9 18 2 -3
BITMAP
F800
FC00
0600
0600
0600
0600
0E00
7800
7C00
0600
0600
0600
0600
0780
0380
0180
0180
0300
ENDCHAR
STARTCHAR uni0507
ENCODING 1287
SWIDTH 600 0
DWIDTH 12 0
BBX 8 14 2 -3
BITMAP
F8
FC
06
06
06
78
7C
06
06
07
07
03
03
03
ENDCHAR
STARTCHAR uni0508
ENCODING 1288
SWIDTH 600 0
DWIDTH 12 0
BBX 12 15 0 0
BITMAP
3F00
3300
3300
3300
3300
3360
3320
3320
3330
3330
3330
3320
2360
E3E0
C1C0
ENDCHAR
STARTCHAR uni0509
ENCODING 1289
SWIDTH 600 0
DWIDTH 12 0
BBX 11 11 0 0
BITMAP
3E00
3200
3260
3260
3260
3260
3260
3260
2260
63C0
C1C0
ENDCHAR
STARTCHAR uni050A
ENCODING 1290
SWIDTH 600 0
DWIDTH 12 0
BBX 10 15 1 0
BITMAP
C600
C600
C600
C600
C600
C600
C6C0
FEC0
C640
C640
C640
C6C0
C6C0
C7C0
C380
ENDCHAR
STARTCHAR uni050B
ENCODING 1291
SWIDTH 600 0
DWIDTH 12 0
BBX 10 11 1 0
BITMAP
C400
C400
C4C0
C4C0
C4C0
FCC0
C4C0
C4C0
C4C0
C680
C380
ENDCHAR
STARTCHAR uni050C
ENCODING 1292
SWIDTH 600 0
DWIDTH 12 0
BBX 10 15 1 0
BITMAP
1F00
3F80
6000
6000
4000
C000
C000
C0C0
C0C0
C0C0
40C0
60C0
60C0
3F80
1F00
ENDCHAR
STARTCHAR uni050D
ENCODING 1293
SWIDTH 600 0
DWIDTH 12 0
BBX 9 11 2 0
BITMAP
3F00
7E00
C000
C000
8000
8180
8180
C180
C180
7F00
3E00
ENDCHAR
STARTCHAR uni050E
ENCODING 1294
SWIDTH 600 0
DWIDTH 12 0
BBX 10 15 1 0
BITMAP
FF80
F800
1800
1800
1800
18C0
18C0
18C0
1840
1840
1840
18C0
18C0
0F80
0700
ENDCHAR
STARTCHAR uni050F
ENCODING 1295
SWIDTH 600 0
DWIDTH 12 0
BBX 10 11 1 0
BITMAP
FF80
F800
1800
1880
18C0
18C0
18C0
18C0
18C0
1F80
0F00
ENDCHAR
STARTCHAR uni0510
ENCODING 1296
SWIDTH 600 0
DWIDTH 12 0
BBX 10 15 1 0
BITMAP
1F00
7F80
60C0
C0C0
C000
6000
7E00
3E00
6000
C000
C000
C0C0
E0C0
7F80
1F00
ENDCHAR
STARTCHAR uni0511
ENCODING 1297
SWIDTH 600 0
DWIDTH 12 0
BBX 10 11 1 0
BITMAP
3F00
7F80
40C0
4000
7E00
3E00
6000
C000
C0C0
7F80
3F00
ENDCHAR
STARTCHAR uni0512
ENCODING 1298
SWIDTH 600 0
DWIDTH 12 0
BBX 13 19 0 -4
BITMAP
1FC0
1840
1040
1040
1040
1040
1040
1040
1040
1040
1040
3040
3040
7058
E058
0018
0018
0070
00E0
ENDCHAR
STARTCHAR uni0513
ENCODING 1299
SWIDTH 600 0
DWIDTH 12 0
BBX 12 15 1 -4
BITMAP
3F80
3080
3080
3080
3080
3080
3080
2080
6080
E0B0
C0B0
0030
0030
00E0
01C0
ENDCHAR
STARTCHAR uni1E00
ENCODING 7680
SWIDTH 600 0
DWIDTH 12 0
BBX 10 19 1 -4
BITMAP
0C00
0C00
0E00
1E00
1A00
1300
3300
3300
3100
7F80
7F80
6080
40C0
C0C0
C0C0
0800
1C00
1C00
0C00
ENDCHAR
STARTCHAR uni1E01
ENCODING 7681
SWIDTH 600 0
DWIDTH 12 0
BBX 9 15 2 -4
BITMAP
3C00
FF00
C300
0300
3F00
FB00
C300
8300
C300
FF00
7980
1000
3800
3800
1800
ENDCHAR
STARTCHAR uni1E3E
ENCODING 7742
SWIDTH 600 0
DWIDTH 12 0
BBX 10 18 1 0
BITMAP
0700
0400
0800
E1C0
E1C0
E1C0
F3C0
D3C0
D2C0
DEC0
DEC0
CCC0
CCC0
CCC0
C0C0
C0C0
C0C0
C0C0
ENDCHAR
STARTCHAR uni1E3F
ENCODING 7743
SWIDTH 600 0
DWIDTH 12 0
BBX 10 15 1 0
BITMAP
0380
0200
0400
0000
FB80
FFC0
CCC0
CCC0
CCC0
CCC0
CCC0
CCC0
CCC0
CCC0
CCC0
ENDCHAR
STARTCHAR Wgrave
ENCODING 7808
SWIDTH 600 0
DWIDTH 12 0
BBX 11 18 1 0
BITMAP
3800
0800
0400
8C60
CC40
CC40
CEC0
CEC0
DEC0
DAC0
5AC0
52C0
5380
5380
7380
7180
7180
6180
ENDCHAR
STARTCHAR wgrave
ENCODING 7809
SWIDTH 600 0
DWIDTH 12 0
BBX 12 15 0 0
BITMAP
1C00
0400
0200
0000
C630
4620
6620
6660
6F60
2960
2940
2940
39C0
38C0
1080
ENDCHAR
STARTCHAR Wacute
ENCODING 7810
SWIDTH 600 0
DWIDTH 12 0
BBX 11 18 1 0
BITMAP
0700
0400
0800
8C60
CC40
CC40
CEC0
CEC0
DEC0
DAC0
5AC0
52C0
5380
5380
7380
7180
7180
6180
ENDCHAR
STARTCHAR wacute
ENCODING 7811
SWIDTH 600 0
DWIDTH 12 0
BBX 12 15 0 0
BITMAP
0380
0200
0400
0000
C630
4620
6620
6660
6F60
2960
2940
2940
39C0
38C0
1080
ENDCHAR
STARTCHAR Wdieresis
ENCODING 7812
SWIDTH 600 0
DWIDTH 12 0
BBX 11 18 1 0
BITMAP
3300
2100
0000
8C60
CC40
CC40
CEC0
CEC0
DEC0
DAC0
5AC0
52C0
5380
5380
7380
7180
7180
6180
ENDCHAR
STARTCHAR wdieresis
ENCODING 7813
SWIDTH 600 0
DWIDTH 12 0
BBX 12 15 0 0
BITMAP
1980
1080
0000
0000
C630
4620
6620
6660
6F60
2960
2940
2940
39C0
38C0
1080
ENDCHAR
STARTCHAR uni1EA0
ENCODING 7840
SWIDTH 600 0
DWIDTH 12 0
BBX 10 18 1 -3
BITMAP
0C00
0C00
0E00
1E00
1A00
1300
3300
3300
3100
7F80
7F80
6080
40C0
C0C0
C0C0
0000
0C00
0C00
ENDCHAR
STARTCHAR uni1EA1
ENCODING 7841
SWIDTH 600 0
DWIDTH 12 0
BBX 9 14 2 -3
BITMAP
3C00
FF00
C300
0300
3F00
FB00
C300
8300
C300
FF00
7980
0000
1800
1800
ENDCHAR
STARTCHAR uni1EA2
ENCODING 7842
SWIDTH 600 0
DWIDTH 12 0
BBX 10 20 1 0
BITMAP
0800
0E00
0200
0600
0400
0C00
0C00
0E00
1E00
1A00
1300
3300
3300
3100
7F80
7F80
6080
40C0
C0C0
C0C0
ENDCHAR
STARTCHAR uni1EA3
ENCODING 7843
SWIDTH 600 0
DWIDTH 12 0
BBX 9 17 2 0
BITMAP
1000
1C00
0400
0C00
0800
0000
3C00
FF00
C300
0300
3F00
FB00
C300
8300
C300
FF00
7980
ENDCHAR
STARTCHAR uni1EA4
ENCODING 7844
SWIDTH 600 0
DWIDTH 12 0
BBX 11 20 1 0
BITMAP
0060
0040
0EC0
1B00
3180
0C00
0C00
0E00
1E00
1A00
1300
3300
3300
3100
7F80
7F80
6080
40C0
C0C0
C0C0
ENDCHAR
STARTCHAR uni1EA5
ENCODING 7845
SWIDTH 600 0
DWIDTH 12 0
BBX 10 17 2 0
BITMAP
00C0
0080
1D80
3600
6300
0000
3C00
FF00
C300
0300
3F00
FB00
C300
8300
C300
FF00
7980
ENDCHAR
STARTCHAR uni1EA6
ENCODING 7846
SWIDTH 600 0
DWIDTH 12 0
BBX 11 20 0 0
BITMAP
C000
6000
2700
0D80
18C0
0600
0600
0700
0F00
0D00
0980
1980
1980
1880
3FC0
3FC0
3040
2060
6060
6060
ENDCHAR
STARTCHAR uni1EA7
ENCODING 7847
SWIDTH 600 0
DWIDTH 12 0
BBX 11 17 0 0
BITMAP
C000
6000
2700
0D80
18C0
0000
0F00
3FC0
30C0
00C0
0FC0
3EC0
30C0
20C0
30C0
3FC0
1E60
ENDCHAR
STARTCHAR uni1EA8
ENCODING 7848
SWIDTH 600 0
DWIDTH 12 0
BBX 11 20 1 0
BITMAP
00E0
0020
0EC0
3300
6180
0C00
0C00
0E00
1E00
1A00
1300
3300
3300
3100
7F80
7F80
6080
40C0
C0C0
C0C0
ENDCHAR
STARTCHAR uni1EA9
ENCODING 7849
SWIDTH 600 0
DWIDTH 12 0
BBX 10 17 2 0
BITMAP
01C0
0040
1D80
6600
C300
0000
3C00
FF00
C300
0300
3F00
FB00
C300
8300
C300
FF00
7980
ENDCHAR
STARTCHAR uni1EAA
ENCODING 7850
SWIDTH 600 0
DWIDTH 12 0
BBX 10 21 1 0
BITMAP
0900
1600
0000
0E00
1300
2180
0C00
0C00
0E00
1E00
1A00
1300
3300
3300
3100
7F80
7F80
6080
40C0
C0C0
C0C0
ENDCHAR
STARTCHAR uni1EAB
ENCODING 7851
SWIDTH 600 0
DWIDTH 12 0
BBX 9 18 2 0
BITMAP
1200
2C00
0000
1C00
2600
4300
0000
3C00
FF00
C300
0300
3F00
FB00
C300
8300
C300
FF00
7980
ENDCHAR
STARTCHAR uni1EAC
ENCODING 7852
SWIDTH 600 0
DWIDTH 12 0
BBX 10 21 1 -3
BITMAP
0C00
1600
2100
0C00
0C00
0E00
1E00
1A00
1300
3300
3300
3100
7F80
7F80
6080
40C0
C0C0
C0C0
0000
0C00
0C00
ENDCHAR
STARTCHAR uni1EAD
ENCODING 7853
SWIDTH 600 0
DWIDTH 12 0
BBX 9 18 2 -3
BITMAP
1800
2C00
4200
0000
3C00
FF00
C300
0300
3F00
FB00
C300
8300
C300
FF00
7980
0000
1800
1800
ENDCHAR
STARTCHAR uni1EAE
ENCODING 7854
SWIDTH 600 0
DWIDTH 12 0
BBX 10 20 1 0
BITMAP
0200
0400
3100
3300
0C00
0C00
0C00
0E00
1E00
1A00
1300
3300
3300
3100
7F80
7F80
6080
40C0
C0C0
C0C0
ENDCHAR
STARTCHAR uni1EAF
ENCODING 7855
SWIDTH 600 0
DWIDTH 12 0
BBX 9 17 2 0
BITMAP
0400
0800
6200
6600
1800
0000
3C00
FF00
C300
0300
3F00
FB00
C300
8300
C300
FF00
7980
ENDCHAR
STARTCHAR uni1EB0
ENCODING 7856
SWIDTH 600 0
DWIDTH 12 0
BBX 10 21 1 0
BITMAP
3800
0C00
2100
3300
1E00
0000
0C00
0C00
0E00
1E00
1A00
1300
3300
3300
3100
7F80
7F80
6080
40C0
C0C0
C0C0
ENDCHAR
STARTCHAR uni1EB1
ENCODING 7857
SWIDTH 600 0
DWIDTH 12 0
BBX 9 18 2 0
BITMAP
7000
1800
4200
6600
3C00
0000
0000
3C00
FF00
C300
0300
3F00
FB00
C300
8300
C300
FF00
7980
ENDCHAR
STARTCHAR uni1EB2
ENCODING 7858
SWIDTH 600 0
DWIDTH 12 0
BBX 10 21 1 0
BITMAP
0E00
0200
0C00
3100
1300
0C00
0C00
0C00
0E00
1E00
1A00
1300
3300
3300
3100
7F80
7F80
6080
40C0
C0C0
C0C0
ENDCHAR
STARTCHAR uni1EB3
ENCODING 7859
SWIDTH 600 0
DWIDTH 12 0
BBX 9 18 2 0
BITMAP
1C00
0400
1800
6200
2600
1800
0000
3C00
FF00
C300
0300
3F00
FB00
C300
8300
C300
FF00
7980
ENDCHAR
STARTCHAR uni1EB4
ENCODING 7860
SWIDTH 600 0
DWIDTH 12 0
BBX 10 20 1 0
BITMAP
1F00
1200
1100
1B00
0E00
0C00
0C00
0E00
1E00
1A00
1300
3300
3300
3100
7F80
7F80
6080
40C0
C0C0
C0C0
ENDCHAR
STARTCHAR uni1EB5
ENCODING 7861
SWIDTH 600 0
DWIDTH 12 0
BBX 9 17 2 0
BITMAP
3E00
2400
2200
3600
1C00
0000
3C00
FF00
C300
0300
3F00
FB00
C300
8300
C300
FF00
7980
ENDCHAR
STARTCHAR uni1EB6
ENCODING 7862
SWIDTH 600 0
DWIDTH 12 0
BBX 10 22 1 -3
BITMAP
3300
3F00
1E00
0000
0C00
0C00
0E00
1E00
1A00
1300
3300
3300
3100
7F80
7F80
6080
40C0
C0C0
C0C0
0000
0C00
0C00
ENDCHAR
STARTCHAR uni1EB7
ENCODING 7863
SWIDTH 600 0
DWIDTH 12 0
BBX 9 19 2 -3
BITMAP
6600
7E00
3C00
0000
0000
3C00
FF00
C300
0300
3F00
FB00
C300
8300
C300
FF00
7980
0000
1800
1800
ENDCHAR
STARTCHAR uni1EB8
ENCODING 7864
SWIDTH 600 0
DWIDTH 12 0
BBX 9 18 2 -3
BITMAP
FF00
C000
C000
C000
C000
C000
C000
FF00
C000
C000
C000
C000
C000
FF80
FF80
0000
1800
1800
ENDCHAR
STARTCHAR uni1EB9
ENCODING 7865
SWIDTH 600 0
DWIDTH 12 0
BBX 10 14 1 -3
BITMAP
1E00
3F80
6180
4080
C0C0
FFC0
C000
4000
60C0
3F80
1F00
0000
0C00
0C00
ENDCHAR
STARTCHAR uni1EBA
ENCODING 7866
SWIDTH 600 0
DWIDTH 12 0
BBX 9 20 2 0
BITMAP
1000
1C00
0400
0C00
0800
FF00
C000
C000
C000
C000
C000
C000
FF00
C000
C000
C000
C000
C000
FF80
FF80
ENDCHAR
STARTCHAR uni1EBB
ENCODING 7867
SWIDTH 600 0
DWIDTH 12 0
BBX 10 17 1 0
BITMAP
0800
0E00
0200
0600
0400
0000
1E00
3F80
6180
4080
C0C0
FFC0
C000
4000
60C0
3F80
1F00
ENDCHAR
STARTCHAR uni1EBC
ENCODING 7868
SWIDTH 600 0
DWIDTH 12 0
BBX 9 18 2 0
BITMAP
7E00
C000
0000
FF00
C000
C000
C000
C000
C000
C000
FF00
C000
C000
C000
C000
C000
FF80
FF80
ENDCHAR
STARTCHAR uni1EBD
ENCODING 7869
SWIDTH 600 0
DWIDTH 12 0
BBX 10 15 1 0
BITMAP
3F00
6000
0000
0000
1E00
3F80
6180
4080
C0C0
FFC0
C000
4000
60C0
3F80
1F00
ENDCHAR
STARTCHAR uni1EBE
ENCODING 7870
SWIDTH 600 0
DWIDTH 12 0
BBX 10 20 2 0
BITMAP
00C0
0080
1D80
3600
6300
FF00
C000
C000
C000
C000
C000
C000
FF00
C000
C000
C000
C000
C000
FF80
FF80
ENDCHAR
STARTCHAR uni1EBF
ENCODING 7871
SWIDTH 600 0
DWIDTH 12 0
BBX 11 17 1 0
BITMAP
0060
0040
0EC0
1B00
3180
0000
1E00
3F80
6180
4080
C0C0
FFC0
C000
4000
60C0
3F80
1F00
ENDCHAR
STARTCHAR uni1EC0
ENCODING 7872
SWIDTH 600 0
DWIDTH 12 0
BBX 11 20 0 0
BITMAP
C000
6000
2700
0D80
18C0
3FC0
3000
3000
3000
3000
3000
3000
3FC0
3000
3000
3000
3000
3000
3FE0
3FE0
ENDCHAR
STARTCHAR uni1EC1
ENCODING 7873
SWIDTH 600 0
DWIDTH 12 0
BBX 11 17 0 0
BITMAP
C000
6000
2700
0D80
18C0
0000
0F00
1FC0
30C0
2040
6060
7FE0
6000
2000
3060
1FC0
0F80
ENDCHAR
STARTCHAR uni1EC2
ENCODING 7874
SWIDTH 600 0
DWIDTH 12 0
BBX 10 20 2 0
BITMAP
01C0
0040
1D80
6600
C300
FF00
C000
C000
C000
C000
C000
C000
FF00
C000
C000
C000
C000
C000
FF80
FF80
ENDCHAR
STARTCHAR uni1EC3
ENCODING 7875
SWIDTH 600 0
DWIDTH 12 0
BBX 11 17 1 0
BITMAP
00E0
0020
0EC0
3300
6180
0000
1E00
3F80
6180
4080
C0C0
FFC0
C000
4000
60C0
3F80
1F00
ENDCHAR
STARTCHAR uni1EC4
ENCODING 7876
SWIDTH 600 0
DWIDTH 12 0
BBX 9 21 2 0
BITMAP
1200
2C00
0000
1C00
2600
4300
FF00
C000
C000
C000
C000
C000
C000
FF00
C000
C000
C000
C000
C000
FF80
FF80
ENDCHAR
STARTCHAR uni1EC5
ENCODING 7877
SWIDTH 600 0
DWIDTH 12 0
BBX 10 18 1 0
BITMAP
0900
1600
0000
0E00
1300
2180
0000
1E00
3F80
6180
4080
C0C0
FFC0
C000
4000
60C0
3F80
1F00
ENDCHAR
STARTCHAR uni1EC6
ENCODING 7878
SWIDTH 600 0
DWIDTH 12 0
BBX 9 21 2 -3
BITMAP
1800
2C00
4200
FF00
C000
C000
C000
C000
C000
C000
FF00
C000
C000
C000
C000
C000
FF80
FF80
0000
1800
1800
ENDCHAR
STARTCHAR uni1EC7
ENCODING 7879
SWIDTH 600 0
DWIDTH 12 0
BBX 10 18 1 -3
BITMAP
0C00
1600
2100
0000
1E00
3F80
6180
4080
C0C0
FFC0
C000
4000
60C0
3F80
1F00
0000
0C00
0C00
ENDCHAR
STARTCHAR uni1EC8
ENCODING 7880
SWIDTH 600 0
DWIDTH 12 0
BBX 8 20 2 0
BITMAP
20
38
08
18
10
FF
F8
18
18
18
18
18
18
18
18
18
18
18
1F
FF
ENDCHAR
STARTCHAR uni1EC9
ENCODING 7881
SWIDTH 600 0
DWIDTH 12 0
BBX 9 17 2 0
BITMAP
1000
1C00
0400
0C00
0800
0000
F800
F800
0800
0800
0800
0800
0800
0800
0800
0F80
FF80
ENDCHAR
STARTCHAR uni1ECA
ENCODING 7882
SWIDTH 600 0
DWIDTH 12 0
BBX 8 18 2 -3
BITMAP
FF
F8
18
18
18
18
18
18
18
18
18
18
18
1F
FF
00
18
18
ENDCHAR
STARTCHAR uni1ECB
ENCODING 7883
SWIDTH 600 0
DWIDTH 12 0
BBX 9 18 2 -3
BITMAP
1800
1C00
0000
0000
F800
F800
0800
0800
0800
0800
0800
0800
0800
0F80
FF80
0000
0C00
0C00
ENDCHAR
STARTCHAR uni1ECC
ENCODING 7884
SWIDTH 600 0
DWIDTH 12 0
BBX 10 18 1 -3
BITMAP
1E00
3F00
6180
4080
C0C0
C0C0
C0C0
C0C0
C0C0
C0C0
C0C0
4080
6180
3F00
1E00
0000
0C00
0C00
ENDCHAR
STARTCHAR uni1ECD
ENCODING 7885
SWIDTH 600 0
DWIDTH 12 0
BBX 10 14 1 -3
BITMAP
1E00
3F00
6180
C0C0
C0C0
C0C0
C0C0
C0C0
6180
3F00
1E00
0000
0C00
0C00
ENDCHAR
STARTCHAR uni1ECE
ENCODING 7886
SWIDTH 600 0
DWIDTH 12 0
BBX 10 21 1 0
BITMAP
0800
0E00
0200
0600
0400
0000
1E00
3F00
6180
4080
C0C0
C0C0
C0C0
C0C0
C0C0
C0C0
C0C0
4080
6180
3F00
1E00
ENDCHAR
STARTCHAR uni1ECF
ENCODING 7887
SWIDTH 600 0
DWIDTH 12 0
BBX 10 17 1 0
BITMAP
0800
0E00
0200
0600
0400
0000
1E00
3F00
6180
C0C0
C0C0
C0C0
C0C0
C0C0
6180
3F00
1E00
ENDCHAR
STARTCHAR uni1ED0
ENCODING 7888
SWIDTH 600 0
DWIDTH 12 0
BBX 11 21 1 0
BITMAP
0060
0040
0EC0
1B00
3180
0000
1E00
3F00
6180
4080
C0C0
C0C0
C0C0
C0C0
C0C0
C0C0
C0C0
4080
6180
3F00
1E00
ENDCHAR
STARTCHAR uni1ED1
ENCODING 7889
SWIDTH 600 0
DWIDTH 12 0
BBX 11 17 1 0
BITMAP
0060
0040
0EC0
1B00
3180
0000
1E00
3F00
6180
C0C0
C0C0
C0C0
C0C0
C0C0
6180
3F00
1E00
ENDCHAR
STARTCHAR uni1ED2
ENCODING 7890
SWIDTH 600 0
DWIDTH 12 0
BBX 11 20 0 0
BITMAP
C000
6000
2700
0D80
18C0
0F00
1F80
30C0
2040
6060
6060
6060
6060
6060
6060
6060
2040
30C0
1F80
0F00
ENDCHAR
STARTCHAR uni1ED3
ENCODING 7891
SWIDTH 600 0
DWIDTH 12 0
BBX 11 17 0 0
BITMAP
C000
6000
2700
0D80
18C0
0000
0F00
1F80
30C0
6060
6060
6060
6060
6060
30C0
1F80
0F00
ENDCHAR
STARTCHAR uni1ED4
ENCODING 7892
SWIDTH 600 0
DWIDTH 12 0
BBX 11 20 1 0
BITMAP
00E0
0020
0EC0
3300
6180
1E00
3F00
6180
4080
C0C0
C0C0
C0C0
C0C0
C0C0
C0C0
C0C0
4080
6180
3F00
1E00
ENDCHAR
STARTCHAR uni1ED5
ENCODING 7893
SWIDTH 600 0
DWIDTH 12 0
BBX 11 17 1 0
BITMAP
00E0
0020
0EC0
3300
6180
0000
1E00
3F00
6180
C0C0
C0C0
C0C0
C0C0
C0C0
6180
3F00
1E00
ENDCHAR
STARTCHAR uni1ED6
ENCODING 7894
SWIDTH 600 0
DWIDTH 12 0
BBX 10 21 1 0
BITMAP
0900
1600
0000
0E00
1300
2180
1E00
3F00
6180
4080
C0C0
C0C0
C0C0
C0C0
C0C0
C0C0
C0C0
4080
6180
3F00
1E00
ENDCHAR
STARTCHAR uni1ED7
ENCODING 7895
SWIDTH 600 0
DWIDTH 12 0
BBX 10 18 1 0
BITMAP
0900
1600
0000
0E00
1300
2180
0000
1E00
3F00
6180
C0C0
C0C0
C0C0
C0C0
C0C0
6180
3F00
1E00
ENDCHAR
STARTCHAR uni1ED8
ENCODING 7896
SWIDTH 600 0
DWIDTH 12 0
BBX 10 22 1 -3
BITMAP
0C00
1600
2100
0000
1E00
3F00
6180
4080
C0C0
C0C0
C0C0
C0C0
C0C0
C0C0
C0C0
4080
6180
3F00
1E00
0000
0C00
0C00
ENDCHAR
STARTCHAR uni1ED9
ENCODING 7897
SWIDTH 600 0
DWIDTH 12 0
BBX 10 18 1 -3
BITMAP
0C00
1600
2100
0000
1E00
3F00
6180
C0C0
C0C0
C0C0
C0C0
C0C0
6180
3F00
1E00
0000
0C00
0C00
ENDCHAR
STARTCHAR uni1EDA
ENCODING 7898
SWIDTH 600 0
DWIDTH 12 0
BBX 11 18 1 0
BITMAP
0700
0400
0800
1E60
3FE0
61C0
C080
C0C0
C0C0
C0C0
C0C0
C0C0
C0C0
C0C0
4080
6180
3F00
1E00
ENDCHAR
STARTCHAR uni1EDB
ENCODING 7899
SWIDTH 600 0
DWIDTH 12 0
BBX 11 15 1 0
BITMAP
0700
0400
0800
0060
1E40
7FC0
6180
C080
C0C0
C0C0
C0C0
C0C0
6180
7F00
1E00
ENDCHAR
STARTCHAR uni1EDC
ENCODING 7900
SWIDTH 600 0
DWIDTH 12 0
BBX 11 18 1 0
BITMAP
3800
0800
0400
1E60
3FE0
61C0
C080
C0C0
C0C0
C0C0
C0C0
C0C0
C0C0
C0C0
4080
6180
3F00
1E00
ENDCHAR
STARTCHAR uni1EDD
ENCODING 7901
SWIDTH 600 0
DWIDTH 12 0
BBX 11 15 1 0
BITMAP
3800
0800
0400
0060
1E40
7FC0
6180
C080
C0C0
C0C0
C0C0
C0C0
6180
7F00
1E00
ENDCHAR
STARTCHAR uni1EDE
ENCODING 7902
SWIDTH 600 0
DWIDTH 12 0
BBX 11 20 1 0
BITMAP
0800
0E00
0200
0600
0400
1E60
3FE0
61C0
C080
C0C0
C0C0
C0C0
C0C0
C0C0
C0C0
C0C0
4080
6180
3F00
1E00
ENDCHAR
STARTCHAR uni1EDF
ENCODING 7903
SWIDTH 600 0
DWIDTH 12 0
BBX 11 17 1 0
BITMAP
0800
0E00
0200
0600
0400
0060
1E40
7FC0
6180
C080
C0C0
C0C0
C0C0
C0C0
6180
7F00
1E00
ENDCHAR
STARTCHAR uni1EE0
ENCODING 7904
SWIDTH 600 0
DWIDTH 12 0
BBX 11 18 1 0
BITMAP
3F00
6000
0000
1E60
3FE0
61C0
C080
C0C0
C0C0
C0C0
C0C0
C0C0
C0C0
C0C0
4080
6180
3F00
1E00
ENDCHAR
STARTCHAR uni1EE1
ENCODING 7905
SWIDTH 600 0
DWIDTH 12 0
BBX 11 15 1 0
BITMAP
3F00
6000
0000
0060
1E40
7FC0
6180
C080
C0C0
C0C0
C0C0
C0C0
6180
7F00
1E00
ENDCHAR
STARTCHAR uni1EE2
ENCODING 7906
SWIDTH 600 0
DWIDTH 12 0
BBX 11 18 1 -3
BITMAP
1E60
3FE0
61C0
C080
C0C0
C0C0
C0C0
C0C0
C0C0
C0C0
C0C0
4080
6180
3F00
1E00
0000
0C00
0C00
ENDCHAR
STARTCHAR uni1EE3
ENCODING 7907
SWIDTH 600 0
DWIDTH 12 0
BBX 11 15 1 -3
BITMAP
0060
1E40
7FC0
6180
C080
C0C0
C0C0
C0C0
C0C0
6180
7F00
1E00
0000
0C00
0C00
ENDCHAR
STARTCHAR uni1EE4
ENCODING 7908
SWIDTH 600 0
DWIDTH 12 0
BBX 10 18 1 -3
BITMAP
C0C0
C0C0
C0C0
C0C0
C0C0
C0C0
C0C0
C0C0
C0C0
C0C0
C0C0
4080
6180
3F00
1E00
0000
0C00
0C00
ENDCHAR
STARTCHAR uni1EE5
ENCODING 7909
SWIDTH 600 0
DWIDTH 12 0
BBX 8 14 2 -3
BITMAP
C3
C3
C3
C3
C3
C3
C3
C3
C3
FF
7D
00
30
30
ENDCHAR
STARTCHAR uni1EE6
ENCODING 7910
SWIDTH 600 0
DWIDTH 12 0
BBX 10 20 1 0
BITMAP
0800
0E00
0200
0600
0400
C0C0
C0C0
C0C0
C0C0
C0C0
C0C0
C0C0
C0C0
C0C0
C0C0
C0C0
4080
6180
3F00
1E00
ENDCHAR
STARTCHAR uni1EE7
ENCODING 7911
SWIDTH 600 0
DWIDTH 12 0
BBX 8 17 2 0
BITMAP
10
1C
04
0C
08
00
C3
C3
C3
C3
C3
C3
C3
C3
C3
FF
7D
ENDCHAR
STARTCHAR uni1EE8
ENCODING 7912
SWIDTH 600 0
DWIDTH 12 0
BBX 13 18 1 0
BITMAP
0700
0400
0800
C0D8
C0D8
C0F0
C0E0
C0C0
C0C0
C0C0
C0C0
C0C0
C0C0
C0C0
4080
6180
3F00
1E00
ENDCHAR
STARTCHAR uni1EE9
ENCODING 7913
SWIDTH 600 0
DWIDTH 12 0
BBX 11 15 2 0
BITMAP
0E00
0800
1000
0060
C360
C3E0
C3C0
C300
C300
C300
C300
C300
C300
FD00
7900
ENDCHAR
STARTCHAR uni1EEA
ENCODING 7914
SWIDTH 600 0
DWIDTH 12 0
BBX 13 18 1 0
BITMAP
3800
0800
0400
C0D8
C0D8
C0F0
C0E0
C0C0
C0C0
C0C0
C0C0
C0C0
C0C0
C0C0
4080
6180
3F00
1E00
ENDCHAR
STARTCHAR uni1EEB
ENCODING 7915
SWIDTH 600 0
DWIDTH 12 0
BBX 11 15 2 0
BITMAP
7000
1000
0800
0060
C360
C3E0
C3C0
C300
C300
C300
C300
C300
C300
FD00
7900
ENDCHAR
STARTCHAR uni1EEC
ENCODING 7916
SWIDTH 600 0
DWIDTH 12 0
BBX 13 20 1 0
BITMAP
0800
0E00
0200
0600
0400
C0D8
C0D8
C0F0
C0E0
C0C0
C0C0
C0C0
C0C0
C0C0
C0C0
C0C0
4080
6180
3F00
1E00
ENDCHAR
STARTCHAR uni1EED
ENCODING 7917
SWIDTH 600 0
DWIDTH 12 0
BBX 11 17 2 0
BITMAP
1000
1C00
0400
0C00
0800
0060
C360
C3E0
C3C0
C300
C300
C300
C300
C300
C300
FD00
7900
ENDCHAR
STARTCHAR uni1EEE
ENCODING 7918
SWIDTH 600 0
DWIDTH 12 0
BBX 13 18 1 0
BITMAP
3F00
6000
0000
C0D8
C0D8
C0F0
C0E0
C0C0
C0C0
C0C0
C0C0
C0C0
C0C0
C0C0
4080
6180
3F00
1E00
ENDCHAR
STARTCHAR uni1EEF
ENCODING 7919
SWIDTH 600 0
DWIDTH 12 0
BBX 11 15 2 0
BITMAP
7E00
C000
0000
0060
C360
C3E0
C3C0
C300
C300
C300
C300
C300
C300
FD00
7900
ENDCHAR
STARTCHAR uni1EF0
ENCODING 7920
SWIDTH 600 0
DWIDTH 12 0
BBX 13 18 1 -3
BITMAP
C0D8
C0D8
C0F0
C0E0
C0C0
C0C0
C0C0
C0C0
C0C0
C0C0
C0C0
4080
6180
3F00
1E00
0000
0C00
0C00
ENDCHAR
STARTCHAR uni1EF1
ENCODING 7921
SWIDTH 600 0
DWIDTH 12 0
BBX 11 15 2 -3
BITMAP
0060
C360
C3E0
C3C0
C300
C300
C300
C300
C300
C300
FD00
7900
0000
3000
3000
ENDCHAR
STARTCHAR Ygrave
ENCODING 7922
SWIDTH 600 0
DWIDTH 12 0
BBX 10 18 1 0
BITMAP
3800
0800
0400
C0C0
C180
6180
6180
3300
3300
1E00
1E00
0C00
0C00
0C00
0C00
0C00
0C00
0C00
ENDCHAR
STARTCHAR ygrave
ENCODING 7923
SWIDTH 600 0
DWIDTH 12 0
BBX 10 19 1 -4
BITMAP
3800
0800
0400
0000
C0C0
C0C0
6180
6180
3100
3300
1200
1E00
1E00
0C00
0C00
0800
1800
7000
E000
ENDCHAR
STARTCHAR uni1EF4
ENCODING 7924
SWIDTH 600 0
DWIDTH 12 0
BBX 10 18 1 -3
BITMAP
C0C0
C180
6180
6180
3300
3300
1E00
1E00
0C00
0C00
0C00
0C00
0C00
0C00
0C00
0000
0C00
0C00
ENDCHAR
STARTCHAR uni1EF5
ENCODING 7925
SWIDTH 600 0
DWIDTH 12 0
BBX 10 16 1 -5
BITMAP
C0C0
C0C0
6180
6180
3100
3300
1200
1E00
1E00
0C00
0C00
0800
1800
7000
E300
0300
ENDCHAR
STARTCHAR uni1EF6
ENCODING 7926
SWIDTH 600 0
DWIDTH 12 0
BBX 10 20 1 0
BITMAP
0800
0E00
0200
0600
0400
C0C0
C180
6180
6180
3300
3300
1E00
1E00
0C00
0C00
0C00
0C00
0C00
0C00
0C00
ENDCHAR
STARTCHAR uni1EF7
ENCODING 7927
SWIDTH 600 0
DWIDTH 12 0
BBX 10 21 1 -4
BITMAP
0800
0E00
0200
0600
0400
0000
C0C0
C0C0
6180
6180
3100
3300
1200
1E00
1E00
0C00
0C00
0800
1800
7000
E000
ENDCHAR
STARTCHAR uni1EF8
ENCODING 7928
SWIDTH 600 0
DWIDTH 12 0
BBX 10 18 1 0
BITMAP
3F00
6000
0000
C0C0
C180
6180
6180
3300
3300
1E00
1E00
0C00
0C00
0C00
0C00
0C00
0C00
0C00
ENDCHAR
STARTCHAR uni1EF9
ENCODING 7929
SWIDTH 600 0
DWIDTH 12 0
BBX 10 19 1 -4
BITMAP
3F00
6000
0000
0000
C0C0
C0C0
6180
6180
3100
3300
1200
1E00
1E00
0C00
0C00
0800
1800
7000
E000
ENDCHAR
STARTCHAR uni1F4D
ENCODING 8013
SWIDTH 600 0
DWIDTH 12 0
BBX 12 16 -1 0
BITMAP
5000
B780
AFC0
9860
1020
3030
3030
3030
3030
3030
3030
3030
1020
1860
0FC0
0780
ENDCHAR
STARTCHAR uni2000
ENCODING 8192
SWIDTH 600 0
DWIDTH 12 0
BBX 1 1 0 0
BITMAP
00
ENDCHAR
STARTCHAR uni2001
ENCODING 8193
SWIDTH 600 0
DWIDTH 12 0
BBX 1 1 0 0
BITMAP
00
ENDCHAR
STARTCHAR uni2002
ENCODING 8194
SWIDTH 600 0
DWIDTH 12 0
BBX 1 1 0 0
BITMAP
00
ENDCHAR
STARTCHAR uni2003
ENCODING 8195
SWIDTH 600 0
DWIDTH 12 0
BBX 1 1 0 0
BITMAP
00
ENDCHAR
STARTCHAR uni2004
ENCODING 8196
SWIDTH 600 0
DWIDTH 12 0
BBX 1 1 0 0
BITMAP
00
ENDCHAR
STARTCHAR uni2005
ENCODING 8197
SWIDTH 600 0
DWIDTH 12 0
BBX 1 1 0 0
BITMAP
00
ENDCHAR
STARTCHAR uni2006
ENCODING 8198
SWIDTH 600 0
DWIDTH 12 0
BBX 1 1 0 0
BITMAP
00
ENDCHAR
STARTCHAR uni2007
ENCODING 8199
SWIDTH 600 0
DWIDTH 12 0
BBX 1 1 0 0
BITMAP
00
ENDCHAR
STARTCHAR uni2008
ENCODING 8200
SWIDTH 600 0
DWIDTH 12 0
BBX 1 1 0 0
BITMAP
00
ENDCHAR
STARTCHAR uni2009
ENCODING 8201
SWIDTH 600 0
DWIDTH 12 0
BBX 1 1 0 0
BITMAP
00
ENDCHAR
STARTCHAR uni200A
ENCODING 8202
SWIDTH 600 0
DWIDTH 12 0
BBX 1 1 0 0
BITMAP
00
ENDCHAR
STARTCHAR uni200B
ENCODING 8203
SWIDTH 600 0
DWIDTH 12 0
BBX 1 1 0 0
BITMAP
00
ENDCHAR
STARTCHAR endash
ENCODING 8211
SWIDTH 600 0
DWIDTH 12 0
BBX 11 2 1 6
BITMAP
FFE0
FFE0
ENDCHAR
STARTCHAR emdash
ENCODING 8212
SWIDTH 600 0
DWIDTH 12 0
BBX 11 2 1 6
BITMAP
FFE0
FFE0
ENDCHAR
STARTCHAR uni2015
ENCODING 8213
SWIDTH 600 0
DWIDTH 12 0
BBX 11 2 1 6
BITMAP
FFE0
FFE0
ENDCHAR
STARTCHAR underscoredbl
ENCODING 8215
SWIDTH 600 0
DWIDTH 12 0
BBX 8 4 2 -3
BITMAP
FF
FF
FF
FF
ENDCHAR
STARTCHAR quoteleft
ENCODING 8216
SWIDTH 600 0
DWIDTH 12 0
BBX 2 5 5 10
BITMAP
40
C0
C0
C0
C0
ENDCHAR
STARTCHAR quoteright
ENCODING 8217
SWIDTH 600 0
DWIDTH 12 0
BBX 2 5 5 11
BITMAP
C0
C0
C0
C0
80
ENDCHAR
STARTCHAR quotesinglbase
ENCODING 8218
SWIDTH 600 0
DWIDTH 12 0
BBX 3 5 4 -3
BITMAP
60
60
60
60
C0
ENDCHAR
STARTCHAR quotereversed
ENCODING 8219
SWIDTH 600 0
DWIDTH 12 0
BBX 3 5 5 11
BITMAP
C0
C0
C0
C0
60
ENDCHAR
STARTCHAR quotedblleft
ENCODING 8220
SWIDTH 600 0
DWIDTH 12 0
BBX 6 5 3 10
BITMAP
44
CC
CC
CC
CC
ENDCHAR
STARTCHAR quotedblright
ENCODING 8221
SWIDTH 600 0
DWIDTH 12 0
BBX 6 5 3 11
BITMAP
CC
CC
CC
CC
98
ENDCHAR
STARTCHAR quotedblbase
ENCODING 8222
SWIDTH 600 0
DWIDTH 12 0
BBX 6 5 3 -3
BITMAP
6C
6C
68
58
D8
ENDCHAR
STARTCHAR dagger
ENCODING 8224
SWIDTH 600 0
DWIDTH 12 0
BBX 10 15 1 0
BITMAP
0C00
0C00
0C00
0C00
FFC0
FC00
0C00
0C00
0C00
0C00
0C00
0C00
0C00
0C00
0C00
ENDCHAR
STARTCHAR daggerdbl
ENCODING 8225
SWIDTH 600 0
DWIDTH 12 0
BBX 10 19 1 -4
BITMAP
0C00
0C00
0C00
0C00
FFC0
FC00
0C00
0C00
0C00
0C00
0C00
0C00
0C00
0FC0
FFC0
0C00
0C00
0C00
0C00
ENDCHAR
STARTCHAR bullet
ENCODING 8226
SWIDTH 600 0
DWIDTH 12 0
BBX 4 5 4 5
BITMAP
60
F0
F0
F0
60
ENDCHAR
STARTCHAR uni2025
ENCODING 8229
SWIDTH 600 0
DWIDTH 12 0
BBX 7 3 4 0
BITMAP
CC
EE
CC
ENDCHAR
STARTCHAR ellipsis
ENCODING 8230
SWIDTH 600 0
DWIDTH 12 0
BBX 10 3 3 0
BITMAP
CD80
EFC0
CD80
ENDCHAR
STARTCHAR perthousand
ENCODING 8240
SWIDTH 600 0
DWIDTH 12 0
BBX 11 15 1 0
BITMAP
6000
F000
9000
9100
9300
F600
4800
1000
6000
DDC0
1FC0
3260
3260
1FC0
1DC0
ENDCHAR
STARTCHAR minute
ENCODING 8242
SWIDTH 600 0
DWIDTH 12 0
BBX 1 5 5 10
BITMAP
80
80
80
80
80
ENDCHAR
STARTCHAR second
ENCODING 8243
SWIDTH 600 0
DWIDTH 12 0
BBX 5 5 3 10
BITMAP
C8
C8
C8
C8
C8
ENDCHAR
STARTCHAR guilsinglleft
ENCODING 8249
SWIDTH 600 0
DWIDTH 12 0
BBX 4 8 4 2
BITMAP
30
20
60
C0
C0
60
20
30
ENDCHAR
STARTCHAR guilsinglright
ENCODING 8250
SWIDTH 600 0
DWIDTH 12 0
BBX 4 8 4 2
BITMAP
C0
40
60
30
30
60
40
C0
ENDCHAR
STARTCHAR exclamdbl
ENCODING 8252
SWIDTH 1200 0
DWIDTH 24 0
BBX 14 15 5 0
BITMAP
C00C
C00C
C00C
C00C
C00C
C00C
C00C
C00C
C00C
C00C
0000
0000
0000
C00C
C00C
ENDCHAR
STARTCHAR fraction
ENCODING 8260
SWIDTH 600 0
DWIDTH 12 0
BBX 6 10 3 2
BITMAP
04
0C
08
10
30
20
60
40
C0
80
ENDCHAR
STARTCHAR uni2074
ENCODING 8308
SWIDTH 600 0
DWIDTH 12 0
BBX 7 9 3 6
BITMAP
0C
1C
3C
2C
6C
CC
FE
FC
0C
ENDCHAR
STARTCHAR nsuperior
ENCODING 8319
SWIDTH 600 0
DWIDTH 12 0
BBX 6 8 3 7
BITMAP
DC
FC
C4
C4
C4
C4
C4
C4
ENDCHAR
STARTCHAR franc
ENCODING 8355
SWIDTH 600 0
DWIDTH 12 0
BBX 11 15 0 0
BITMAP
3FE0
3000
3000
3000
3000
3000
3000
3FC0
3000
3000
3000
FC00
FC00
3000
3000
ENDCHAR
STARTCHAR lira
ENCODING 8356
SWIDTH 600 0
DWIDTH 12 0
BBX 10 15 1 0
BITMAP
0F00
1F80
30C0
20C0
2000
2000
3E00
FE00
2000
FE00
F000
3000
2000
7FC0
FFC0
ENDCHAR
STARTCHAR peseta
ENCODING 8359
SWIDTH 600 0
DWIDTH 12 0
BBX 11 15 1 0
BITMAP
F000
D980
CD80
CD80
CFE0
CD80
CD80
DD80
F980
C180
C180
C180
C180
C1E0
C0E0
ENDCHAR
STARTCHAR uni20AB
ENCODING 8363
SWIDTH 614 0
DWIDTH 12 0
BBX 11 17 1 -2
BITMAP
0180
07E0
07E0
0180
1F80
3F80
6180
4180
C180
C180
C180
4180
6180
3F80
1E80
7F80
7F80
ENDCHAR
STARTCHAR Euro
ENCODING 8364
SWIDTH 600 0
DWIDTH 12 0
BBX 10 15 1 0
BITMAP
07C0
1F80
1800
3000
3000
3F00
FF00
3000
FF00
F000
3000
3000
1800
1F80
07C0
ENDCHAR
STARTCHAR uni2105
ENCODING 8453
SWIDTH 600 0
DWIDTH 12 0
BBX 10 14 1 0
BITMAP
F000
9800
8100
8300
9A00
7600
0400
0C00
0BC0
1A40
1640
3640
0240
03C0
ENDCHAR
STARTCHAR uni2113
ENCODING 8467
SWIDTH 600 0
DWIDTH 12 0
BBX 8 14 2 0
BITMAP
1E
33
33
33
33
36
36
3C
F8
F0
30
30
18
0C
ENDCHAR
STARTCHAR uni2116
ENCODING 8470
SWIDTH 600 0
DWIDTH 12 0
BBX 10 14 1 0
BITMAP
CDC0
C540
E540
E540
E5C0
F400
F5C0
D400
D400
DC00
DC00
CC00
CC00
CC00
ENDCHAR
STARTCHAR trademark
ENCODING 8482
SWIDTH 600 0
DWIDTH 12 0
BBX 10 5 1 9
BITMAP
F4C0
4CC0
4B40
4B40
4940
ENDCHAR
STARTCHAR Omega.dup3
ENCODING 8486
SWIDTH 600 0
DWIDTH 12 0
BBX 10 15 1 0
BITMAP
1E00
3F00
6180
C0C0
C0C0
C0C0
C0C0
C0C0
C0C0
C0C0
4080
6180
2100
13C0
F3C0
ENDCHAR
STARTCHAR estimated
ENCODING 8494
SWIDTH 600 0
DWIDTH 12 0
BBX 9 11 2 0
BITMAP
1C00
6300
4180
C180
C180
FF80
C000
C000
C000
4100
3E00
ENDCHAR
STARTCHAR oneeighth
ENCODING 8539
SWIDTH 600 0
DWIDTH 12 0
BBX 11 14 1 0
BITMAP
2000
E000
2100
2300
2200
2400
2C00
0BC0
1A60
13E0
33C0
2220
0360
01C0
ENDCHAR
STARTCHAR threeeighths
ENCODING 8540
SWIDTH 600 0
DWIDTH 12 0
BBX 11 14 1 0
BITMAP
7000
9800
1900
3300
0A00
8C00
FC00
0BC0
1A60
13E0
33C0
2220
0360
01C0
ENDCHAR
STARTCHAR fiveeighths
ENCODING 8541
SWIDTH 600 0
DWIDTH 12 0
BBX 11 14 1 0
BITMAP
F800
C000
A100
FB00
0A00
9C00
7C00
0BC0
1A60
13E0
33C0
2220
0360
01C0
ENDCHAR
STARTCHAR seveneighths
ENCODING 8542
SWIDTH 600 0
DWIDTH 12 0
BBX 11 14 1 0
BITMAP
F800
1800
1100
3300
2200
6400
4C00
0BC0
1A60
13E0
33C0
2220
0360
01C0
ENDCHAR
STARTCHAR partialdiff
ENCODING 8706
SWIDTH 600 0
DWIDTH 12 0
BBX 10 15 1 0
BITMAP
3C00
7F00
0300
0180
0180
1E80
7FC0
61C0
C0C0
C0C0
C0C0
C080
6180
7300
3E00
ENDCHAR
STARTCHAR Delta.dup4
ENCODING 8710
SWIDTH 600 0
DWIDTH 12 0
BBX 12 15 0 0
BITMAP
0600
0700
0700
0D00
0D00
0980
1980
1880
10C0
30C0
3040
2060
6060
6060
FFF0
ENDCHAR
STARTCHAR product
ENCODING 8719
SWIDTH 600 0
DWIDTH 12 0
BBX 8 16 2 -2
BITMAP
FF
81
81
81
81
81
81
81
81
81
81
81
81
81
81
81
ENDCHAR
STARTCHAR summation
ENCODING 8721
SWIDTH 600 0
DWIDTH 12 0
BBX 10 17 1 -3
BITMAP
FFC0
C000
6000
7000
3000
1800
0C00
0600
0600
0C00
0C00
1800
3000
6000
C000
FFC0
FFC0
ENDCHAR
STARTCHAR minus
ENCODING 8722
SWIDTH 600 0
DWIDTH 12 0
BBX 8 2 2 6
BITMAP
FF
FF
ENDCHAR
STARTCHAR radical
ENCODING 8730
SWIDTH 600 0
DWIDTH 12 0
BBX 10 14 1 0
BITMAP
00C0
00C0
0080
0180
0180
0100
E300
E300
2600
3600
3400
1400
1C00
0800
ENDCHAR
STARTCHAR infinity
ENCODING 8734
SWIDTH 600 0
DWIDTH 12 0
BBX 11 8 1 2
BITMAP
6180
F3C0
8C40
8C40
8C60
8C40
D2C0
6180
ENDCHAR
STARTCHAR integral
ENCODING 8747
SWIDTH 600 0
DWIDTH 12 0
BBX 8 19 2 -4
BITMAP
0F
18
18
18
18
18
18
18
18
18
18
18
18
18
18
18
18
30
F0
ENDCHAR
STARTCHAR approxequal
ENCODING 8776
SWIDTH 600 0
DWIDTH 12 0
BBX 10 7 1 3
BITMAP
7840
FFC0
8780
0000
3040
FCC0
8780
ENDCHAR
STARTCHAR notequal
ENCODING 8800
SWIDTH 600 0
DWIDTH 12 0
BBX 8 9 2 2
BITMAP
06
04
FF
08
08
10
FF
20
20
ENDCHAR
STARTCHAR lessequal
ENCODING 8804
SWIDTH 600 0
DWIDTH 12 0
BBX 8 12 2 0
BITMAP
01
07
1E
F0
C0
78
0F
03
00
00
FF
FF
ENDCHAR
STARTCHAR greaterequal
ENCODING 8805
SWIDTH 600 0
DWIDTH 12 0
BBX 8 12 2 0
BITMAP
80
E0
78
0F
03
1E
F0
C0
00
00
FF
FF
ENDCHAR
STARTCHAR lozenge
ENCODING 9674
SWIDTH 600 0
DWIDTH 12 0
BBX 10 14 1 0
BITMAP
0C00
1E00
1200
3300
2100
6180
C0C0
6180
6180
3300
3300
1E00
1E00
0C00
ENDCHAR
STARTCHAR commaaccent
ENCODING 63171
SWIDTH 600 0
DWIDTH 12 0
BBX 2 4 3 -2
BITMAP
40
40
C0
80
ENDCHAR
STARTCHAR uniFEFF
ENCODING 65279
SWIDTH 600 0
DWIDTH 12 0
BBX 1 1 0 0
BITMAP
00
ENDCHAR
STARTCHAR uniFFFC
ENCODING 65532
SWIDTH 600 0
DWIDTH 12 0
BBX 10 10 1 0
BITMAP
FD40
0000
8040
2C80
DEC0
DAC0
A540
8040
8040
FD40
ENDCHAR
STARTCHAR uniFFFD
ENCODING 65533
SWIDTH 600 0
DWIDTH 12 0
BBX 12 19 0 -3
BITMAP
0400
0600
0600
0F00
1F80
1F80
30C0
2240
7E60
FCF0
7CE0
79E0
3FC0
3980
1980
0F00
0F00
0600
0400
ENDCHAR
STARTCHAR .notdef
ENCODING -1
SWIDTH 600 0
DWIDTH 12 0
BBX 1 1 0 0
BITMAP
00
ENDCHAR
STARTCHAR two.sup
ENCODING -1
SWIDTH 600 0
DWIDTH 12 0
BBX 6 8 3 0
BITMAP
78
FC
CC
08
18
20
7C
FC
ENDCHAR
STARTCHAR circumflextildecomb
ENCODING -1
SWIDTH 600 0
DWIDTH 12 0
BBX 7 5 3 12
BITMAP
7C
48
30
68
C6
ENDCHAR
STARTCHAR circumflexhookcomb
ENCODING -1
SWIDTH 600 0
DWIDTH 12 0
BBX 10 5 2 12
BITMAP
0180
0040
1980
2400
C300
ENDCHAR
STARTCHAR circumflexgravecomb
ENCODING -1
SWIDTH 600 0
DWIDTH 12 0
BBX 10 4 0 12
BITMAP
E000
2600
0D80
18C0
ENDCHAR
STARTCHAR circumflexacutecomb
ENCODING -1
SWIDTH 600 0
DWIDTH 12 0
BBX 9 4 3 12
BITMAP
0180
3300
7800
C600
ENDCHAR
STARTCHAR brevegravecomb
ENCODING -1
SWIDTH 600 0
DWIDTH 12 0
BBX 6 5 3 12
BITMAP
E0
20
10
C4
78
ENDCHAR
STARTCHAR commaaccentrotate
ENCODING -1
SWIDTH 600 0
DWIDTH 12 0
BBX 2 5 5 11
BITMAP
40
C0
C0
C0
C0
ENDCHAR
STARTCHAR A.smcp
ENCODING -1
SWIDTH 600 0
DWIDTH 12 0
BBX 10 12 1 0
BITMAP
0C00
0C00
1E00
1E00
1200
3300
2100
7F80
7F80
4080
C0C0
C0C0
ENDCHAR
STARTCHAR B.smcp
ENCODING -1
SWIDTH 600 0
DWIDTH 12 0
BBX 9 12 2 0
BITMAP
F000
FE00
C300
C100
C300
CF00
FE00
C300
C180
C180
CF00
FE00
ENDCHAR
STARTCHAR C.smcp
ENCODING -1
SWIDTH 600 0
DWIDTH 12 0
BBX 10 12 1 0
BITMAP
1E00
7F80
6180
C0C0
C000
C000
C000
C000
C0C0
6180
7F00
1E00
ENDCHAR
STARTCHAR D.smcp
ENCODING -1
SWIDTH 600 0
DWIDTH 12 0
BBX 9 12 2 0
BITMAP
E000
FE00
C700
C300
C180
C180
C180
C180
C100
C300
DE00
FC00
ENDCHAR
STARTCHAR E.smcp
ENCODING -1
SWIDTH 600 0
DWIDTH 12 0
BBX 8 12 2 0
BITMAP
FF
FF
C0
C0
C0
FE
C0
C0
C0
C0
FF
FF
ENDCHAR
STARTCHAR F.smcp
ENCODING -1
SWIDTH 600 0
DWIDTH 12 0
BBX 9 12 2 0
BITMAP
FF80
FF80
C000
C000
C000
FF00
FF00
C000
C000
C000
C000
C000
ENDCHAR
STARTCHAR G.smcp
ENCODING -1
SWIDTH 600 0
DWIDTH 12 0
BBX 10 12 1 0
BITMAP
1E00
3F80
6180
40C0
C000
C000
C7C0
C7C0
40C0
60C0
3FC0
1F00
ENDCHAR
STARTCHAR H.smcp
ENCODING -1
SWIDTH 600 0
DWIDTH 12 0
BBX 8 12 2 0
BITMAP
83
83
83
83
83
83
FF
83
83
83
83
83
ENDCHAR
STARTCHAR I.smcp
ENCODING -1
SWIDTH 600 0
DWIDTH 12 0
BBX 8 12 2 0
BITMAP
FF
FF
18
18
18
18
18
18
18
18
1F
FF
ENDCHAR
STARTCHAR J.smcp
ENCODING -1
SWIDTH 600 0
DWIDTH 12 0
BBX 9 12 1 0
BITMAP
0180
0180
0180
0180
0180
0180
0180
0180
C180
6100
7F00
3E00
ENDCHAR
STARTCHAR K.smcp
ENCODING -1
SWIDTH 600 0
DWIDTH 12 0
BBX 9 12 2 0
BITMAP
C380
C700
CE00
CC00
D800
F000
F800
CC00
CE00
C600
C300
C180
ENDCHAR
STARTCHAR L.smcp
ENCODING -1
SWIDTH 600 0
DWIDTH 12 0
BBX 9 12 2 0
BITMAP
C000
C000
C000
C000
C000
C000
C000
C000
C000
C000
FF80
FF80
ENDCHAR
STARTCHAR M.smcp
ENCODING -1
SWIDTH 600 0
DWIDTH 12 0
BBX 9 12 2 0
BITMAP
C380
E380
E780
A580
BD80
BD80
9980
9980
9980
8180
8180
8180
ENDCHAR
STARTCHAR N.smcp
ENCODING -1
SWIDTH 600 0
DWIDTH 12 0
BBX 8 12 2 0
BITMAP
C3
C3
E3
E3
F3
DB
DB
CF
C7
C7
C3
C3
ENDCHAR
STARTCHAR O.smcp
ENCODING -1
SWIDTH 600 0
DWIDTH 12 0
BBX 10 12 1 0
BITMAP
1E00
3F00
6180
4080
C0C0
C0C0
C0C0
C0C0
4080
6180
3F00
1E00
ENDCHAR
STARTCHAR Q.smcp
ENCODING -1
SWIDTH 600 0
DWIDTH 12 0
BBX 10 14 1 -2
BITMAP
1E00
7F00
6180
C0C0
C0C0
C0C0
C0C0
C0C0
C0C0
6180
7F80
1F00
01C0
0080
ENDCHAR
STARTCHAR R.smcp
ENCODING -1
SWIDTH 600 0
DWIDTH 12 0
BBX 9 12 1 0
BITMAP
F800
FF00
C380
C180
C180
C380
FF00
C600
C200
C300
C180
C180
ENDCHAR
STARTCHAR S.smcp
ENCODING -1
SWIDTH 600 0
DWIDTH 12 0
BBX 10 12 1 0
BITMAP
1E00
7F80
6180
60C0
6000
3E00
0F00
0180
C0C0
6080
7F80
1F00
ENDCHAR
STARTCHAR T.smcp
ENCODING -1
SWIDTH 600 0
DWIDTH 12 0
BBX 10 12 1 0
BITMAP
FFC0
FFC0
0C00
0C00
0C00
0C00
0C00
0C00
0C00
0C00
0C00
0C00
ENDCHAR
STARTCHAR U.smcp
ENCODING -1
SWIDTH 600 0
DWIDTH 12 0
BBX 8 12 2 0
BITMAP
C1
C1
C1
C1
C1
C1
C1
C1
C1
C3
7F
3C
ENDCHAR
STARTCHAR V.smcp
ENCODING -1
SWIDTH 600 0
DWIDTH 12 0
BBX 10 12 1 0
BITMAP
C0C0
C0C0
60C0
6180
6180
3100
3300
3300
1A00
1E00
0C00
0C00
ENDCHAR
STARTCHAR W.smcp
ENCODING -1
SWIDTH 600 0
DWIDTH 12 0
BBX 12 12 0 0
BITMAP
C630
4630
4620
6720
6760
6D60
2D60
2940
39C0
39C0
38C0
10C0
ENDCHAR
STARTCHAR X.smcp
ENCODING -1
SWIDTH 600 0
DWIDTH 12 0
BBX 10 12 1 0
BITMAP
C1C0
6180
3300
3700
1E00
0C00
0C00
1E00
3300
3300
6180
C0C0
ENDCHAR
STARTCHAR Y.smcp
ENCODING -1
SWIDTH 600 0
DWIDTH 12 0
BBX 10 12 1 0
BITMAP
C0C0
C0C0
6180
6180
3300
1E00
1E00
0C00
0C00
0C00
0C00
0C00
ENDCHAR
STARTCHAR Z.smcp
ENCODING -1
SWIDTH 600 0
DWIDTH 12 0
BBX 9 12 2 0
BITMAP
FF00
FF00
0300
0600
0C00
0C00
1800
3000
6000
6000
FF80
FF80
ENDCHAR
STARTCHAR brevehookcomb
ENCODING -1
SWIDTH 600 0
DWIDTH 12 0
BBX 6 6 3 12
BITMAP
30
08
38
10
CC
38
ENDCHAR
STARTCHAR one.sup
ENCODING -1
SWIDTH 600 0
DWIDTH 12 0
BBX 4 8 3 0
BITMAP
10
F0
B0
30
30
30
30
30
ENDCHAR
STARTCHAR breveacutecomb
ENCODING -1
SWIDTH 600 0
DWIDTH 12 0
BBX 6 4 3 12
BITMAP
18
10
CC
78
ENDCHAR
STARTCHAR three.sup
ENCODING -1
SWIDTH 600 0
DWIDTH 12 0
BBX 6 8 3 0
BITMAP
78
FC
0C
18
38
0C
CC
78
ENDCHAR
STARTCHAR four.sup
ENCODING -1
SWIDTH 600 0
DWIDTH 12 0
BBX 6 8 3 0
BITMAP
18
38
28
68
C8
FC
F8
08
ENDCHAR
STARTCHAR five.sup
ENCODING -1
SWIDTH 600 0
DWIDTH 12 0
BBX 6 8 3 0
BITMAP
78
78
40
F8
4C
0C
CC
78
ENDCHAR
STARTCHAR seven.sup
ENCODING -1
SWIDTH 600 0
DWIDTH 12 0
BBX 6 8 3 0
BITMAP
FC
FC
08
18
10
30
20
60
ENDCHAR
STARTCHAR eight.sup
ENCODING -1
SWIDTH 600 0
DWIDTH 12 0
BBX 6 8 3 0
BITMAP
78
FC
CC
78
FC
CC
FC
78
ENDCHAR
STARTCHAR crossbar
ENCODING -1
SWIDTH 600 0
DWIDTH 12 0
BBX 6 2 3 6
BITMAP
FC
FC
ENDCHAR
STARTCHAR ringacute
ENCODING -1
SWIDTH 600 0
DWIDTH 12 0
BBX 4 5 5 11
BITMAP
30
40
C0
A0
E0
ENDCHAR
STARTCHAR dasiaoxia
ENCODING -1
SWIDTH 600 0
DWIDTH 12 0
BBX 4 3 5 11
BITMAP
F0
A0
A0
ENDCHAR
STARTCHAR brevetildecomb
ENCODING -1
SWIDTH 600 0
DWIDTH 12 0
BBX 5 5 4 12
BITMAP
68
B8
00
88
70
ENDCHAR
STARTCHAR cyrillictic
ENCODING -1
SWIDTH 600 0
DWIDTH 12 0
BBX 2 5 5 -4
BITMAP
C0
C0
C0
C0
C0
ENDCHAR
STARTCHAR cyrillichook
ENCODING -1
SWIDTH 600 0
DWIDTH 12 0
BBX 5 6 3 -4
BITMAP
18
18
18
18
70
E0
ENDCHAR
STARTCHAR P.smcp
ENCODING -1
SWIDTH 600 0
DWIDTH 12 0
BBX 9 12 2 0
BITMAP
F000
FF00
C300
C180
C180
C300
FF00
C000
C000
C000
C000
C000
ENDCHAR
STARTCHAR K.alt
ENCODING -1
SWIDTH 600 0
DWIDTH 12 0
BBX 10 15 2 0
BITMAP
8180
8300
8300
8600
8600
8C00
9800
F800
9800
8C00
8E00
8600
8300
8180
81C0
ENDCHAR
STARTCHAR Germandbls.smcp
ENCODING -1
SWIDTH 600 0
DWIDTH 12 0
BBX 9 12 2 0
BITMAP
3C00
7F00
C600
C600
CC00
DE00
C700
C180
C180
C100
DF00
DE00
ENDCHAR
STARTCHAR uni0162.smcp
ENCODING -1
SWIDTH 600 0
DWIDTH 12 0
BBX 10 16 1 -4
BITMAP
FFC0
FFC0
0C00
0C00
0C00
0C00
0C00
0C00
0C00
0C00
0C00
0C00
0C00
0600
1400
0C00
ENDCHAR
STARTCHAR Dcroat.smcp
ENCODING -1
SWIDTH 600 0
DWIDTH 12 0
BBX 11 12 0 0
BITMAP
3800
3F80
31C0
30C0
3060
FC60
FC60
3060
3040
30C0
3780
3F00
ENDCHAR
STARTCHAR Eth.smcp
ENCODING -1
SWIDTH 600 0
DWIDTH 12 0
BBX 11 12 0 0
BITMAP
3800
3F80
31C0
30C0
3060
FC60
FC60
3060
3040
30C0
3780
3F00
ENDCHAR
STARTCHAR Tbar.smcp
ENCODING -1
SWIDTH 600 0
DWIDTH 12 0
BBX 10 12 1 0
BITMAP
FFC0
FFC0
0C00
0C00
3F00
3F00
0C00
0C00
0C00
0C00
0C00
0C00
ENDCHAR
STARTCHAR Agrave.smcp
ENCODING -1
SWIDTH 600 0
DWIDTH 12 0
BBX 10 16 1 0
BITMAP
3800
0800
0400
0000
0C00
0C00
1E00
1E00
1200
3300
2100
7F80
7F80
4080
C0C0
C0C0
ENDCHAR
STARTCHAR Aacute.smcp
ENCODING -1
SWIDTH 600 0
DWIDTH 12 0
BBX 10 16 1 0
BITMAP
0700
0400
0800
0000
0C00
0C00
1E00
1E00
1200
3300
2100
7F80
7F80
4080
C0C0
C0C0
ENDCHAR
STARTCHAR Acircumflex.smcp
ENCODING -1
SWIDTH 600 0
DWIDTH 12 0
BBX 10 16 1 0
BITMAP
0C00
1600
2100
0000
0C00
0C00
1E00
1E00
1200
3300
2100
7F80
7F80
4080
C0C0
C0C0
ENDCHAR
STARTCHAR Atilde.smcp
ENCODING -1
SWIDTH 600 0
DWIDTH 12 0
BBX 10 16 1 0
BITMAP
3F00
6000
0000
0000
0C00
0C00
1E00
1E00
1200
3300
2100
7F80
7F80
4080
C0C0
C0C0
ENDCHAR
STARTCHAR Adieresis.smcp
ENCODING -1
SWIDTH 600 0
DWIDTH 12 0
BBX 10 16 1 0
BITMAP
3300
2100
0000
0000
0C00
0C00
1E00
1E00
1200
3300
2100
7F80
7F80
4080
C0C0
C0C0
ENDCHAR
STARTCHAR Aring.smcp
ENCODING -1
SWIDTH 600 0
DWIDTH 12 0
BBX 10 16 1 0
BITMAP
0C00
1E00
1200
1E00
0C00
0C00
1E00
1E00
1200
3300
2100
7F80
7F80
4080
C0C0
C0C0
ENDCHAR
STARTCHAR Aringacute.smcp
ENCODING -1
SWIDTH 600 0
DWIDTH 12 0
BBX 10 17 1 0
BITMAP
0700
0000
0E00
1200
0E00
0C00
0C00
1E00
1E00
1200
3300
2100
7F80
7F80
4080
C0C0
C0C0
ENDCHAR
STARTCHAR Ccedilla.smcp
ENCODING -1
SWIDTH 600 0
DWIDTH 12 0
BBX 10 16 1 -4
BITMAP
1E00
7F80
6180
C0C0
C000
C000
C000
C000
C0C0
6180
7F00
1E00
0C00
0600
1400
0C00
ENDCHAR
STARTCHAR Egrave.smcp
ENCODING -1
SWIDTH 600 0
DWIDTH 12 0
BBX 8 16 2 0
BITMAP
70
10
08
00
FF
FF
C0
C0
C0
FE
C0
C0
C0
C0
FF
FF
ENDCHAR
STARTCHAR Eacute.smcp
ENCODING -1
SWIDTH 600 0
DWIDTH 12 0
BBX 8 16 2 0
BITMAP
0E
08
10
00
FF
FF
C0
C0
C0
FE
C0
C0
C0
C0
FF
FF
ENDCHAR
STARTCHAR Ecircumflex.smcp
ENCODING -1
SWIDTH 600 0
DWIDTH 12 0
BBX 8 16 2 0
BITMAP
18
2C
42
00
FF
FF
C0
C0
C0
FE
C0
C0
C0
C0
FF
FF
ENDCHAR
STARTCHAR Edieresis.smcp
ENCODING -1
SWIDTH 600 0
DWIDTH 12 0
BBX 8 16 2 0
BITMAP
66
42
00
00
FF
FF
C0
C0
C0
FE
C0
C0
C0
C0
FF
FF
ENDCHAR
STARTCHAR Igrave.smcp
ENCODING -1
SWIDTH 600 0
DWIDTH 12 0
BBX 8 15 2 0
BITMAP
70
10
08
FF
FF
18
18
18
18
18
18
18
18
1F
FF
ENDCHAR
STARTCHAR Iacute.smcp
ENCODING -1
SWIDTH 600 0
DWIDTH 12 0
BBX 8 15 2 0
BITMAP
0E
08
10
FF
FF
18
18
18
18
18
18
18
18
1F
FF
ENDCHAR
STARTCHAR Icircumflex.smcp
ENCODING -1
SWIDTH 600 0
DWIDTH 12 0
BBX 8 15 2 0
BITMAP
18
2C
42
FF
FF
18
18
18
18
18
18
18
18
1F
FF
ENDCHAR
STARTCHAR Idieresis.smcp
ENCODING -1
SWIDTH 600 0
DWIDTH 12 0
BBX 8 15 2 0
BITMAP
66
42
00
FF
FF
18
18
18
18
18
18
18
18
1F
FF
ENDCHAR
STARTCHAR Ntilde.smcp
ENCODING -1
SWIDTH 600 0
DWIDTH 12 0
BBX 8 16 2 0
BITMAP
3F
60
00
00
C3
C3
E3
E3
F3
DB
DB
CF
C7
C7
C3
C3
ENDCHAR
STARTCHAR Ograve.smcp
ENCODING -1
SWIDTH 600 0
DWIDTH 12 0
BBX 10 16 1 0
BITMAP
3800
0800
0400
0000
1E00
3F00
6180
4080
C0C0
C0C0
C0C0
C0C0
4080
6180
3F00
1E00
ENDCHAR
STARTCHAR Oacute.smcp
ENCODING -1
SWIDTH 600 0
DWIDTH 12 0
BBX 10 16 1 0
BITMAP
0380
0200
0400
0000
1E00
3F00
6180
4080
C0C0
C0C0
C0C0
C0C0
4080
6180
3F00
1E00
ENDCHAR
STARTCHAR Ocircumflex.smcp
ENCODING -1
SWIDTH 600 0
DWIDTH 12 0
BBX 10 16 1 0
BITMAP
0600
0B00
1080
0000
1E00
3F00
6180
4080
C0C0
C0C0
C0C0
C0C0
4080
6180
3F00
1E00
ENDCHAR
STARTCHAR Otilde.smcp
ENCODING -1
SWIDTH 600 0
DWIDTH 12 0
BBX 10 16 1 0
BITMAP
1F80
3000
0000
0000
1E00
3F00
6180
4080
C0C0
C0C0
C0C0
C0C0
4080
6180
3F00
1E00
ENDCHAR
STARTCHAR Odieresis.smcp
ENCODING -1
SWIDTH 600 0
DWIDTH 12 0
BBX 10 16 1 0
BITMAP
3300
2100
0000
0000
1E00
3F00
6180
4080
C0C0
C0C0
C0C0
C0C0
4080
6180
3F00
1E00
ENDCHAR
STARTCHAR Ugrave.smcp
ENCODING -1
SWIDTH 600 0
DWIDTH 12 0
BBX 8 16 2 0
BITMAP
70
10
08
00
C1
C1
C1
C1
C1
C1
C1
C1
C1
C3
7F
3C
ENDCHAR
STARTCHAR Uacute.smcp
ENCODING -1
SWIDTH 600 0
DWIDTH 12 0
BBX 8 16 2 0
BITMAP
0E
08
10
00
C1
C1
C1
C1
C1
C1
C1
C1
C1
C3
7F
3C
ENDCHAR
STARTCHAR Ucircumflex.smcp
ENCODING -1
SWIDTH 600 0
DWIDTH 12 0
BBX 8 16 2 0
BITMAP
18
2C
42
00
C1
C1
C1
C1
C1
C1
C1
C1
C1
C3
7F
3C
ENDCHAR
STARTCHAR Udieresis.smcp
ENCODING -1
SWIDTH 600 0
DWIDTH 12 0
BBX 8 16 2 0
BITMAP
66
42
00
00
C1
C1
C1
C1
C1
C1
C1
C1
C1
C3
7F
3C
ENDCHAR
STARTCHAR Yacute.smcp
ENCODING -1
SWIDTH 600 0
DWIDTH 12 0
BBX 10 16 1 0
BITMAP
0700
0400
0800
0000
C0C0
C0C0
6180
6180
3300
1E00
1E00
0C00
0C00
0C00
0C00
0C00
ENDCHAR
STARTCHAR Amacron.smcp
ENCODING -1
SWIDTH 600 0
DWIDTH 12 0
BBX 10 15 1 0
BITMAP
3F00
3F00
0000
0C00
0C00
1E00
1E00
1200
3300
2100
7F80
7F80
4080
C0C0
C0C0
ENDCHAR
STARTCHAR Abreve.smcp
ENCODING -1
SWIDTH 600 0
DWIDTH 12 0
BBX 10 16 1 0
BITMAP
3300
3F00
1E00
0000
0C00
0C00
1E00
1E00
1200
3300
2100
7F80
7F80
4080
C0C0
C0C0
ENDCHAR
STARTCHAR Aogonek.smcp
ENCODING -1
SWIDTH 600 0
DWIDTH 12 0
BBX 10 16 1 -4
BITMAP
0C00
0C00
1E00
1E00
3300
3300
2100
7F80
7F80
4080
C0C0
C0C0
0080
0100
01C0
01C0
ENDCHAR
STARTCHAR Cacute.smcp
ENCODING -1
SWIDTH 600 0
DWIDTH 12 0
BBX 10 16 1 0
BITMAP
0700
0400
0800
0000
1E00
7F80
6180
C0C0
C000
C000
C000
C000
C0C0
6180
7F00
1E00
ENDCHAR
STARTCHAR Ccircumflex.smcp
ENCODING -1
SWIDTH 600 0
DWIDTH 12 0
BBX 10 16 1 0
BITMAP
0C00
1600
2100
0000
1E00
7F80
6180
C0C0
C000
C000
C000
C000
C0C0
6180
7F00
1E00
ENDCHAR
STARTCHAR Ccaron.smcp
ENCODING -1
SWIDTH 600 0
DWIDTH 12 0
BBX 10 16 1 0
BITMAP
3300
1E00
0000
0000
1E00
7F80
6180
C0C0
C000
C000
C000
C000
C0C0
6180
7F00
1E00
ENDCHAR
STARTCHAR Dcaron.smcp
ENCODING -1
SWIDTH 600 0
DWIDTH 12 0
BBX 9 16 2 0
BITMAP
CC00
7800
0000
0000
E000
FE00
C700
C300
C180
C180
C180
C180
C100
C300
DE00
FC00
ENDCHAR
STARTCHAR Emacron.smcp
ENCODING -1
SWIDTH 600 0
DWIDTH 12 0
BBX 8 15 2 0
BITMAP
7E
7E
00
FF
FF
C0
C0
C0
FE
C0
C0
C0
C0
FF
FF
ENDCHAR
STARTCHAR Ebreve.smcp
ENCODING -1
SWIDTH 600 0
DWIDTH 12 0
BBX 8 16 2 0
BITMAP
66
7E
3C
00
FF
FF
C0
C0
C0
FE
C0
C0
C0
C0
FF
FF
ENDCHAR
STARTCHAR Edotaccent.smcp
ENCODING -1
SWIDTH 600 0
DWIDTH 12 0
BBX 8 16 2 0
BITMAP
18
18
00
00
FF
FF
C0
C0
C0
FE
C0
C0
C0
C0
FF
FF
ENDCHAR
STARTCHAR Eogonek.smcp
ENCODING -1
SWIDTH 600 0
DWIDTH 12 0
BBX 8 16 2 -4
BITMAP
FF
C0
C0
C0
C0
FE
C0
C0
C0
C0
FF
FF
04
08
0E
0E
ENDCHAR
STARTCHAR Ecaron.smcp
ENCODING -1
SWIDTH 600 0
DWIDTH 12 0
BBX 8 16 2 0
BITMAP
66
3C
00
00
FF
FF
C0
C0
C0
FE
C0
C0
C0
C0
FF
FF
ENDCHAR
STARTCHAR Gcircumflex.smcp
ENCODING -1
SWIDTH 600 0
DWIDTH 12 0
BBX 10 16 1 0
BITMAP
0C00
1600
2100
0000
1E00
3F80
6180
40C0
C000
C000
C7C0
C7C0
40C0
60C0
3FC0
1F00
ENDCHAR
STARTCHAR Gbreve.smcp
ENCODING -1
SWIDTH 600 0
DWIDTH 12 0
BBX 10 16 1 0
BITMAP
3300
3F00
1E00
0000
1E00
3F80
6180
40C0
C000
C000
C7C0
C7C0
40C0
60C0
3FC0
1F00
ENDCHAR
STARTCHAR Gcommaaccent.smcp
ENCODING -1
SWIDTH 600 0
DWIDTH 12 0
BBX 10 17 1 -5
BITMAP
1E00
3F80
6180
40C0
C000
C000
C7C0
C7C0
40C0
60C0
3FC0
1F00
0000
0400
0400
0C00
0800
ENDCHAR
STARTCHAR Hcircumflex.smcp
ENCODING -1
SWIDTH 600 0
DWIDTH 12 0
BBX 8 16 2 0
BITMAP
0C
16
21
00
83
83
83
83
83
83
FF
83
83
83
83
83
ENDCHAR
STARTCHAR Itilde.smcp
ENCODING -1
SWIDTH 600 0
DWIDTH 12 0
BBX 8 15 2 0
BITMAP
3F
60
00
FF
FF
18
18
18
18
18
18
18
18
1F
FF
ENDCHAR
STARTCHAR Imacron.smcp
ENCODING -1
SWIDTH 600 0
DWIDTH 12 0
BBX 8 15 2 0
BITMAP
7E
7E
00
FF
FF
18
18
18
18
18
18
18
18
1F
FF
ENDCHAR
STARTCHAR Ibreve.smcp
ENCODING -1
SWIDTH 600 0
DWIDTH 12 0
BBX 8 16 2 0
BITMAP
66
7E
3C
00
FF
FF
18
18
18
18
18
18
18
18
1F
FF
ENDCHAR
STARTCHAR Iogonek.smcp
ENCODING -1
SWIDTH 600 0
DWIDTH 12 0
BBX 8 16 2 -4
BITMAP
FF
F8
18
18
18
18
18
18
18
18
1F
FF
18
30
3C
1C
ENDCHAR
STARTCHAR Idotaccent.smcp
ENCODING -1
SWIDTH 600 0
DWIDTH 12 0
BBX 8 15 2 0
BITMAP
18
18
00
FF
FF
18
18
18
18
18
18
18
18
1F
FF
ENDCHAR
STARTCHAR Jcircumflex.smcp
ENCODING -1
SWIDTH 600 0
DWIDTH 12 0
BBX 10 16 1 0
BITMAP
0300
0580
0840
0000
0180
0180
0180
0180
0180
0180
0180
0180
C180
6100
7F00
3E00
ENDCHAR
STARTCHAR Kcommaaccent.smcp
ENCODING -1
SWIDTH 600 0
DWIDTH 12 0
BBX 9 17 2 -5
BITMAP
C380
C700
CE00
CC00
D800
F000
F800
CC00
CE00
C600
C300
C180
0000
1000
1000
3000
2000
ENDCHAR
STARTCHAR Lacute.smcp
ENCODING -1
SWIDTH 600 0
DWIDTH 12 0
BBX 9 16 2 0
BITMAP
7000
4000
8000
0000
C000
C000
C000
C000
C000
C000
C000
C000
C000
C000
FF80
FF80
ENDCHAR
STARTCHAR Lcommaaccent.smcp
ENCODING -1
SWIDTH 600 0
DWIDTH 12 0
BBX 9 17 2 -5
BITMAP
C000
C000
C000
C000
C000
C000
C000
C000
C000
C000
FF80
FF80
0000
1000
1000
3000
2000
ENDCHAR
STARTCHAR Lcaron.smcp
ENCODING -1
SWIDTH 600 0
DWIDTH 12 0
BBX 9 12 2 0
BITMAP
CC00
CC00
CC00
CC00
D800
C000
C000
C000
C000
C000
FF80
FF80
ENDCHAR
STARTCHAR Ldot.smcp
ENCODING -1
SWIDTH 600 0
DWIDTH 12 0
BBX 9 12 2 0
BITMAP
C000
C000
C000
C000
D800
D800
C000
C000
C000
C000
FF80
FF80
ENDCHAR
STARTCHAR Nacute.smcp
ENCODING -1
SWIDTH 600 0
DWIDTH 12 0
BBX 8 16 2 0
BITMAP
07
04
08
00
C3
C3
E3
E3
F3
DB
DB
CF
C7
C7
C3
C3
ENDCHAR
STARTCHAR Ncommaaccent.smcp
ENCODING -1
SWIDTH 600 0
DWIDTH 12 0
BBX 8 17 2 -5
BITMAP
C3
C3
E3
E3
F3
DB
DB
CF
C7
C7
C3
C3
00
08
08
18
10
ENDCHAR
STARTCHAR Ncaron.smcp
ENCODING -1
SWIDTH 600 0
DWIDTH 12 0
BBX 8 16 2 0
BITMAP
33
1E
00
00
C3
C3
E3
E3
F3
DB
DB
CF
C7
C7
C3
C3
ENDCHAR
STARTCHAR Omacron.smcp
ENCODING -1
SWIDTH 600 0
DWIDTH 12 0
BBX 10 15 1 0
BITMAP
3F00
3F00
0000
1E00
3F00
6180
4080
C0C0
C0C0
C0C0
C0C0
4080
6180
3F00
1E00
ENDCHAR
STARTCHAR Obreve.smcp
ENCODING -1
SWIDTH 600 0
DWIDTH 12 0
BBX 10 16 1 0
BITMAP
3300
3F00
1E00
0000
1E00
3F00
6180
4080
C0C0
C0C0
C0C0
C0C0
4080
6180
3F00
1E00
ENDCHAR
STARTCHAR Ohungarumlaut.smcp
ENCODING -1
SWIDTH 600 0
DWIDTH 12 0
BBX 11 16 1 0
BITMAP
06E0
0D80
1B00
0000
1E00
3F00
6180
4080
C0C0
C0C0
C0C0
C0C0
4080
6180
3F00
1E00
ENDCHAR
STARTCHAR Racute.smcp
ENCODING -1
SWIDTH 600 0
DWIDTH 12 0
BBX 9 16 1 0
BITMAP
0E00
0800
1000
0000
F800
FF00
C380
C180
C180
C380
FF00
C600
C200
C300
C180
C180
ENDCHAR
STARTCHAR Rcommaaccent.smcp
ENCODING -1
SWIDTH 600 0
DWIDTH 12 0
BBX 9 17 1 -5
BITMAP
F800
FF00
C380
C180
C180
C380
FF00
C600
C200
C300
C180
C180
0000
0800
0800
1800
1000
ENDCHAR
STARTCHAR Rcaron.smcp
ENCODING -1
SWIDTH 600 0
DWIDTH 12 0
BBX 9 16 1 0
BITMAP
6600
3C00
0000
0000
F800
FF00
C380
C180
C180
C380
FF00
C600
C200
C300
C180
C180
ENDCHAR
STARTCHAR Sacute.smcp
ENCODING -1
SWIDTH 600 0
DWIDTH 12 0
BBX 10 16 1 0
BITMAP
0700
0400
0800
0000
1E00
7F80
6180
60C0
6000
3E00
0F00
0180
C0C0
6080
7F80
1F00
ENDCHAR
STARTCHAR Scircumflex.smcp
ENCODING -1
SWIDTH 600 0
DWIDTH 12 0
BBX 10 16 1 0
BITMAP
0C00
1600
2100
0000
1E00
7F80
6180
60C0
6000
3E00
0F00
0180
C0C0
6080
7F80
1F00
ENDCHAR
STARTCHAR Scedilla.smcp
ENCODING -1
SWIDTH 600 0
DWIDTH 12 0
BBX 10 16 1 -4
BITMAP
1E00
7F80
6180
60C0
6000
3E00
0F00
0180
C0C0
6080
7F80
1F00
0600
0300
0A00
0600
ENDCHAR
STARTCHAR Scaron.smcp
ENCODING -1
SWIDTH 600 0
DWIDTH 12 0
BBX 10 16 1 0
BITMAP
3300
1E00
0000
0000
1E00
7F80
6180
60C0
6000
3E00
0F00
0180
C0C0
6080
7F80
1F00
ENDCHAR
STARTCHAR Tcaron.smcp
ENCODING -1
SWIDTH 600 0
DWIDTH 12 0
BBX 10 16 1 0
BITMAP
3300
1E00
0000
0000
FFC0
FFC0
0C00
0C00
0C00
0C00
0C00
0C00
0C00
0C00
0C00
0C00
ENDCHAR
STARTCHAR Utilde.smcp
ENCODING -1
SWIDTH 600 0
DWIDTH 12 0
BBX 8 16 2 0
BITMAP
3F
60
00
00
C1
C1
C1
C1
C1
C1
C1
C1
C1
C3
7F
3C
ENDCHAR
STARTCHAR Umacron.smcp
ENCODING -1
SWIDTH 600 0
DWIDTH 12 0
BBX 8 15 2 0
BITMAP
7E
7E
00
C1
C1
C1
C1
C1
C1
C1
C1
C1
C3
7F
3C
ENDCHAR
STARTCHAR Ubreve.smcp
ENCODING -1
SWIDTH 600 0
DWIDTH 12 0
BBX 8 16 2 0
BITMAP
66
7E
3C
00
C1
C1
C1
C1
C1
C1
C1
C1
C1
C3
7F
3C
ENDCHAR
STARTCHAR Uring.smcp
ENCODING -1
SWIDTH 600 0
DWIDTH 12 0
BBX 8 16 2 0
BITMAP
18
3C
24
3C
D9
C1
C1
C1
C1
C1
C1
C1
C1
C3
7F
3C
ENDCHAR
STARTCHAR Uhungarumlaut.smcp
ENCODING -1
SWIDTH 600 0
DWIDTH 12 0
BBX 10 16 2 0
BITMAP
0DC0
1B00
3600
0000
C100
C100
C100
C100
C100
C100
C100
C100
C100
C300
7F00
3C00
ENDCHAR
STARTCHAR Uogonek.smcp
ENCODING -1
SWIDTH 600 0
DWIDTH 12 0
BBX 8 16 2 -4
BITMAP
C1
C1
C1
C1
C1
C1
C1
C1
C1
C3
7F
3E
0C
18
0E
0E
ENDCHAR
STARTCHAR Wcircumflex.smcp
ENCODING -1
SWIDTH 600 0
DWIDTH 12 0
BBX 12 16 0 0
BITMAP
0180
02C0
0420
0000
C630
4630
4620
6720
6760
6D60
2D60
2940
39C0
39C0
38C0
10C0
ENDCHAR
STARTCHAR Ycircumflex.smcp
ENCODING -1
SWIDTH 600 0
DWIDTH 12 0
BBX 10 16 1 0
BITMAP
0C00
1600
2100
0000
C0C0
C0C0
6180
6180
3300
1E00
1E00
0C00
0C00
0C00
0C00
0C00
ENDCHAR
STARTCHAR Ydieresis.smcp
ENCODING -1
SWIDTH 600 0
DWIDTH 12 0
BBX 10 16 1 0
BITMAP
3300
2100
0000
0000
C0C0
C0C0
6180
6180
3300
1E00
1E00
0C00
0C00
0C00
0C00
0C00
ENDCHAR
STARTCHAR Zacute.smcp
ENCODING -1
SWIDTH 600 0
DWIDTH 12 0
BBX 9 16 2 0
BITMAP
0700
0400
0800
0000
FF00
FF00
0300
0600
0C00
0C00
1800
3000
6000
6000
FF80
FF80
ENDCHAR
STARTCHAR Zdotaccent.smcp
ENCODING -1
SWIDTH 600 0
DWIDTH 12 0
BBX 9 16 2 0
BITMAP
1800
1800
0000
0000
FF00
FF00
0300
0600
0C00
0C00
1800
3000
6000
6000
FF80
FF80
ENDCHAR
STARTCHAR Zcaron.smcp
ENCODING -1
SWIDTH 600 0
DWIDTH 12 0
BBX 9 16 2 0
BITMAP
6600
3C00
0000
0000
FF00
FF00
0300
0600
0C00
0C00
1800
3000
6000
6000
FF80
FF80
ENDCHAR
ENDFONT
